<svg width="560" height="235" viewBox="0 0 560 235" fill="none" xmlns="http://www.w3.org/2000/svg">
<path d="M0 20C0 8.9543 8.95431 0 20 0H540C551.046 0 560 8.9543 560 20V215C560 226.046 551.046 235 540 235H20C8.9543 235 0 226.046 0 215V20Z" fill="#1F1F1F"/>
<path d="M259.166 87.0001C259.166 79.1434 259.166 75.215 261.607 72.7742C264.048 70.3334 267.976 70.3334 275.833 70.3334H284.166C292.023 70.3334 295.951 70.3334 298.392 72.7742C300.833 75.215 300.833 79.1434 300.833 87.0001C300.833 94.8568 300.833 98.7852 298.392 101.226C295.951 103.667 292.023 103.667 284.166 103.667H275.833C267.976 103.667 264.048 103.667 261.607 101.226C259.166 98.7852 259.166 94.8568 259.166 87.0001Z" stroke="#FFDD1A" stroke-width="3.125"/>
<path d="M267.501 78.6666L271.999 82.4146C275.825 85.6033 277.738 87.1976 280.001 87.1976C282.264 87.1976 284.177 85.6033 288.003 82.4146L292.501 78.6666" stroke="#FFDD1A" stroke-width="3.125" stroke-linecap="round"/>
<path d="M190.184 163V156.62L184.618 147.38H186.4L190.932 155.102L195.464 147.38H197.246L191.68 156.62V163H190.184ZM201.825 163.264C200.769 163.264 199.845 163.015 199.053 162.516C198.275 162.017 197.674 161.313 197.249 160.404C196.823 159.48 196.611 158.402 196.611 157.17C196.611 155.923 196.823 154.845 197.249 153.936C197.674 153.027 198.275 152.323 199.053 151.824C199.845 151.325 200.769 151.076 201.825 151.076C202.881 151.076 203.797 151.325 204.575 151.824C205.352 152.323 205.953 153.027 206.379 153.936C206.804 154.845 207.017 155.923 207.017 157.17C207.017 158.402 206.804 159.48 206.379 160.404C205.953 161.313 205.352 162.017 204.575 162.516C203.797 163.015 202.881 163.264 201.825 163.264ZM201.825 161.878C202.969 161.878 203.863 161.46 204.509 160.624C205.169 159.773 205.499 158.622 205.499 157.17C205.499 155.718 205.169 154.574 204.509 153.738C203.863 152.887 202.969 152.462 201.825 152.462C200.681 152.462 199.779 152.887 199.119 153.738C198.459 154.574 198.129 155.718 198.129 157.17C198.129 158.622 198.459 159.773 199.119 160.624C199.779 161.46 200.681 161.878 201.825 161.878ZM213.455 163.264C212.297 163.264 211.365 162.875 210.661 162.098C209.972 161.306 209.627 160.221 209.627 158.842V151.34H211.079V158.402C211.079 159.605 211.307 160.499 211.761 161.086C212.231 161.673 212.92 161.966 213.829 161.966C214.841 161.966 215.633 161.636 216.205 160.976C216.792 160.316 217.085 159.421 217.085 158.292V151.34H218.537V163H217.173L217.151 160.008L217.371 160.118C217.181 161.115 216.741 161.893 216.051 162.45C215.377 162.993 214.511 163.264 213.455 163.264ZM222.153 163V151.34H223.407L223.495 154.53L223.297 154.42C223.487 153.379 223.832 152.609 224.331 152.11C224.829 151.597 225.519 151.34 226.399 151.34H227.411V152.748H226.355C225.768 152.748 225.269 152.88 224.859 153.144C224.448 153.393 224.133 153.753 223.913 154.222C223.707 154.691 223.605 155.249 223.605 155.894V163H222.153ZM235.973 163V147.38H245.587V148.832H237.469V154.464H245.323V155.894H237.469V161.548H245.763V163H235.973ZM248.772 163V151.34H250.092L250.158 154.486L249.96 154.31C250.048 153.665 250.26 153.1 250.598 152.616C250.935 152.132 251.36 151.758 251.874 151.494C252.387 151.215 252.959 151.076 253.59 151.076C254.543 151.076 255.335 151.384 255.966 152C256.596 152.601 256.978 153.437 257.11 154.508L256.802 154.464C256.904 153.76 257.117 153.159 257.44 152.66C257.777 152.147 258.21 151.758 258.738 151.494C259.266 151.215 259.86 151.076 260.52 151.076C261.297 151.076 261.964 151.259 262.522 151.626C263.079 151.978 263.504 152.484 263.798 153.144C264.091 153.804 264.238 154.596 264.238 155.52V163H262.786V155.96C262.786 154.801 262.558 153.914 262.104 153.298C261.664 152.682 261.026 152.374 260.19 152.374C259.603 152.374 259.082 152.528 258.628 152.836C258.188 153.144 257.836 153.577 257.572 154.134C257.322 154.691 257.198 155.344 257.198 156.092V163H255.746V156.026C255.746 154.897 255.54 154.009 255.13 153.364C254.734 152.704 254.103 152.374 253.238 152.374C252.651 152.374 252.13 152.528 251.676 152.836C251.221 153.144 250.862 153.569 250.598 154.112C250.348 154.655 250.224 155.293 250.224 156.026V163H248.772ZM270.715 163.264C269.542 163.264 268.603 162.985 267.899 162.428C267.195 161.856 266.843 161.086 266.843 160.118C266.843 159.15 267.151 158.387 267.767 157.83C268.383 157.273 269.285 156.884 270.473 156.664L274.785 155.85C274.785 154.691 274.536 153.841 274.037 153.298C273.538 152.741 272.783 152.462 271.771 152.462C270.876 152.462 270.165 152.675 269.637 153.1C269.109 153.525 268.757 154.127 268.581 154.904L267.041 154.772C267.261 153.643 267.774 152.748 268.581 152.088C269.402 151.413 270.466 151.076 271.771 151.076C273.223 151.076 274.33 151.487 275.093 152.308C275.856 153.129 276.237 154.303 276.237 155.828V160.69C276.237 161.086 276.296 161.357 276.413 161.504C276.545 161.636 276.75 161.702 277.029 161.702H277.381V163C277.322 163.015 277.234 163.022 277.117 163.022C277.014 163.037 276.904 163.044 276.787 163.044C276.332 163.044 275.951 162.963 275.643 162.802C275.35 162.641 275.13 162.377 274.983 162.01C274.851 161.643 274.785 161.137 274.785 160.492L274.961 160.514C274.829 161.027 274.558 161.497 274.147 161.922C273.751 162.333 273.252 162.663 272.651 162.912C272.05 163.147 271.404 163.264 270.715 163.264ZM270.847 161.966C271.654 161.966 272.35 161.805 272.937 161.482C273.524 161.159 273.978 160.727 274.301 160.184C274.624 159.627 274.785 159.003 274.785 158.314V157.148L270.781 157.896C269.945 158.057 269.329 158.307 268.933 158.644C268.552 158.981 268.361 159.429 268.361 159.986C268.361 160.617 268.581 161.108 269.021 161.46C269.461 161.797 270.07 161.966 270.847 161.966ZM279.494 163V151.34H280.946V163H279.494ZM279.45 149.404V147.446H280.99V149.404H279.45ZM286.462 163C285.802 163 285.282 162.839 284.9 162.516C284.519 162.179 284.328 161.658 284.328 160.954V147.38H285.78V160.844C285.78 161.123 285.854 161.335 286 161.482C286.147 161.629 286.367 161.702 286.66 161.702H287.584V163H286.462ZM294.137 163L299.835 147.38H301.815L307.491 163H305.863L304.191 158.314H297.437L295.765 163H294.137ZM297.943 156.862H303.685L300.825 148.722L297.943 156.862ZM313.536 163.264C312.524 163.264 311.651 163.015 310.918 162.516C310.185 162.017 309.62 161.313 309.224 160.404C308.828 159.495 308.63 158.417 308.63 157.17C308.63 155.923 308.828 154.845 309.224 153.936C309.62 153.027 310.185 152.323 310.918 151.824C311.651 151.325 312.524 151.076 313.536 151.076C314.387 151.076 315.142 151.289 315.802 151.714C316.477 152.125 316.968 152.682 317.276 153.386V147.38H318.728V163H317.452L317.386 160.822C317.063 161.585 316.55 162.186 315.846 162.626C315.157 163.051 314.387 163.264 313.536 163.264ZM313.778 161.878C314.511 161.878 315.135 161.687 315.648 161.306C316.176 160.91 316.579 160.36 316.858 159.656C317.137 158.937 317.276 158.109 317.276 157.17C317.276 156.231 317.137 155.41 316.858 154.706C316.579 154.002 316.176 153.452 315.648 153.056C315.135 152.66 314.511 152.462 313.778 152.462C312.678 152.462 311.798 152.887 311.138 153.738C310.478 154.574 310.148 155.718 310.148 157.17C310.148 158.607 310.478 159.751 311.138 160.602C311.798 161.453 312.678 161.878 313.778 161.878ZM326.233 163.264C325.221 163.264 324.349 163.015 323.615 162.516C322.882 162.017 322.317 161.313 321.921 160.404C321.525 159.495 321.327 158.417 321.327 157.17C321.327 155.923 321.525 154.845 321.921 153.936C322.317 153.027 322.882 152.323 323.615 151.824C324.349 151.325 325.221 151.076 326.233 151.076C327.084 151.076 327.839 151.289 328.499 151.714C329.174 152.125 329.665 152.682 329.973 153.386V147.38H331.425V163H330.149L330.083 160.822C329.761 161.585 329.247 162.186 328.543 162.626C327.854 163.051 327.084 163.264 326.233 163.264ZM326.475 161.878C327.209 161.878 327.832 161.687 328.345 161.306C328.873 160.91 329.277 160.36 329.555 159.656C329.834 158.937 329.973 158.109 329.973 157.17C329.973 156.231 329.834 155.41 329.555 154.706C329.277 154.002 328.873 153.452 328.345 153.056C327.832 152.66 327.209 152.462 326.475 152.462C325.375 152.462 324.495 152.887 323.835 153.738C323.175 154.574 322.845 155.718 322.845 157.17C322.845 158.607 323.175 159.751 323.835 160.602C324.495 161.453 325.375 161.878 326.475 161.878ZM335.246 163V151.34H336.5L336.588 154.53L336.39 154.42C336.581 153.379 336.926 152.609 337.424 152.11C337.923 151.597 338.612 151.34 339.492 151.34H340.504V152.748H339.448C338.862 152.748 338.363 152.88 337.952 153.144C337.542 153.393 337.226 153.753 337.006 154.222C336.801 154.691 336.698 155.249 336.698 155.894V163H335.246ZM346.91 163.264C345.795 163.264 344.849 163.007 344.072 162.494C343.294 161.966 342.693 161.247 342.268 160.338C341.857 159.414 341.652 158.358 341.652 157.17C341.652 155.982 341.857 154.933 342.268 154.024C342.678 153.1 343.265 152.381 344.028 151.868C344.805 151.34 345.736 151.076 346.822 151.076C347.863 151.076 348.765 151.325 349.528 151.824C350.29 152.323 350.87 153.027 351.266 153.936C351.676 154.845 351.882 155.909 351.882 157.126V157.588H343.17C343.228 158.967 343.588 160.03 344.248 160.778C344.908 161.511 345.795 161.878 346.91 161.878C347.76 161.878 348.457 161.673 349 161.262C349.542 160.851 349.916 160.309 350.122 159.634L351.684 159.744C351.39 160.771 350.826 161.614 349.99 162.274C349.154 162.934 348.127 163.264 346.91 163.264ZM343.17 156.29H350.298C350.224 155.043 349.88 154.097 349.264 153.452C348.648 152.792 347.834 152.462 346.822 152.462C345.81 152.462 344.981 152.792 344.336 153.452C343.69 154.112 343.302 155.058 343.17 156.29ZM358.611 163.264C357.599 163.264 356.734 163.103 356.015 162.78C355.311 162.443 354.761 161.981 354.365 161.394C353.969 160.807 353.742 160.147 353.683 159.414L355.201 159.304C355.289 160.081 355.612 160.705 356.169 161.174C356.741 161.643 357.555 161.878 358.611 161.878C359.535 161.878 360.254 161.724 360.767 161.416C361.28 161.108 361.537 160.631 361.537 159.986C361.537 159.634 361.456 159.341 361.295 159.106C361.148 158.857 360.84 158.644 360.371 158.468C359.902 158.277 359.198 158.101 358.259 157.94C357.159 157.735 356.301 157.493 355.685 157.214C355.069 156.921 354.636 156.561 354.387 156.136C354.138 155.696 354.013 155.175 354.013 154.574C354.013 153.533 354.387 152.689 355.135 152.044C355.883 151.399 356.924 151.076 358.259 151.076C359.168 151.076 359.938 151.245 360.569 151.582C361.214 151.919 361.72 152.367 362.087 152.924C362.454 153.467 362.696 154.068 362.813 154.728L361.295 154.86C361.207 154.405 361.038 154.002 360.789 153.65C360.54 153.283 360.202 152.997 359.777 152.792C359.352 152.572 358.838 152.462 358.237 152.462C357.357 152.462 356.682 152.653 356.213 153.034C355.758 153.401 355.531 153.892 355.531 154.508C355.531 154.933 355.626 155.285 355.817 155.564C356.008 155.828 356.323 156.048 356.763 156.224C357.203 156.385 357.812 156.532 358.589 156.664C359.748 156.855 360.65 157.097 361.295 157.39C361.955 157.669 362.417 158.021 362.681 158.446C362.945 158.857 363.077 159.363 363.077 159.964C363.077 160.668 362.886 161.269 362.505 161.768C362.124 162.252 361.596 162.626 360.921 162.89C360.261 163.139 359.491 163.264 358.611 163.264ZM369.804 163.264C368.792 163.264 367.927 163.103 367.208 162.78C366.504 162.443 365.954 161.981 365.558 161.394C365.162 160.807 364.935 160.147 364.876 159.414L366.394 159.304C366.482 160.081 366.805 160.705 367.362 161.174C367.934 161.643 368.748 161.878 369.804 161.878C370.728 161.878 371.447 161.724 371.96 161.416C372.474 161.108 372.73 160.631 372.73 159.986C372.73 159.634 372.65 159.341 372.488 159.106C372.342 158.857 372.034 158.644 371.564 158.468C371.095 158.277 370.391 158.101 369.452 157.94C368.352 157.735 367.494 157.493 366.878 157.214C366.262 156.921 365.83 156.561 365.58 156.136C365.331 155.696 365.206 155.175 365.206 154.574C365.206 153.533 365.58 152.689 366.328 152.044C367.076 151.399 368.118 151.076 369.452 151.076C370.362 151.076 371.132 151.245 371.762 151.582C372.408 151.919 372.914 152.367 373.28 152.924C373.647 153.467 373.889 154.068 374.006 154.728L372.488 154.86C372.4 154.405 372.232 154.002 371.982 153.65C371.733 153.283 371.396 152.997 370.97 152.792C370.545 152.572 370.032 152.462 369.43 152.462C368.55 152.462 367.876 152.653 367.406 153.034C366.952 153.401 366.724 153.892 366.724 154.508C366.724 154.933 366.82 155.285 367.01 155.564C367.201 155.828 367.516 156.048 367.956 156.224C368.396 156.385 369.005 156.532 369.782 156.664C370.941 156.855 371.843 157.097 372.488 157.39C373.148 157.669 373.61 158.021 373.874 158.446C374.138 158.857 374.27 159.363 374.27 159.964C374.27 160.668 374.08 161.269 373.698 161.768C373.317 162.252 372.789 162.626 372.114 162.89C371.454 163.139 370.684 163.264 369.804 163.264Z" fill="white"/>
</svg>
