<svg width="559" height="235" viewBox="0 0 559 235" fill="none" xmlns="http://www.w3.org/2000/svg">
<path d="M0 20C0 8.9543 8.95431 0 20 0H539C550.046 0 559 8.9543 559 20V215C559 226.046 550.046 235 539 235H20C8.9543 235 0 226.046 0 215V20Z" fill="#F8F8F8"/>
<path d="M262.833 83.1312C262.833 73.7616 270.295 66.166 279.5 66.166C288.704 66.166 296.166 73.7616 296.166 83.1312C296.166 92.4274 290.847 103.275 282.547 107.154C280.613 108.059 278.387 108.059 276.452 107.154C268.152 103.275 262.833 92.4274 262.833 83.1312Z" stroke="#4C8C74" stroke-width="3.125"/>
<circle cx="279.5" cy="82.832" r="6.25" stroke="#4C8C74" stroke-width="3.125"/>
<path d="M173.001 163V156.62L167.435 147.38H169.217L173.749 155.102L178.281 147.38H180.063L174.497 156.62V163H173.001ZM184.642 163.264C183.586 163.264 182.662 163.015 181.87 162.516C181.093 162.017 180.491 161.313 180.066 160.404C179.641 159.48 179.428 158.402 179.428 157.17C179.428 155.923 179.641 154.845 180.066 153.936C180.491 153.027 181.093 152.323 181.87 151.824C182.662 151.325 183.586 151.076 184.642 151.076C185.698 151.076 186.615 151.325 187.392 151.824C188.169 152.323 188.771 153.027 189.196 153.936C189.621 154.845 189.834 155.923 189.834 157.17C189.834 158.402 189.621 159.48 189.196 160.404C188.771 161.313 188.169 162.017 187.392 162.516C186.615 163.015 185.698 163.264 184.642 163.264ZM184.642 161.878C185.786 161.878 186.681 161.46 187.326 160.624C187.986 159.773 188.316 158.622 188.316 157.17C188.316 155.718 187.986 154.574 187.326 153.738C186.681 152.887 185.786 152.462 184.642 152.462C183.498 152.462 182.596 152.887 181.936 153.738C181.276 154.574 180.946 155.718 180.946 157.17C180.946 158.622 181.276 159.773 181.936 160.624C182.596 161.46 183.498 161.878 184.642 161.878ZM196.273 163.264C195.114 163.264 194.183 162.875 193.479 162.098C192.789 161.306 192.445 160.221 192.445 158.842V151.34H193.897V158.402C193.897 159.605 194.124 160.499 194.579 161.086C195.048 161.673 195.737 161.966 196.647 161.966C197.659 161.966 198.451 161.636 199.023 160.976C199.609 160.316 199.903 159.421 199.903 158.292V151.34H201.355V163H199.991L199.969 160.008L200.189 160.118C199.998 161.115 199.558 161.893 198.869 162.45C198.194 162.993 197.329 163.264 196.273 163.264ZM204.97 163V151.34H206.224L206.312 154.53L206.114 154.42C206.305 153.379 206.649 152.609 207.148 152.11C207.647 151.597 208.336 151.34 209.216 151.34H210.228V152.748H209.172C208.585 152.748 208.087 152.88 207.676 153.144C207.265 153.393 206.95 153.753 206.73 154.222C206.525 154.691 206.422 155.249 206.422 155.894V163H204.97ZM218.79 163V147.38H220.286V162.252L219.604 161.548H228.294V163H218.79ZM234.765 163.264C233.709 163.264 232.785 163.015 231.993 162.516C231.216 162.017 230.614 161.313 230.189 160.404C229.764 159.48 229.551 158.402 229.551 157.17C229.551 155.923 229.764 154.845 230.189 153.936C230.614 153.027 231.216 152.323 231.993 151.824C232.785 151.325 233.709 151.076 234.765 151.076C235.821 151.076 236.738 151.325 237.515 151.824C238.292 152.323 238.894 153.027 239.319 153.936C239.744 154.845 239.957 155.923 239.957 157.17C239.957 158.402 239.744 159.48 239.319 160.404C238.894 161.313 238.292 162.017 237.515 162.516C236.738 163.015 235.821 163.264 234.765 163.264ZM234.765 161.878C235.909 161.878 236.804 161.46 237.449 160.624C238.109 159.773 238.439 158.622 238.439 157.17C238.439 155.718 238.109 154.574 237.449 153.738C236.804 152.887 235.909 152.462 234.765 152.462C233.621 152.462 232.719 152.887 232.059 153.738C231.399 154.574 231.069 155.718 231.069 157.17C231.069 158.622 231.399 159.773 232.059 160.624C232.719 161.46 233.621 161.878 234.765 161.878ZM246.99 163.264C245.904 163.264 244.973 163.007 244.196 162.494C243.418 161.966 242.817 161.247 242.392 160.338C241.981 159.414 241.776 158.358 241.776 157.17C241.776 155.982 241.981 154.933 242.392 154.024C242.817 153.1 243.418 152.381 244.196 151.868C244.973 151.34 245.904 151.076 246.99 151.076C247.884 151.076 248.669 151.237 249.344 151.56C250.018 151.883 250.568 152.345 250.994 152.946C251.419 153.547 251.705 154.259 251.852 155.08L250.334 155.168C250.158 154.303 249.776 153.635 249.19 153.166C248.618 152.697 247.884 152.462 246.99 152.462C245.846 152.462 244.944 152.887 244.284 153.738C243.624 154.574 243.294 155.718 243.294 157.17C243.294 158.622 243.624 159.773 244.284 160.624C244.944 161.46 245.846 161.878 246.99 161.878C247.884 161.878 248.625 161.629 249.212 161.13C249.813 160.617 250.194 159.883 250.356 158.93L251.874 159.04C251.727 159.891 251.434 160.631 250.994 161.262C250.568 161.893 250.018 162.384 249.344 162.736C248.669 163.088 247.884 163.264 246.99 163.264ZM257.636 163.264C256.463 163.264 255.524 162.985 254.82 162.428C254.116 161.856 253.764 161.086 253.764 160.118C253.764 159.15 254.072 158.387 254.688 157.83C255.304 157.273 256.206 156.884 257.394 156.664L261.706 155.85C261.706 154.691 261.457 153.841 260.958 153.298C260.459 152.741 259.704 152.462 258.692 152.462C257.797 152.462 257.086 152.675 256.558 153.1C256.03 153.525 255.678 154.127 255.502 154.904L253.962 154.772C254.182 153.643 254.695 152.748 255.502 152.088C256.323 151.413 257.387 151.076 258.692 151.076C260.144 151.076 261.251 151.487 262.014 152.308C262.777 153.129 263.158 154.303 263.158 155.828V160.69C263.158 161.086 263.217 161.357 263.334 161.504C263.466 161.636 263.671 161.702 263.95 161.702H264.302V163C264.243 163.015 264.155 163.022 264.038 163.022C263.935 163.037 263.825 163.044 263.708 163.044C263.253 163.044 262.872 162.963 262.564 162.802C262.271 162.641 262.051 162.377 261.904 162.01C261.772 161.643 261.706 161.137 261.706 160.492L261.882 160.514C261.75 161.027 261.479 161.497 261.068 161.922C260.672 162.333 260.173 162.663 259.572 162.912C258.971 163.147 258.325 163.264 257.636 163.264ZM257.768 161.966C258.575 161.966 259.271 161.805 259.858 161.482C260.445 161.159 260.899 160.727 261.222 160.184C261.545 159.627 261.706 159.003 261.706 158.314V157.148L257.702 157.896C256.866 158.057 256.25 158.307 255.854 158.644C255.473 158.981 255.282 159.429 255.282 159.986C255.282 160.617 255.502 161.108 255.942 161.46C256.382 161.797 256.991 161.966 257.768 161.966ZM269.905 163C268.952 163 268.248 162.78 267.793 162.34C267.339 161.885 267.111 161.196 267.111 160.272V148.612H268.563V160.228C268.563 160.771 268.681 161.152 268.915 161.372C269.165 161.592 269.539 161.702 270.037 161.702H271.577V163H269.905ZM265.285 152.638V151.34H271.577V152.638H265.285ZM274.042 163V151.34H275.494V163H274.042ZM273.998 149.404V147.446H275.538V149.404H273.998ZM283.277 163.264C282.221 163.264 281.297 163.015 280.505 162.516C279.727 162.017 279.126 161.313 278.701 160.404C278.275 159.48 278.063 158.402 278.063 157.17C278.063 155.923 278.275 154.845 278.701 153.936C279.126 153.027 279.727 152.323 280.505 151.824C281.297 151.325 282.221 151.076 283.277 151.076C284.333 151.076 285.249 151.325 286.027 151.824C286.804 152.323 287.405 153.027 287.831 153.936C288.256 154.845 288.469 155.923 288.469 157.17C288.469 158.402 288.256 159.48 287.831 160.404C287.405 161.313 286.804 162.017 286.027 162.516C285.249 163.015 284.333 163.264 283.277 163.264ZM283.277 161.878C284.421 161.878 285.315 161.46 285.961 160.624C286.621 159.773 286.951 158.622 286.951 157.17C286.951 155.718 286.621 154.574 285.961 153.738C285.315 152.887 284.421 152.462 283.277 152.462C282.133 152.462 281.231 152.887 280.571 153.738C279.911 154.574 279.581 155.718 279.581 157.17C279.581 158.622 279.911 159.773 280.571 160.624C281.231 161.46 282.133 161.878 283.277 161.878ZM291.079 163V151.34H292.399L292.465 154.398L292.289 154.266C292.407 153.547 292.649 152.953 293.015 152.484C293.397 152.015 293.859 151.663 294.401 151.428C294.944 151.193 295.531 151.076 296.161 151.076C297.056 151.076 297.789 151.274 298.361 151.67C298.948 152.066 299.381 152.601 299.659 153.276C299.938 153.936 300.077 154.677 300.077 155.498V163H298.625V156.026C298.625 155.263 298.53 154.611 298.339 154.068C298.163 153.525 297.87 153.107 297.459 152.814C297.049 152.521 296.513 152.374 295.853 152.374C294.856 152.374 294.049 152.697 293.433 153.342C292.832 153.987 292.531 154.882 292.531 156.026V163H291.079ZM302.767 165.42L309.257 146.5H310.665L304.175 165.42H302.767ZM310.319 163L316.017 147.38H317.997L323.673 163H322.045L320.373 158.314H313.619L311.947 163H310.319ZM314.125 156.862H319.867L317.007 148.722L314.125 156.862ZM329.719 163.264C328.707 163.264 327.834 163.015 327.101 162.516C326.367 162.017 325.803 161.313 325.407 160.404C325.011 159.495 324.813 158.417 324.813 157.17C324.813 155.923 325.011 154.845 325.407 153.936C325.803 153.027 326.367 152.323 327.101 151.824C327.834 151.325 328.707 151.076 329.719 151.076C330.569 151.076 331.325 151.289 331.985 151.714C332.659 152.125 333.151 152.682 333.459 153.386V147.38H334.911V163H333.635L333.569 160.822C333.246 161.585 332.733 162.186 332.029 162.626C331.339 163.051 330.569 163.264 329.719 163.264ZM329.961 161.878C330.694 161.878 331.317 161.687 331.831 161.306C332.359 160.91 332.762 160.36 333.041 159.656C333.319 158.937 333.459 158.109 333.459 157.17C333.459 156.231 333.319 155.41 333.041 154.706C332.762 154.002 332.359 153.452 331.831 153.056C331.317 152.66 330.694 152.462 329.961 152.462C328.861 152.462 327.981 152.887 327.321 153.738C326.661 154.574 326.331 155.718 326.331 157.17C326.331 158.607 326.661 159.751 327.321 160.602C327.981 161.453 328.861 161.878 329.961 161.878ZM342.416 163.264C341.404 163.264 340.531 163.015 339.798 162.516C339.065 162.017 338.5 161.313 338.104 160.404C337.708 159.495 337.51 158.417 337.51 157.17C337.51 155.923 337.708 154.845 338.104 153.936C338.5 153.027 339.065 152.323 339.798 151.824C340.531 151.325 341.404 151.076 342.416 151.076C343.267 151.076 344.022 151.289 344.682 151.714C345.357 152.125 345.848 152.682 346.156 153.386V147.38H347.608V163H346.332L346.266 160.822C345.943 161.585 345.43 162.186 344.726 162.626C344.037 163.051 343.267 163.264 342.416 163.264ZM342.658 161.878C343.391 161.878 344.015 161.687 344.528 161.306C345.056 160.91 345.459 160.36 345.738 159.656C346.017 158.937 346.156 158.109 346.156 157.17C346.156 156.231 346.017 155.41 345.738 154.706C345.459 154.002 345.056 153.452 344.528 153.056C344.015 152.66 343.391 152.462 342.658 152.462C341.558 152.462 340.678 152.887 340.018 153.738C339.358 154.574 339.028 155.718 339.028 157.17C339.028 158.607 339.358 159.751 340.018 160.602C340.678 161.453 341.558 161.878 342.658 161.878ZM351.429 163V151.34H352.683L352.771 154.53L352.573 154.42C352.764 153.379 353.108 152.609 353.607 152.11C354.106 151.597 354.795 151.34 355.675 151.34H356.687V152.748H355.631C355.044 152.748 354.546 152.88 354.135 153.144C353.724 153.393 353.409 153.753 353.189 154.222C352.984 154.691 352.881 155.249 352.881 155.894V163H351.429ZM363.092 163.264C361.978 163.264 361.032 163.007 360.254 162.494C359.477 161.966 358.876 161.247 358.45 160.338C358.04 159.414 357.834 158.358 357.834 157.17C357.834 155.982 358.04 154.933 358.45 154.024C358.861 153.1 359.448 152.381 360.21 151.868C360.988 151.34 361.919 151.076 363.004 151.076C364.046 151.076 364.948 151.325 365.71 151.824C366.473 152.323 367.052 153.027 367.448 153.936C367.859 154.845 368.064 155.909 368.064 157.126V157.588H359.352C359.411 158.967 359.77 160.03 360.43 160.778C361.09 161.511 361.978 161.878 363.092 161.878C363.943 161.878 364.64 161.673 365.182 161.262C365.725 160.851 366.099 160.309 366.304 159.634L367.866 159.744C367.573 160.771 367.008 161.614 366.172 162.274C365.336 162.934 364.31 163.264 363.092 163.264ZM359.352 156.29H366.48C366.407 155.043 366.062 154.097 365.446 153.452C364.83 152.792 364.016 152.462 363.004 152.462C361.992 152.462 361.164 152.792 360.518 153.452C359.873 154.112 359.484 155.058 359.352 156.29ZM374.794 163.264C373.782 163.264 372.916 163.103 372.198 162.78C371.494 162.443 370.944 161.981 370.548 161.394C370.152 160.807 369.924 160.147 369.866 159.414L371.384 159.304C371.472 160.081 371.794 160.705 372.352 161.174C372.924 161.643 373.738 161.878 374.794 161.878C375.718 161.878 376.436 161.724 376.95 161.416C377.463 161.108 377.72 160.631 377.72 159.986C377.72 159.634 377.639 159.341 377.478 159.106C377.331 158.857 377.023 158.644 376.554 158.468C376.084 158.277 375.38 158.101 374.442 157.94C373.342 157.735 372.484 157.493 371.868 157.214C371.252 156.921 370.819 156.561 370.57 156.136C370.32 155.696 370.196 155.175 370.196 154.574C370.196 153.533 370.57 152.689 371.318 152.044C372.066 151.399 373.107 151.076 374.442 151.076C375.351 151.076 376.121 151.245 376.752 151.582C377.397 151.919 377.903 152.367 378.27 152.924C378.636 153.467 378.878 154.068 378.996 154.728L377.478 154.86C377.39 154.405 377.221 154.002 376.972 153.65C376.722 153.283 376.385 152.997 375.96 152.792C375.534 152.572 375.021 152.462 374.42 152.462C373.54 152.462 372.865 152.653 372.396 153.034C371.941 153.401 371.714 153.892 371.714 154.508C371.714 154.933 371.809 155.285 372 155.564C372.19 155.828 372.506 156.048 372.946 156.224C373.386 156.385 373.994 156.532 374.772 156.664C375.93 156.855 376.832 157.097 377.478 157.39C378.138 157.669 378.6 158.021 378.864 158.446C379.128 158.857 379.26 159.363 379.26 159.964C379.26 160.668 379.069 161.269 378.688 161.768C378.306 162.252 377.778 162.626 377.104 162.89C376.444 163.139 375.674 163.264 374.794 163.264ZM385.987 163.264C384.975 163.264 384.11 163.103 383.391 162.78C382.687 162.443 382.137 161.981 381.741 161.394C381.345 160.807 381.118 160.147 381.059 159.414L382.577 159.304C382.665 160.081 382.988 160.705 383.545 161.174C384.117 161.643 384.931 161.878 385.987 161.878C386.911 161.878 387.63 161.724 388.143 161.416C388.656 161.108 388.913 160.631 388.913 159.986C388.913 159.634 388.832 159.341 388.671 159.106C388.524 158.857 388.216 158.644 387.747 158.468C387.278 158.277 386.574 158.101 385.635 157.94C384.535 157.735 383.677 157.493 383.061 157.214C382.445 156.921 382.012 156.561 381.763 156.136C381.514 155.696 381.389 155.175 381.389 154.574C381.389 153.533 381.763 152.689 382.511 152.044C383.259 151.399 384.3 151.076 385.635 151.076C386.544 151.076 387.314 151.245 387.945 151.582C388.59 151.919 389.096 152.367 389.463 152.924C389.83 153.467 390.072 154.068 390.189 154.728L388.671 154.86C388.583 154.405 388.414 154.002 388.165 153.65C387.916 153.283 387.578 152.997 387.153 152.792C386.728 152.572 386.214 152.462 385.613 152.462C384.733 152.462 384.058 152.653 383.589 153.034C383.134 153.401 382.907 153.892 382.907 154.508C382.907 154.933 383.002 155.285 383.193 155.564C383.384 155.828 383.699 156.048 384.139 156.224C384.579 156.385 385.188 156.532 385.965 156.664C387.124 156.855 388.026 157.097 388.671 157.39C389.331 157.669 389.793 158.021 390.057 158.446C390.321 158.857 390.453 159.363 390.453 159.964C390.453 160.668 390.262 161.269 389.881 161.768C389.5 162.252 388.972 162.626 388.297 162.89C387.637 163.139 386.867 163.264 385.987 163.264Z" fill="#444444"/>
</svg>
