<svg width="559" height="235" viewBox="0 0 559 235" fill="none" xmlns="http://www.w3.org/2000/svg">
<path d="M0 20C0 8.9543 8.95431 0 20 0H539C550.046 0 559 8.9543 559 20V215C559 226.046 550.046 235 539 235H20C8.9543 235 0 226.046 0 215V20Z" fill="#1F1F1F"/>
<path d="M275.411 73.0753L276.763 75.4981C277.984 77.6845 277.494 80.5527 275.572 82.4746C275.572 82.4746 273.241 84.8057 277.467 89.0322C281.694 93.2587 284.025 90.9277 284.025 90.9277C285.947 89.0059 288.815 88.516 291.002 89.7362L293.424 91.0883C296.726 92.9309 297.116 97.5609 294.214 100.463C292.47 102.207 290.334 103.563 287.972 103.653C283.997 103.804 277.246 102.798 270.474 96.0256C263.702 89.2536 262.696 82.5025 262.847 78.5272C262.936 76.1658 264.293 74.0296 266.037 72.2859C268.939 69.3839 273.569 69.7738 275.411 73.0753Z" stroke="#FFDD1A" stroke-width="3.125" stroke-linecap="round"/>
<path d="M186.246 163V156.62L180.68 147.38H182.462L186.994 155.102L191.526 147.38H193.308L187.742 156.62V163H186.246ZM197.887 163.264C196.831 163.264 195.907 163.015 195.115 162.516C194.338 162.017 193.736 161.313 193.311 160.404C192.886 159.48 192.673 158.402 192.673 157.17C192.673 155.923 192.886 154.845 193.311 153.936C193.736 153.027 194.338 152.323 195.115 151.824C195.907 151.325 196.831 151.076 197.887 151.076C198.943 151.076 199.86 151.325 200.637 151.824C201.414 152.323 202.016 153.027 202.441 153.936C202.866 154.845 203.079 155.923 203.079 157.17C203.079 158.402 202.866 159.48 202.441 160.404C202.016 161.313 201.414 162.017 200.637 162.516C199.86 163.015 198.943 163.264 197.887 163.264ZM197.887 161.878C199.031 161.878 199.926 161.46 200.571 160.624C201.231 159.773 201.561 158.622 201.561 157.17C201.561 155.718 201.231 154.574 200.571 153.738C199.926 152.887 199.031 152.462 197.887 152.462C196.743 152.462 195.841 152.887 195.181 153.738C194.521 154.574 194.191 155.718 194.191 157.17C194.191 158.622 194.521 159.773 195.181 160.624C195.841 161.46 196.743 161.878 197.887 161.878ZM209.518 163.264C208.359 163.264 207.428 162.875 206.724 162.098C206.034 161.306 205.69 160.221 205.69 158.842V151.34H207.142V158.402C207.142 159.605 207.369 160.499 207.824 161.086C208.293 161.673 208.982 161.966 209.892 161.966C210.904 161.966 211.696 161.636 212.268 160.976C212.854 160.316 213.148 159.421 213.148 158.292V151.34H214.6V163H213.236L213.214 160.008L213.434 160.118C213.243 161.115 212.803 161.893 212.114 162.45C211.439 162.993 210.574 163.264 209.518 163.264ZM218.215 163V151.34H219.469L219.557 154.53L219.359 154.42C219.55 153.379 219.894 152.609 220.393 152.11C220.892 151.597 221.581 151.34 222.461 151.34H223.473V152.748H222.417C221.83 152.748 221.332 152.88 220.921 153.144C220.51 153.393 220.195 153.753 219.975 154.222C219.77 154.691 219.667 155.249 219.667 155.894V163H218.215ZM232.035 163V147.38H237.513C239.229 147.38 240.564 147.798 241.517 148.634C242.485 149.455 242.969 150.592 242.969 152.044C242.969 152.997 242.749 153.826 242.309 154.53C241.884 155.234 241.261 155.777 240.439 156.158C239.633 156.525 238.657 156.708 237.513 156.708H233.531V163H232.035ZM233.531 155.256H237.513C238.789 155.256 239.75 154.985 240.395 154.442C241.055 153.899 241.385 153.1 241.385 152.044C241.385 150.988 241.055 150.189 240.395 149.646C239.75 149.103 238.789 148.832 237.513 148.832H233.531V155.256ZM245.414 163V147.38H246.866V154.112L246.69 154.09C246.808 153.401 247.042 152.836 247.394 152.396C247.761 151.956 248.216 151.626 248.758 151.406C249.301 151.186 249.895 151.076 250.54 151.076C251.391 151.076 252.102 151.267 252.674 151.648C253.246 152.029 253.679 152.557 253.972 153.232C254.266 153.892 254.412 154.647 254.412 155.498V163H252.96V156.026C252.96 154.853 252.74 153.951 252.3 153.32C251.86 152.689 251.164 152.374 250.21 152.374C249.184 152.374 248.37 152.704 247.768 153.364C247.167 154.009 246.866 154.904 246.866 156.048V163H245.414ZM262.19 163.264C261.134 163.264 260.21 163.015 259.418 162.516C258.641 162.017 258.039 161.313 257.614 160.404C257.189 159.48 256.976 158.402 256.976 157.17C256.976 155.923 257.189 154.845 257.614 153.936C258.039 153.027 258.641 152.323 259.418 151.824C260.21 151.325 261.134 151.076 262.19 151.076C263.246 151.076 264.163 151.325 264.94 151.824C265.717 152.323 266.319 153.027 266.744 153.936C267.169 154.845 267.382 155.923 267.382 157.17C267.382 158.402 267.169 159.48 266.744 160.404C266.319 161.313 265.717 162.017 264.94 162.516C264.163 163.015 263.246 163.264 262.19 163.264ZM262.19 161.878C263.334 161.878 264.229 161.46 264.874 160.624C265.534 159.773 265.864 158.622 265.864 157.17C265.864 155.718 265.534 154.574 264.874 153.738C264.229 152.887 263.334 152.462 262.19 152.462C261.046 152.462 260.144 152.887 259.484 153.738C258.824 154.574 258.494 155.718 258.494 157.17C258.494 158.622 258.824 159.773 259.484 160.624C260.144 161.46 261.046 161.878 262.19 161.878ZM269.992 163V151.34H271.312L271.378 154.398L271.202 154.266C271.32 153.547 271.562 152.953 271.928 152.484C272.31 152.015 272.772 151.663 273.314 151.428C273.857 151.193 274.444 151.076 275.074 151.076C275.969 151.076 276.702 151.274 277.274 151.67C277.861 152.066 278.294 152.601 278.572 153.276C278.851 153.936 278.99 154.677 278.99 155.498V163H277.538V156.026C277.538 155.263 277.443 154.611 277.252 154.068C277.076 153.525 276.783 153.107 276.372 152.814C275.962 152.521 275.426 152.374 274.766 152.374C273.769 152.374 272.962 152.697 272.346 153.342C271.745 153.987 271.444 154.882 271.444 156.026V163H269.992ZM286.812 163.264C285.697 163.264 284.751 163.007 283.974 162.494C283.197 161.966 282.595 161.247 282.17 160.338C281.759 159.414 281.554 158.358 281.554 157.17C281.554 155.982 281.759 154.933 282.17 154.024C282.581 153.1 283.167 152.381 283.93 151.868C284.707 151.34 285.639 151.076 286.724 151.076C287.765 151.076 288.667 151.325 289.43 151.824C290.193 152.323 290.772 153.027 291.168 153.936C291.579 154.845 291.784 155.909 291.784 157.126V157.588H283.072C283.131 158.967 283.49 160.03 284.15 160.778C284.81 161.511 285.697 161.878 286.812 161.878C287.663 161.878 288.359 161.673 288.902 161.262C289.445 160.851 289.819 160.309 290.024 159.634L291.586 159.744C291.293 160.771 290.728 161.614 289.892 162.274C289.056 162.934 288.029 163.264 286.812 163.264ZM283.072 156.29H290.2C290.127 155.043 289.782 154.097 289.166 153.452C288.55 152.792 287.736 152.462 286.724 152.462C285.712 152.462 284.883 152.792 284.238 153.452C283.593 154.112 283.204 155.058 283.072 156.29ZM300.334 163V147.38H302.468L310.85 161.526V147.38H312.346V163H310.124L301.83 149.03V163H300.334ZM319.647 163.264C318.488 163.264 317.557 162.875 316.853 162.098C316.163 161.306 315.819 160.221 315.819 158.842V151.34H317.271V158.402C317.271 159.605 317.498 160.499 317.953 161.086C318.422 161.673 319.111 161.966 320.021 161.966C321.033 161.966 321.825 161.636 322.397 160.976C322.983 160.316 323.277 159.421 323.277 158.292V151.34H324.729V163H323.365L323.343 160.008L323.563 160.118C323.372 161.115 322.932 161.893 322.243 162.45C321.568 162.993 320.703 163.264 319.647 163.264ZM328.344 163V151.34H329.664L329.73 154.486L329.532 154.31C329.62 153.665 329.833 153.1 330.17 152.616C330.507 152.132 330.933 151.758 331.446 151.494C331.959 151.215 332.531 151.076 333.162 151.076C334.115 151.076 334.907 151.384 335.538 152C336.169 152.601 336.55 153.437 336.682 154.508L336.374 154.464C336.477 153.76 336.689 153.159 337.012 152.66C337.349 152.147 337.782 151.758 338.31 151.494C338.838 151.215 339.432 151.076 340.092 151.076C340.869 151.076 341.537 151.259 342.094 151.626C342.651 151.978 343.077 152.484 343.37 153.144C343.663 153.804 343.81 154.596 343.81 155.52V163H342.358V155.96C342.358 154.801 342.131 153.914 341.676 153.298C341.236 152.682 340.598 152.374 339.762 152.374C339.175 152.374 338.655 152.528 338.2 152.836C337.76 153.144 337.408 153.577 337.144 154.134C336.895 154.691 336.77 155.344 336.77 156.092V163H335.318V156.026C335.318 154.897 335.113 154.009 334.702 153.364C334.306 152.704 333.675 152.374 332.81 152.374C332.223 152.374 331.703 152.528 331.248 152.836C330.793 153.144 330.434 153.569 330.17 154.112C329.921 154.655 329.796 155.293 329.796 156.026V163H328.344ZM352.333 163.264C351.453 163.264 350.683 163.044 350.023 162.604C349.363 162.149 348.872 161.563 348.549 160.844L348.483 163H347.207V147.38H348.659V153.386C348.953 152.755 349.422 152.213 350.067 151.758C350.713 151.303 351.468 151.076 352.333 151.076C353.345 151.076 354.218 151.325 354.951 151.824C355.699 152.323 356.279 153.027 356.689 153.936C357.1 154.845 357.305 155.923 357.305 157.17C357.305 158.417 357.1 159.495 356.689 160.404C356.279 161.313 355.699 162.017 354.951 162.516C354.218 163.015 353.345 163.264 352.333 163.264ZM352.267 161.878C353.338 161.878 354.189 161.46 354.819 160.624C355.45 159.773 355.765 158.622 355.765 157.17C355.765 155.718 355.45 154.574 354.819 153.738C354.189 152.887 353.345 152.462 352.289 152.462C351.541 152.462 350.896 152.66 350.353 153.056C349.811 153.437 349.393 153.98 349.099 154.684C348.806 155.388 348.659 156.217 348.659 157.17C348.659 158.109 348.806 158.937 349.099 159.656C349.393 160.36 349.803 160.91 350.331 161.306C350.874 161.687 351.519 161.878 352.267 161.878ZM364.371 163.264C363.256 163.264 362.31 163.007 361.533 162.494C360.755 161.966 360.154 161.247 359.729 160.338C359.318 159.414 359.113 158.358 359.113 157.17C359.113 155.982 359.318 154.933 359.729 154.024C360.139 153.1 360.726 152.381 361.489 151.868C362.266 151.34 363.197 151.076 364.283 151.076C365.324 151.076 366.226 151.325 366.989 151.824C367.751 152.323 368.331 153.027 368.727 153.936C369.137 154.845 369.343 155.909 369.343 157.126V157.588H360.631C360.689 158.967 361.049 160.03 361.709 160.778C362.369 161.511 363.256 161.878 364.371 161.878C365.221 161.878 365.918 161.673 366.461 161.262C367.003 160.851 367.377 160.309 367.583 159.634L369.145 159.744C368.851 160.771 368.287 161.614 367.451 162.274C366.615 162.934 365.588 163.264 364.371 163.264ZM360.631 156.29H367.759C367.685 155.043 367.341 154.097 366.725 153.452C366.109 152.792 365.295 152.462 364.283 152.462C363.271 152.462 362.442 152.792 361.797 153.452C361.151 154.112 360.763 155.058 360.631 156.29ZM371.936 163V151.34H373.19L373.278 154.53L373.08 154.42C373.271 153.379 373.615 152.609 374.114 152.11C374.613 151.597 375.302 151.34 376.182 151.34H377.194V152.748H376.138C375.551 152.748 375.053 152.88 374.642 153.144C374.231 153.393 373.916 153.753 373.696 154.222C373.491 154.691 373.388 155.249 373.388 155.894V163H371.936Z" fill="white"/>
</svg>
