<svg width="251" height="79" viewBox="0 0 251 79" fill="none" xmlns="http://www.w3.org/2000/svg">
<path d="M116.329 56.5502L122.625 40.9629H125.108L131.338 56.5502H128.124L123.291 43.7782H124.4L119.522 56.5502H116.329ZM119.678 53.6477V51.1203H128.058V53.6477H119.678Z" fill="#1F1F1F"/>
<path d="M137.217 56.7509C136.285 56.7509 135.45 56.5555 134.711 56.1646C133.971 55.7737 133.396 55.2217 132.981 54.514C132.566 53.8035 132.36 52.9848 132.36 52.0525V45.8435H135.287V51.9839C135.287 52.4275 135.361 52.8079 135.509 53.1248C135.656 53.4417 135.878 53.682 136.174 53.8458C136.47 54.0095 136.816 54.0887 137.217 54.0887C137.822 54.0887 138.295 53.9039 138.636 53.5341C138.976 53.1644 139.145 52.6467 139.145 51.9812V45.8408H142.051V52.0499C142.051 52.9822 141.845 53.8009 141.43 54.5113C141.015 55.2218 140.442 55.7711 139.711 56.162C138.979 56.5528 138.147 56.7483 137.215 56.7483L137.217 56.7509Z" fill="#1F1F1F"/>
<path d="M148.059 56.7955C147.439 56.7955 146.836 56.719 146.253 56.5631C145.669 56.4073 145.133 56.1775 144.644 55.8765C144.156 55.5727 143.736 55.2162 143.379 54.8016L145.13 53.0506C145.484 53.4784 145.907 53.798 146.395 54.004C146.884 54.21 147.415 54.313 147.991 54.313C148.463 54.313 148.825 54.2443 149.076 54.1017C149.327 53.9617 149.454 53.7663 149.454 53.5154C149.454 53.2196 149.322 52.9951 149.055 52.8393C148.788 52.6835 148.453 52.5488 148.046 52.4299C147.639 52.3111 147.206 52.187 146.749 52.0523C146.29 51.9202 145.859 51.738 145.452 51.5082C145.046 51.2784 144.71 50.9589 144.444 50.5442C144.177 50.1296 144.045 49.5987 144.045 48.9491C144.045 48.2994 144.214 47.6734 144.554 47.1637C144.895 46.654 145.376 46.2631 145.996 45.9885C146.617 45.7138 147.349 45.5791 148.191 45.5791C149.079 45.5791 149.879 45.7323 150.597 46.0334C151.313 46.3371 151.91 46.7993 152.383 47.4199L150.632 49.1947C150.307 48.8091 149.94 48.5265 149.533 48.3416C149.126 48.1567 148.693 48.0643 148.236 48.0643C147.779 48.0643 147.46 48.1303 147.238 48.2624C147.016 48.3944 146.905 48.5793 146.905 48.817C146.905 49.0837 147.032 49.2871 147.283 49.4271C147.534 49.5671 147.866 49.6965 148.281 49.8153C148.696 49.9342 149.126 50.0636 149.578 50.2035C150.029 50.3435 150.457 50.5389 150.864 50.7925C151.271 51.0434 151.604 51.3762 151.862 51.7908C152.121 52.2054 152.251 52.7363 152.251 53.386C152.251 54.4345 151.873 55.2664 151.12 55.8791C150.368 56.4918 149.345 56.7982 148.062 56.7982L148.059 56.7955Z" fill="#1F1F1F"/>
<path d="M157.903 56.7955C157.282 56.7955 156.68 56.719 156.096 56.5631C155.513 56.4073 154.976 56.1775 154.488 55.8765C153.999 55.5727 153.579 55.2162 153.223 54.8016L154.974 53.0506C155.328 53.4784 155.75 53.798 156.239 54.004C156.727 54.21 157.258 54.313 157.834 54.313C158.307 54.313 158.669 54.2443 158.92 54.1017C159.17 53.9617 159.297 53.7663 159.297 53.5154C159.297 53.2196 159.165 52.9951 158.898 52.8393C158.632 52.6835 158.296 52.5488 157.89 52.4299C157.483 52.3111 157.05 52.187 156.593 52.0523C156.133 51.9202 155.703 51.738 155.296 51.5082C154.889 51.2784 154.554 50.9589 154.287 50.5442C154.02 50.1296 153.888 49.5987 153.888 48.9491C153.888 48.2994 154.057 47.6734 154.398 47.1637C154.739 46.654 155.219 46.2631 155.84 45.9885C156.461 45.7138 157.192 45.5791 158.035 45.5791C158.922 45.5791 159.722 45.7323 160.441 46.0334C161.157 46.3371 161.753 46.7993 162.226 47.4199L160.475 49.1947C160.15 48.8091 159.783 48.5265 159.376 48.3416C158.97 48.1567 158.537 48.0643 158.08 48.0643C157.623 48.0643 157.303 48.1303 157.081 48.2624C156.859 48.3944 156.749 48.5793 156.749 48.817C156.749 49.0837 156.875 49.2871 157.126 49.4271C157.377 49.5671 157.71 49.6965 158.125 49.8153C158.539 49.9342 158.97 50.0636 159.421 50.2035C159.873 50.3435 160.301 50.5389 160.708 50.7925C161.114 51.0434 161.447 51.3762 161.706 51.7908C161.965 52.2054 162.094 52.7363 162.094 53.386C162.094 54.4345 161.717 55.2664 160.964 55.8791C160.211 56.4918 159.189 56.7982 157.905 56.7982L157.903 56.7955Z" fill="#1F1F1F"/>
<path d="M165.509 44.1131C165.036 44.1131 164.645 43.9547 164.334 43.6378C164.022 43.3208 163.869 42.9247 163.869 42.4519C163.869 41.9792 164.025 41.6015 164.334 41.2767C164.643 40.9518 165.036 40.7881 165.509 40.7881C165.982 40.7881 166.391 40.9518 166.695 41.2767C166.999 41.6015 167.149 41.9924 167.149 42.4519C167.149 42.9115 166.999 43.3208 166.695 43.6378C166.391 43.9547 165.998 44.1131 165.509 44.1131ZM164.022 56.5497V45.8404H166.972V56.5497H164.022Z" fill="#1F1F1F"/>
<path d="M174.666 56.7956C173.543 56.7956 172.54 56.5526 171.66 56.064C170.781 55.5754 170.089 54.9099 169.587 54.0674C169.085 53.2249 168.834 52.2636 168.834 51.1861C168.834 50.1085 169.082 49.1683 169.576 48.3258C170.073 47.4833 170.749 46.8178 171.605 46.3292C172.463 45.8406 173.422 45.5977 174.486 45.5977C175.49 45.5977 176.393 45.8274 177.191 46.2843C177.988 46.7439 178.609 47.3777 179.053 48.1911C179.496 49.0046 179.718 49.9289 179.718 50.9616C179.718 51.1544 179.71 51.3498 179.697 51.5479C179.681 51.7486 179.644 51.9652 179.586 52.2029L170.562 52.224V50.0504L178.234 50.0293L177.038 50.9378C177.022 50.3013 176.911 49.7705 176.705 49.3426C176.499 48.9148 176.208 48.5899 175.841 48.3681C175.471 48.1462 175.012 48.0353 174.465 48.0353C173.889 48.0353 173.385 48.1621 172.957 48.413C172.529 48.6639 172.199 49.0231 171.969 49.4879C171.739 49.9527 171.626 50.5047 171.626 51.1385C171.626 51.7724 171.747 52.3534 171.99 52.8341C172.233 53.3147 172.585 53.6792 173.044 53.9327C173.501 54.1836 174.035 54.3104 174.639 54.3104C175.186 54.3104 175.683 54.2206 176.124 54.0437C176.567 53.8667 176.95 53.5868 177.278 53.2012L179.008 54.931C178.461 55.5517 177.817 56.0165 177.08 56.3281C176.34 56.6398 175.535 56.793 174.663 56.793L174.666 56.7956Z" fill="#1F1F1F"/>
<path d="M186.173 56.5502V40.9629H189.19V56.5502H186.173ZM188.233 56.5502V53.867H192.203C193.193 53.867 194.068 53.6557 194.831 53.2357C195.592 52.8158 196.183 52.2163 196.606 51.4398C197.028 50.6634 197.237 49.7575 197.237 48.7249C197.237 47.6922 197.023 46.818 196.595 46.0654C196.167 45.3127 195.576 44.7211 194.82 44.2906C194.068 43.8627 193.193 43.6488 192.203 43.6488H188.167V40.9655H192.248C193.402 40.9655 194.472 41.1583 195.462 41.5413C196.453 41.9269 197.311 42.4683 198.035 43.1708C198.758 43.8733 199.321 44.6973 199.72 45.6428C200.118 46.5883 200.319 47.6236 200.319 48.746C200.319 49.8684 200.118 50.9064 199.72 51.8598C199.321 52.8132 198.758 53.6425 198.035 54.3423C197.311 55.0448 196.458 55.5889 195.473 55.9718C194.49 56.3574 193.429 56.5476 192.29 56.5476H188.233V56.5502Z" fill="#1F1F1F"/>
<path d="M203.887 44.1131C203.414 44.1131 203.024 43.9547 202.712 43.6378C202.4 43.3208 202.247 42.9247 202.247 42.4519C202.247 41.9792 202.403 41.6015 202.712 41.2767C203.021 40.9518 203.414 40.7881 203.887 40.7881C204.36 40.7881 204.769 40.9518 205.073 41.2767C205.377 41.6015 205.527 41.9924 205.527 42.4519C205.527 42.9115 205.377 43.3208 205.073 43.6378C204.769 43.9547 204.376 44.1131 203.887 44.1131ZM202.403 56.5497V45.8404H205.353V56.5497H202.403Z" fill="#1F1F1F"/>
<path d="M212.27 56.2628C211.309 56.2628 210.445 56.0304 209.677 55.5655C208.908 55.1007 208.306 54.4616 207.87 53.6481C207.434 52.8347 207.215 51.9262 207.215 50.92C207.215 49.9137 207.434 49.0132 207.87 48.2156C208.306 47.418 208.908 46.7868 209.677 46.3193C210.445 45.8545 211.309 45.6221 212.27 45.6221C213.055 45.6221 213.755 45.7753 214.378 46.0763C214.998 46.38 215.482 46.8052 215.83 47.3519C216.176 47.8986 216.367 48.5351 216.396 49.2588V52.6287C216.367 53.3524 216.174 53.9862 215.82 54.525C215.466 55.0637 214.98 55.4889 214.367 55.8006C213.754 56.1122 213.055 56.2654 212.273 56.2654L212.27 56.2628ZM212.402 61.2966C211.248 61.2966 210.242 61.0932 209.376 60.6865C208.512 60.2798 207.812 59.7067 207.281 58.9672L209.143 57.1264C209.558 57.615 210.02 57.9874 210.53 58.2462C211.039 58.505 211.657 58.6344 212.381 58.6344C213.269 58.6344 213.976 58.402 214.51 57.9372C215.043 57.4724 215.307 56.8464 215.307 56.0647V53.3603L215.772 51.0098L215.329 48.6593V45.8439H218.21V56.0198C218.21 57.0683 217.962 57.9926 217.468 58.7902C216.971 59.5878 216.29 60.2058 215.416 60.6416C214.544 61.0774 213.538 61.2966 212.4 61.2966H212.402ZM212.822 53.6033C213.369 53.6033 213.839 53.4923 214.23 53.2705C214.621 53.0486 214.925 52.7344 215.138 52.3276C215.352 51.9209 215.461 51.4587 215.461 50.9411C215.461 50.4235 215.352 49.9613 215.138 49.5546C214.925 49.1478 214.618 48.8309 214.219 48.6011C213.821 48.3714 213.361 48.2578 212.843 48.2578C212.326 48.2578 211.85 48.3714 211.457 48.6011C211.066 48.8309 210.754 49.1478 210.524 49.5546C210.295 49.9613 210.181 50.4155 210.181 50.9173C210.181 51.4191 210.292 51.8971 210.514 52.3039C210.736 52.7106 211.05 53.0275 211.457 53.2573C211.863 53.487 212.318 53.6006 212.82 53.6006L212.822 53.6033Z" fill="#1F1F1F"/>
<path d="M222.225 44.1131C221.752 44.1131 221.361 43.9547 221.049 43.6378C220.738 43.3208 220.584 42.9247 220.584 42.4519C220.584 41.9792 220.74 41.6015 221.049 41.2767C221.358 40.9518 221.752 40.7881 222.225 40.7881C222.697 40.7881 223.107 40.9518 223.41 41.2767C223.714 41.6015 223.865 41.9924 223.865 42.4519C223.865 42.9115 223.714 43.3208 223.41 43.6378C223.107 43.9547 222.713 44.1131 222.225 44.1131ZM220.74 56.5497V45.8404H223.69V56.5497H220.74Z" fill="#1F1F1F"/>
<path d="M225.328 48.3924V45.8438H233.243V48.3924H225.328ZM227.834 56.5505V41.3857H230.74V56.5505H227.834Z" fill="#1F1F1F"/>
<path d="M239.075 56.7719C238.1 56.7719 237.224 56.5289 236.447 56.0403C235.671 55.5518 235.06 54.8862 234.617 54.0437C234.173 53.2012 233.951 52.2558 233.951 51.2046C233.951 50.1535 234.173 49.1869 234.617 48.3444C235.06 47.5019 235.671 46.8364 236.447 46.3478C237.224 45.8592 238.106 45.6162 239.096 45.6162C239.849 45.6162 240.53 45.772 241.135 46.081C241.74 46.39 242.228 46.8205 242.598 47.3672C242.968 47.9139 243.166 48.5425 243.198 49.2529V53.1326C243.169 53.8272 242.973 54.4531 242.611 55.0051C242.25 55.5597 241.761 55.9928 241.148 56.3018C240.535 56.6135 239.844 56.7666 239.075 56.7666V56.7719ZM239.63 54.0886C240.443 54.0886 241.101 53.814 241.602 53.2673C242.104 52.7206 242.355 52.0339 242.355 51.2046C242.355 50.6421 242.236 50.1403 242.001 49.6966C241.764 49.2529 241.447 48.9096 241.048 48.6666C240.649 48.4236 240.176 48.2995 239.63 48.2995C239.083 48.2995 238.629 48.4263 238.222 48.6772C237.815 48.9281 237.498 49.2688 237.268 49.6966C237.039 50.1244 236.925 50.621 236.925 51.1809C236.925 51.7408 237.039 52.261 237.268 52.6889C237.498 53.1167 237.818 53.4574 238.232 53.7083C238.647 53.9592 239.112 54.086 239.63 54.086V54.0886ZM242.181 56.5501V53.6687L242.67 51.0514L242.181 48.458V45.8407H245.107V56.5501H242.181Z" fill="#1F1F1F"/>
<path d="M247.635 56.5506V40.5195H250.54V56.5506H247.635Z" fill="#1F1F1F"/>
<path d="M122.004 77.2188C120.763 77.2188 119.693 77.0049 118.801 76.577C117.905 76.1492 117.097 75.4995 116.374 74.6253L118.37 72.6287C118.843 73.2361 119.379 73.7036 119.979 74.0364C120.578 74.3691 121.312 74.5355 122.184 74.5355C122.968 74.5355 123.589 74.3797 124.046 74.0707C124.503 73.7617 124.733 73.3312 124.733 72.7845C124.733 72.3118 124.601 71.9262 124.334 71.6304C124.067 71.3346 123.716 71.0863 123.28 70.8883C122.844 70.6875 122.364 70.5027 121.838 70.3336C121.312 70.1646 120.792 69.9665 120.274 69.7473C119.757 69.5255 119.276 69.2455 118.832 68.9048C118.389 68.5642 118.037 68.1363 117.779 67.6187C117.52 67.101 117.39 66.4355 117.39 65.622C117.39 64.6766 117.62 63.871 118.077 63.2055C118.534 62.54 119.163 62.0302 119.963 61.6763C120.76 61.3225 121.664 61.1455 122.667 61.1455C123.732 61.1455 124.696 61.3436 125.562 61.745C126.426 62.1438 127.126 62.6615 127.656 63.2979L125.66 65.2946C125.2 64.7928 124.733 64.423 124.252 64.1853C123.771 63.9503 123.227 63.8314 122.622 63.8314C121.928 63.8314 121.381 63.9688 120.982 64.2408C120.583 64.5155 120.383 64.8958 120.383 65.3817C120.383 65.8096 120.515 66.1555 120.782 66.4117C121.048 66.6705 121.4 66.9003 121.835 67.0984C122.271 67.2965 122.754 67.4866 123.288 67.6636C123.821 67.8405 124.344 68.0439 124.862 68.2736C125.38 68.5034 125.855 68.7913 126.294 69.1372C126.729 69.4859 127.081 69.9348 127.347 70.4895C127.614 71.0441 127.746 71.7281 127.746 72.5415C127.746 73.9915 127.236 75.1324 126.217 75.9669C125.198 76.8015 123.792 77.2188 122.004 77.2188Z" fill="#4C8C74"/>
<path d="M128.879 68.8152V66.2666H136.795V68.8152H128.879ZM131.383 76.9734V61.8086H134.288V76.9734H131.383Z" fill="#4C8C74"/>
<path d="M143.002 77.1738C142.069 77.1738 141.235 76.9783 140.495 76.5874C139.756 76.1966 139.18 75.6446 138.765 74.9368C138.351 74.2264 138.145 73.4076 138.145 72.4754V66.2663H141.071V72.4067C141.071 72.8504 141.145 73.2307 141.293 73.5476C141.441 73.8645 141.663 74.1049 141.958 74.2686C142.254 74.4324 142.6 74.5116 143.002 74.5116C143.606 74.5116 144.079 74.3267 144.42 73.957C144.761 73.5872 144.93 73.0696 144.93 72.4041V66.2637H147.835V72.4727C147.835 73.405 147.629 74.2237 147.214 74.9342C146.799 75.6446 146.226 76.1939 145.495 76.5848C144.763 76.9757 143.931 77.1711 142.999 77.1711L143.002 77.1738Z" fill="#4C8C74"/>
<path d="M154.643 77.1946C153.653 77.1946 152.771 76.9516 151.994 76.463C151.218 75.9744 150.6 75.3089 150.143 74.4664C149.683 73.6239 149.456 72.6784 149.456 71.6273C149.456 70.5762 149.686 69.6095 150.143 68.7671C150.6 67.9246 151.218 67.259 151.994 66.7704C152.771 66.2819 153.653 66.0389 154.643 66.0389C155.412 66.0389 156.107 66.1973 156.727 66.5169C157.348 66.8338 157.847 67.267 158.225 67.8136C158.602 68.3603 158.806 68.981 158.835 69.6756V73.4892C158.806 74.1996 158.605 74.8335 158.235 75.396C157.866 75.9586 157.372 76.397 156.751 76.7165C156.13 77.0335 155.428 77.1946 154.643 77.1946ZM155.153 74.5139C155.684 74.5139 156.157 74.3872 156.571 74.1363C156.986 73.8854 157.306 73.5447 157.535 73.1168C157.765 72.689 157.879 72.1925 157.879 71.6326C157.879 71.0727 157.765 70.555 157.535 70.1245C157.306 69.6967 156.989 69.356 156.582 69.1051C156.175 68.8542 155.705 68.7274 155.174 68.7274C154.643 68.7274 154.15 68.8489 153.743 69.0945C153.336 69.3375 153.019 69.6782 152.789 70.114C152.56 70.5498 152.446 71.0489 152.446 71.6114C152.446 72.174 152.56 72.6943 152.789 73.13C153.019 73.5658 153.339 73.9065 153.753 74.1495C154.168 74.3924 154.633 74.5166 155.151 74.5166L155.153 74.5139ZM160.631 76.9727H157.705V74.0914L158.193 71.4741L157.683 68.8806V60.9443H160.634V76.9754L160.631 76.9727Z" fill="#4C8C74"/>
<path d="M164.622 64.537C164.149 64.537 163.758 64.3785 163.446 64.0616C163.135 63.7447 162.981 63.3485 162.981 62.8758C162.981 62.403 163.137 62.0254 163.446 61.7005C163.755 61.3757 164.149 61.2119 164.622 61.2119C165.094 61.2119 165.504 61.3757 165.807 61.7005C166.111 62.0254 166.262 62.4162 166.262 62.8758C166.262 63.3353 166.111 63.7447 165.807 64.0616C165.504 64.3785 165.11 64.537 164.622 64.537ZM163.135 76.9736V66.2642H166.085V76.9736H163.135Z" fill="#4C8C74"/>
<path d="M173.667 77.2187C172.587 77.2187 171.615 76.9705 170.752 76.4766C169.888 75.9801 169.204 75.3093 168.7 74.4589C168.198 73.6085 167.947 72.6524 167.947 71.5881C167.947 70.5237 168.198 69.5967 168.7 68.7622C169.201 67.9276 169.885 67.2621 170.752 66.7656C171.615 66.2717 172.587 66.0234 173.667 66.0234C174.748 66.0234 175.741 66.2664 176.604 66.755C177.468 67.2436 178.157 67.9091 178.667 68.7516C179.177 69.5941 179.433 70.5396 179.433 71.5907C179.433 72.6418 179.182 73.5926 178.68 74.451C178.178 75.3093 177.489 75.9854 176.618 76.4793C175.746 76.9758 174.764 77.2214 173.667 77.2214V77.2187ZM173.667 74.4906C174.214 74.4906 174.697 74.3638 175.12 74.1129C175.543 73.862 175.868 73.5213 176.095 73.0935C176.324 72.6656 176.438 72.1691 176.438 71.6092C176.438 71.0493 176.316 70.5528 176.071 70.125C175.828 69.6971 175.5 69.3591 175.096 69.1161C174.69 68.8731 174.212 68.749 173.665 68.749C173.118 68.749 172.659 68.8705 172.247 69.1161C171.832 69.3591 171.51 69.6971 171.283 70.125C171.053 70.5528 170.939 71.0493 170.939 71.6092C170.939 72.1691 171.053 72.6656 171.283 73.0935C171.512 73.5213 171.832 73.862 172.247 74.1129C172.661 74.3638 173.134 74.4906 173.665 74.4906H173.667Z" fill="#4C8C74"/>
<path d="M184.974 77.2194C184.354 77.2194 183.751 77.1428 183.168 76.987C182.584 76.8311 182.048 76.6014 181.559 76.3003C181.071 75.9966 180.651 75.64 180.294 75.2254L182.045 73.4744C182.399 73.9022 182.822 74.2218 183.31 74.4278C183.799 74.6338 184.33 74.7368 184.906 74.7368C185.378 74.7368 185.74 74.6681 185.991 74.5255C186.242 74.3856 186.369 74.1901 186.369 73.9392C186.369 73.6434 186.237 73.4189 185.97 73.2631C185.703 73.1073 185.368 72.9726 184.961 72.8538C184.554 72.7349 184.121 72.6108 183.664 72.4761C183.205 72.344 182.774 72.1618 182.367 71.932C181.961 71.7023 181.625 71.3827 181.359 70.9681C181.092 70.5534 180.96 70.0226 180.96 69.3729C180.96 68.7232 181.129 68.0973 181.469 67.5875C181.81 67.0778 182.291 66.687 182.912 66.4123C183.532 66.1376 184.264 66.0029 185.106 66.0029C185.994 66.0029 186.794 66.1561 187.512 66.4572C188.228 66.7609 188.825 67.2231 189.298 67.8437L187.547 69.6185C187.222 69.2329 186.855 68.9503 186.448 68.7654C186.041 68.5806 185.608 68.4881 185.151 68.4881C184.694 68.4881 184.375 68.5542 184.153 68.6862C183.931 68.8183 183.82 69.0031 183.82 69.2408C183.82 69.5076 183.947 69.7109 184.198 69.8509C184.449 69.9909 184.781 70.1203 185.196 70.2391C185.611 70.358 186.041 70.4874 186.493 70.6274C186.945 70.7673 187.372 70.9628 187.779 71.2163C188.186 71.4672 188.519 71.8 188.777 72.2146C189.036 72.6293 189.166 73.1601 189.166 73.8098C189.166 74.8583 188.788 75.6902 188.035 76.3029C187.283 76.9157 186.26 77.222 184.977 77.222L184.974 77.2194Z" fill="#4C8C74"/>
<path d="M62.2467 42.2197H53.4993C52.9537 42.2197 52.5115 42.662 52.5115 43.2075V45.8062C52.5115 46.3518 52.9537 46.794 53.4993 46.794H62.2467C62.7922 46.794 63.2344 46.3518 63.2344 45.8062V43.2075C63.2344 42.662 62.7922 42.2197 62.2467 42.2197Z" fill="#1F1F1F"/>
<path d="M48.5577 42.6055H37.1428C36.5973 42.6055 36.155 43.0477 36.155 43.5932V45.4234C36.155 45.969 36.5973 46.4112 37.1428 46.4112H48.5577C49.1033 46.4112 49.5455 45.969 49.5455 45.4234V43.5932C49.5455 43.0477 49.1033 42.6055 48.5577 42.6055Z" fill="#1F1F1F"/>
<path d="M32.4783 42.6055H27.3017C26.7562 42.6055 26.314 43.0477 26.314 43.5932V45.4234C26.314 45.969 26.7562 46.4112 27.3017 46.4112H32.4783C33.0239 46.4112 33.4661 45.969 33.4661 45.4234V43.5932C33.4661 43.0477 33.0239 42.6055 32.4783 42.6055Z" fill="#257560"/>
<path d="M22.5928 42.6055H20.5644C20.0189 42.6055 19.5767 43.0477 19.5767 43.5932V45.4234C19.5767 45.969 20.0189 46.4112 20.5644 46.4112H22.5928C23.1384 46.4112 23.5806 45.969 23.5806 45.4234V43.5932C23.5806 43.0477 23.1384 42.6055 22.5928 42.6055Z" fill="#257560"/>
<path d="M51.7296 36.0957H40.1086C39.5631 36.0957 39.1208 36.5379 39.1208 37.0834V38.9137C39.1208 39.4592 39.5631 39.9014 40.1086 39.9014H51.7296C52.2751 39.9014 52.7173 39.4592 52.7173 38.9137V37.0834C52.7173 36.5379 52.2751 36.0957 51.7296 36.0957Z" fill="#1F1F1F"/>
<path d="M34.8607 36.0957H23.2397C22.6942 36.0957 22.252 36.5379 22.252 37.0834V38.9137C22.252 39.4592 22.6942 39.9014 23.2397 39.9014H34.8607C35.4062 39.9014 35.8484 39.4592 35.8484 38.9137V37.0834C35.8484 36.5379 35.4062 36.0957 34.8607 36.0957Z" fill="#4C8C74"/>
<path d="M32.2776 42.6055H27.3017C26.7562 42.6055 26.314 43.0477 26.314 43.5932V45.4234C26.314 45.969 26.7562 46.4112 27.3017 46.4112H32.2776C32.8232 46.4112 33.2654 45.969 33.2654 45.4234V43.5932C33.2654 43.0477 32.8232 42.6055 32.2776 42.6055Z" fill="#4C8C74"/>
<path d="M39.1764 48.6934H23.9292C23.3836 48.6934 22.9414 49.1356 22.9414 49.6811V51.5113C22.9414 52.0568 23.3836 52.4991 23.9292 52.4991H39.1764C39.7219 52.4991 40.1642 52.0568 40.1642 51.5113V49.6811C40.1642 49.1356 39.7219 48.6934 39.1764 48.6934Z" fill="#4C8C74"/>
<path d="M22.5954 42.6055H20.7651C20.2196 42.6055 19.7773 43.0477 19.7773 43.5932V45.4234C19.7773 45.969 20.2196 46.4112 20.7651 46.4112H22.5954C23.141 46.4112 23.5832 45.969 23.5832 45.4234V43.5932C23.5832 43.0477 23.141 42.6055 22.5954 42.6055Z" fill="#4C8C74"/>
<path d="M54.8515 29.8809H42.2085C41.6629 29.8809 41.2207 30.3231 41.2207 30.8686V32.6988C41.2207 33.2444 41.6629 33.6866 42.2085 33.6866H54.8515C55.3971 33.6866 55.8393 33.2444 55.8393 32.6988V30.8686C55.8393 30.3231 55.3971 29.8809 54.8515 29.8809Z" fill="#1F1F1F"/>
<path d="M37.4729 29.8809H32.8008C32.2552 29.8809 31.813 30.3231 31.813 30.8686V32.6988C31.813 33.2444 32.2552 33.6866 32.8008 33.6866H37.4729C38.0184 33.6866 38.4607 33.2444 38.4607 32.6988V30.8686C38.4607 30.3231 38.0184 29.8809 37.4729 29.8809Z" fill="#4C8C74"/>
<path d="M39.9898 23.6689H26.7156C26.17 23.6689 25.7278 24.1112 25.7278 24.6567V26.4869C25.7278 27.0324 26.17 27.4747 26.7156 27.4747H39.9898C40.5354 27.4747 40.9776 27.0324 40.9776 26.4869V24.6567C40.9776 24.1112 40.5354 23.6689 39.9898 23.6689Z" fill="#4C8C74"/>
<path d="M49.4927 17.1436H37.1428C36.5973 17.1436 36.155 17.5858 36.155 18.1313V19.9615C36.155 20.507 36.5973 20.9493 37.1428 20.9493H49.4927C50.0382 20.9493 50.4805 20.507 50.4805 19.9615V18.1313C50.4805 17.5858 50.0382 17.1436 49.4927 17.1436Z" fill="#4C8C74"/>
<path d="M32.415 17.1436H30.5847C30.0392 17.1436 29.5969 17.5858 29.5969 18.1313V19.9615C29.5969 20.507 30.0392 20.9493 30.5847 20.9493H32.415C32.9605 20.9493 33.4028 20.507 33.4028 19.9615V18.1313C33.4028 17.5858 32.9605 17.1436 32.415 17.1436Z" fill="#4C8C74"/>
<path d="M46.7775 23.6689H44.9472C44.4017 23.6689 43.9595 24.1112 43.9595 24.6567V26.4869C43.9595 27.0324 44.4017 27.4747 44.9472 27.4747H46.7775C47.3231 27.4747 47.7653 27.0324 47.7653 26.4869V24.6567C47.7653 24.1112 47.3231 23.6689 46.7775 23.6689Z" fill="#4C8C74"/>
<path d="M28.0652 29.8809H23.3931C22.8475 29.8809 22.4053 30.3231 22.4053 30.8686V32.6988C22.4053 33.2444 22.8475 33.6866 23.3931 33.6866H28.0652C28.6107 33.6866 29.053 33.2444 29.053 32.6988V30.8686C29.053 30.3231 28.6107 29.8809 28.0652 29.8809Z" fill="#4C8C74"/>
<path d="M18.5915 29.8809H16.8933C16.3478 29.8809 15.9055 30.3231 15.9055 30.8686V32.6988C15.9055 33.2444 16.3478 33.6866 16.8933 33.6866H18.5915C19.1371 33.6866 19.5793 33.2444 19.5793 32.6988V30.8686C19.5793 30.3231 19.1371 29.8809 18.5915 29.8809Z" fill="#4C8C74"/>
<path d="M12.2422 29.8809H10.5439C9.9984 29.8809 9.55615 30.3231 9.55615 30.8686V32.6988C9.55615 33.2444 9.9984 33.6866 10.5439 33.6866H12.2422C12.7877 33.6866 13.23 33.2444 13.23 32.6988V30.8686C13.23 30.3231 12.7877 29.8809 12.2422 29.8809Z" fill="#4C8C74"/>
<path d="M128.927 20.3653C126.679 17.7454 122.118 15.284 119.617 12.6403C118.553 11.5152 117.84 9.92535 116.95 8.66029C118.032 7.12058 119.395 5.81327 120.069 4.00152C121.569 -0.0498117 119.747 -0.0392468 116.424 1.24165C114.845 1.85173 113.899 2.78137 112.769 3.9936C110.265 1.72496 106.689 0.0743178 103.263 0.00829217C101.9 -0.0181181 100.408 -0.070938 100.258 1.44501C99.814 5.89778 100.955 10.266 103.593 13.842C103.892 14.2461 105.709 16.1133 105.725 16.2744C105.907 17.9171 102.579 20.9226 101.15 21.5855C93.9243 24.9317 88.9273 17.5658 83.1643 14.8033C74.9901 10.884 64.9485 11.8269 57.4583 16.829C56.143 17.7058 54.7564 18.4083 55.5303 20.3151C56.0374 21.567 58.52 21.4297 59.6636 21.2448C60.4401 21.1207 62.7802 19.4647 63.8393 19.0052C68.6038 16.9373 74.0076 16.6785 78.9306 18.3713C84.9418 20.4393 88.4598 26.0462 94.9068 27.1739C101.293 28.291 108.691 24.4484 110.291 17.896C110.508 17.0033 110.87 15.1678 110.621 14.3359C110.495 13.908 107.78 11.4571 107.167 10.4905C106.293 9.10927 105.4 6.95419 105.466 5.3326C110.225 6.71386 112.682 10.6728 114.755 14.8482L124.598 23.3444C124.115 23.7617 123.558 24.6755 122.942 24.7917C119.448 25.106 115.291 24.3876 111.881 24.7917C109.375 25.0875 110.048 28.019 109.755 29.9655C108.96 35.2211 105.77 40.9548 100.493 42.7163V33.8847C100.493 32.5405 99.402 31.4524 98.0603 31.4524C96.7159 31.4524 95.6278 32.5405 95.6278 33.8847C95.6278 37.6007 95.6278 44.264 95.6278 44.264C94.5502 44.5096 93.3749 44.4172 92.2762 44.4858C90.9662 44.5677 88.9009 44.5122 88.4836 46.1048C88.399 46.4323 88.3858 46.773 88.3858 47.1084C88.3858 47.8241 88.4888 48.7352 89.1016 49.2053C89.7698 49.7177 90.8394 49.7045 91.6318 49.6305C92.3951 49.5592 93.1531 49.3955 93.9243 49.3876C94.0854 49.3876 95.6331 49.3427 95.6304 49.3559C95.1207 52.3719 93.7684 55.0684 90.9715 56.5289C89.0435 57.5351 87.7995 56.8194 87.8761 59.648C87.9897 63.863 91.5974 61.8981 93.8424 60.5063C98.1553 57.8283 100.575 53.1458 100.527 48.0565C108.617 45.4683 113.894 38.2768 114.668 29.8994C119.459 29.6353 125.713 31.1909 128.647 26.2918C129.653 24.6095 130.327 21.9948 128.932 20.368L128.927 20.3653Z" fill="#1F1F1F"/>
<path d="M75.0216 73.5343H94.6002C94.8511 73.5343 96.8505 74.2685 97.2281 74.4455C98.385 74.9895 102.048 77.3427 99.6817 78.3938C93.9294 78.4255 88.177 78.378 82.422 78.3912C79.7439 78.3965 76.9258 78.65 74.2477 78.6394C73.8489 78.6394 71.6859 78.4334 71.4165 78.3542C71.1286 78.2697 70.4366 77.5196 70.323 77.237C69.9665 70.344 70.2015 63.3584 70.2015 56.4363C70.4577 55.5489 72.2167 55.4195 73.0275 55.0577C84.9945 49.7228 83.4864 31.5314 70.1646 28.7293C68.4478 28.3675 65.9784 28.901 65.7275 26.7512C65.5136 24.9342 65.4607 23.5133 67.6132 23.5186C83.1668 23.5608 91.8904 42.0797 81.8753 54.1703C79.8496 56.6159 77.3114 58.1345 74.8446 59.97L75.0242 73.5343H75.0216Z" fill="#1F1F1F"/>
<path d="M38.0407 55.5153C38.7749 55.2592 39.6253 55.2697 40.3411 55.5153C41.6616 55.9617 42.0737 57.2109 41.5718 58.4574C41.1598 59.4769 40.4599 60.3511 39.7389 61.183C35.801 65.7255 30.9017 69.5022 25.1282 71.3562C19.9463 73.0201 14.429 73.2287 9.02794 73.2208C7.01012 73.2181 4.9923 73.1865 2.97449 73.1283C2.43834 73.1125 1.88899 73.0914 1.3951 72.888C0.309595 72.4417 -0.271453 71.0657 0.124716 69.9618C0.758585 68.2028 2.43306 68.4828 3.90416 68.4564C4.71499 68.4405 5.51789 68.4326 6.33135 68.4035C11.1461 68.2319 16.0322 68.5699 20.7836 67.6192C23.6333 67.0487 26.4382 65.8338 28.9156 64.3311C30.4078 63.4252 31.8103 62.3794 33.0833 61.183C34.1476 60.182 35.0377 59.1309 35.8327 57.9187C36.316 57.1818 36.6752 56.2892 37.4543 55.8006C37.6366 55.6844 37.8347 55.5919 38.0433 55.5206L38.0407 55.5153Z" fill="#1F1F1F"/>
<path d="M44.9314 48.6934H36.8364C36.2909 48.6934 35.8486 49.1356 35.8486 49.6811V51.5113C35.8486 52.0568 36.2909 52.4991 36.8364 52.4991H44.9314C45.477 52.4991 45.9192 52.0568 45.9192 51.5113V49.6811C45.9192 49.1356 45.477 48.6934 44.9314 48.6934Z" fill="#1F1F1F"/>
<path d="M32.2776 55.3271H27.5051C26.9596 55.3271 26.5173 55.7694 26.5173 56.3149V57.5958C26.5173 58.1413 26.9596 58.5835 27.5051 58.5835H32.2776C32.8232 58.5835 33.2654 58.1413 33.2654 57.5958V56.3149C33.2654 55.7694 32.8232 55.3271 32.2776 55.3271Z" fill="#1F1F1F"/>
<path d="M22.7406 55.3271H21.1955C20.65 55.3271 20.2078 55.7694 20.2078 56.3149V57.5958C20.2078 58.1413 20.65 58.5835 21.1955 58.5835H22.7406C23.2861 58.5835 23.7284 58.1413 23.7284 57.5958V56.3149C23.7284 55.7694 23.2861 55.3271 22.7406 55.3271Z" fill="#4C8C74"/>
<path d="M16.4152 55.3271H14.8701C14.3246 55.3271 13.8823 55.7694 13.8823 56.3149V57.5958C13.8823 58.1413 14.3246 58.5835 14.8701 58.5835H16.4152C16.9607 58.5835 17.4029 58.1413 17.4029 57.5958V56.3149C17.4029 55.7694 16.9607 55.3271 16.4152 55.3271Z" fill="#4C8C74"/>
<path d="M10.0897 55.3271H8.54467C7.99913 55.3271 7.55688 55.7694 7.55688 56.3149V57.5958C7.55688 58.1413 7.99913 58.5835 8.54467 58.5835H10.0897C10.6353 58.5835 11.0775 58.1413 11.0775 57.5958V56.3149C11.0775 55.7694 10.6353 55.3271 10.0897 55.3271Z" fill="#4C8C74"/>
<path d="M71.414 51.7511C70.6612 51.833 69.9349 51.4289 69.5678 50.766C65.5137 43.4108 62.0142 35.7254 58.211 28.2249C58.0314 27.8736 57.6696 27.6518 57.276 27.6518H51.8538C51.2252 27.6518 50.7102 27.1368 50.7102 26.5082V24.6621C50.7102 24.0336 51.2252 23.5186 51.8538 23.5186H60.4427C61.1004 23.5186 61.5256 24.126 61.8108 24.6568C62.1331 25.2563 62.4157 25.877 62.7194 26.4818L63.208 27.4484C63.3929 27.8155 63.5778 28.1826 63.7626 28.5471C63.966 28.9511 64.1694 29.3552 64.3727 29.7593C64.5919 30.1951 64.8112 30.6282 65.0304 31.064C65.2628 31.5235 65.4926 31.983 65.725 32.4426L66.446 33.874C66.6916 34.3626 66.9399 34.8512 67.1855 35.3398C67.4338 35.8337 67.6821 36.3275 67.933 36.8214C68.1839 37.3153 68.4295 37.8039 68.6778 38.2977L69.4093 39.7477C69.647 40.2178 69.8821 40.6852 70.1198 41.1553C70.3575 41.6254 70.5714 42.0506 70.7986 42.4996L71.4351 43.7594C71.6305 44.145 71.8233 44.5306 72.0188 44.9161C72.1931 45.2621 72.3674 45.6055 72.5417 45.9514L72.9934 46.8467L73.3631 47.5809C73.4555 47.7658 73.548 47.948 73.6404 48.1329L73.8174 48.4842C73.8385 48.5291 73.8623 48.5713 73.8834 48.6162C73.9811 48.8064 74.0551 49.0071 74.0736 49.2184C74.1766 50.523 72.7504 51.6112 71.4166 51.7538L71.414 51.7511Z" fill="#1F1F1F"/>
</svg>
