<svg width="401" height="193" viewBox="0 0 401 193" fill="none" xmlns="http://www.w3.org/2000/svg">
<g clip-path="url(#clip0_930_15313)">
<rect width="401" height="193" rx="20" fill="#1F1F1F"/>
<path d="M38.9624 104.883L61.9435 80.6453C64.2775 78.2514 66.1028 76.1867 67.4194 74.4512C68.736 72.6558 69.6636 71.01 70.2023 69.5139C70.8007 68.0177 71.1 66.4617 71.1 64.8458C71.1 61.674 70.0826 59.1903 68.0478 57.3949C66.013 55.5995 63.3798 54.7018 60.1481 54.7018C56.9762 54.7018 54.1933 55.4799 51.7995 57.0359C49.4056 58.532 47.2811 60.866 45.4258 64.0379L39.501 59.1006C41.9547 55.031 44.9171 51.9788 48.3882 49.9441C51.8593 47.8494 55.869 46.8021 60.4174 46.8021C64.2475 46.8021 67.569 47.5502 70.3818 49.0464C73.2544 50.5425 75.4688 52.6371 77.0248 55.3302C78.5808 58.0233 79.3588 61.1653 79.3588 64.7561C79.3588 67.3295 79.0296 69.6335 78.3713 71.6683C77.7728 73.7031 76.6657 75.7977 75.0498 77.9522C73.4938 80.0468 71.3094 82.5604 68.4966 85.4929L49.9143 104.614L38.9624 104.883ZM38.9624 110V104.883L46.144 102.459H80.7951V110H38.9624ZM114.191 110.898C109.523 110.898 105.244 109.581 101.354 106.948C97.5236 104.315 94.4714 100.604 92.1972 95.8164C89.9231 90.9688 88.786 85.2834 88.786 78.7601C88.786 72.2369 89.8932 66.5814 92.1075 61.7937C94.3816 57.0059 97.4338 53.3254 101.264 50.752C105.094 48.1187 109.313 46.8021 113.922 46.8021C118.649 46.8021 122.928 48.1187 126.759 50.752C130.589 53.3254 133.611 57.0059 135.825 61.7937C138.1 66.5814 139.237 72.2668 139.237 78.8499C139.237 85.3732 138.1 91.0586 135.825 95.9062C133.611 100.694 130.589 104.404 126.759 107.038C122.988 109.611 118.799 110.898 114.191 110.898ZM114.011 102.908C117.303 102.908 120.175 102.01 122.629 100.215C125.143 98.3599 127.118 95.6368 128.554 92.0461C129.99 88.4553 130.708 84.0266 130.708 78.7601C130.708 73.4936 129.99 69.0949 128.554 65.564C127.118 61.9732 125.143 59.2801 122.629 57.4847C120.116 55.6295 117.213 54.7018 113.922 54.7018C110.69 54.7018 107.817 55.6295 105.304 57.4847C102.79 59.2801 100.815 61.9732 99.3788 65.564C98.0024 69.0949 97.3141 73.4936 97.3141 78.7601C97.3141 84.0266 98.0024 88.4553 99.3788 92.0461C100.815 95.6368 102.79 98.3599 105.304 100.215C107.817 102.01 110.72 102.908 114.011 102.908Z" fill="white"/>
<path d="M36.682 155L42.93 139.732H44.426L50.652 155H48.408L43.282 142.086H44.052L38.882 155H36.682ZM39.652 151.546V149.742H47.682V151.546H39.652ZM54.5163 155L50.3803 144.55H52.4483L55.4403 152.69H54.7803L57.7503 144.55H58.8943L61.8643 152.69H61.2043L64.1963 144.55H66.2643L62.1503 155H60.9843L57.9703 147.102H58.6963L55.6603 155H54.5163ZM72.1675 155.22C71.2142 155.22 70.3488 154.985 69.5715 154.516C68.7942 154.032 68.1782 153.379 67.7235 152.558C67.2835 151.737 67.0635 150.813 67.0635 149.786C67.0635 148.759 67.2835 147.835 67.7235 147.014C68.1782 146.193 68.7868 145.54 69.5495 145.056C70.3268 144.572 71.1995 144.33 72.1675 144.33C72.9595 144.33 73.6635 144.499 74.2795 144.836C74.9102 145.159 75.4162 145.613 75.7975 146.2C76.1788 146.772 76.3915 147.439 76.4355 148.202V151.348C76.3915 152.096 76.1788 152.763 75.7975 153.35C75.4308 153.937 74.9322 154.399 74.3015 154.736C73.6855 155.059 72.9742 155.22 72.1675 155.22ZM72.4975 153.35C73.4802 153.35 74.2722 153.02 74.8735 152.36C75.4748 151.685 75.7755 150.827 75.7755 149.786C75.7755 149.067 75.6362 148.444 75.3575 147.916C75.0935 147.373 74.7122 146.955 74.2135 146.662C73.7148 146.354 73.1355 146.2 72.4755 146.2C71.8155 146.2 71.2288 146.354 70.7155 146.662C70.2168 146.97 69.8208 147.395 69.5275 147.938C69.2488 148.466 69.1095 149.075 69.1095 149.764C69.1095 150.468 69.2488 151.091 69.5275 151.634C69.8208 152.162 70.2242 152.58 70.7375 152.888C71.2508 153.196 71.8375 153.35 72.4975 153.35ZM75.6435 155V152.184L76.0175 149.632L75.6435 147.102V144.55H77.6455V155H75.6435ZM80.5282 155V144.55H82.5082V155H80.5282ZM82.5082 149.038L81.7602 148.708C81.7602 147.373 82.0682 146.31 82.6842 145.518C83.3002 144.726 84.1875 144.33 85.3462 144.33C85.8742 144.33 86.3508 144.425 86.7762 144.616C87.2015 144.792 87.5975 145.093 87.9642 145.518L86.6662 146.86C86.4462 146.625 86.2042 146.457 85.9402 146.354C85.6762 146.251 85.3682 146.2 85.0162 146.2C84.2828 146.2 83.6815 146.435 83.2122 146.904C82.7428 147.373 82.5082 148.085 82.5082 149.038ZM93.4365 155.22C92.4685 155.22 91.6032 154.985 90.8405 154.516C90.0778 154.032 89.4692 153.379 89.0145 152.558C88.5745 151.737 88.3545 150.813 88.3545 149.786C88.3545 148.759 88.5745 147.835 89.0145 147.014C89.4692 146.193 90.0778 145.54 90.8405 145.056C91.6032 144.572 92.4685 144.33 93.4365 144.33C94.2138 144.33 94.9178 144.499 95.5485 144.836C96.1792 145.159 96.6852 145.613 97.0665 146.2C97.4625 146.772 97.6825 147.439 97.7265 148.202V151.348C97.6825 152.096 97.4698 152.763 97.0885 153.35C96.7072 153.937 96.2012 154.399 95.5705 154.736C94.9398 155.059 94.2285 155.22 93.4365 155.22ZM93.7665 153.35C94.4265 153.35 94.9985 153.196 95.4825 152.888C95.9812 152.58 96.3698 152.162 96.6485 151.634C96.9272 151.091 97.0665 150.475 97.0665 149.786C97.0665 149.067 96.9198 148.444 96.6265 147.916C96.3478 147.388 95.9592 146.97 95.4605 146.662C94.9765 146.354 94.4045 146.2 93.7445 146.2C93.0845 146.2 92.5052 146.354 92.0065 146.662C91.5078 146.97 91.1118 147.395 90.8185 147.938C90.5398 148.466 90.4005 149.075 90.4005 149.764C90.4005 150.468 90.5398 151.091 90.8185 151.634C91.1118 152.162 91.5078 152.58 92.0065 152.888C92.5198 153.196 93.1065 153.35 93.7665 153.35ZM98.9365 155H96.9345V152.184L97.3085 149.632L96.9345 147.102V139.292H98.9365V155ZM105.141 155.22C104.555 155.22 103.997 155.147 103.469 155C102.956 154.839 102.479 154.619 102.039 154.34C101.599 154.047 101.218 153.702 100.895 153.306L102.171 152.03C102.553 152.499 102.993 152.851 103.491 153.086C103.99 153.306 104.547 153.416 105.163 153.416C105.779 153.416 106.256 153.313 106.593 153.108C106.931 152.888 107.099 152.587 107.099 152.206C107.099 151.825 106.96 151.531 106.681 151.326C106.417 151.106 106.073 150.93 105.647 150.798C105.222 150.651 104.767 150.512 104.283 150.38C103.814 150.233 103.367 150.05 102.941 149.83C102.516 149.61 102.164 149.309 101.885 148.928C101.621 148.547 101.489 148.041 101.489 147.41C101.489 146.779 101.643 146.237 101.951 145.782C102.259 145.313 102.685 144.953 103.227 144.704C103.785 144.455 104.452 144.33 105.229 144.33C106.051 144.33 106.777 144.477 107.407 144.77C108.053 145.049 108.581 145.474 108.991 146.046L107.715 147.322C107.422 146.941 107.055 146.647 106.615 146.442C106.19 146.237 105.706 146.134 105.163 146.134C104.591 146.134 104.151 146.237 103.843 146.442C103.55 146.633 103.403 146.904 103.403 147.256C103.403 147.608 103.535 147.879 103.799 148.07C104.063 148.261 104.408 148.422 104.833 148.554C105.273 148.686 105.728 148.825 106.197 148.972C106.667 149.104 107.114 149.287 107.539 149.522C107.965 149.757 108.309 150.072 108.573 150.468C108.852 150.864 108.991 151.385 108.991 152.03C108.991 153.013 108.639 153.79 107.935 154.362C107.246 154.934 106.315 155.22 105.141 155.22ZM114.391 155L120.639 139.732H122.135L128.361 155H126.117L120.991 142.086H121.761L116.591 155H114.391ZM117.361 151.546V149.742H125.391V151.546H117.361ZM134.587 155.22C133.561 155.22 132.629 154.978 131.793 154.494C130.972 154.01 130.319 153.357 129.835 152.536C129.366 151.7 129.131 150.776 129.131 149.764C129.131 148.737 129.366 147.813 129.835 146.992C130.319 146.171 130.972 145.525 131.793 145.056C132.629 144.572 133.561 144.33 134.587 144.33C135.394 144.33 136.142 144.484 136.831 144.792C137.521 145.085 138.115 145.518 138.613 146.09L137.293 147.41C136.971 147.029 136.575 146.743 136.105 146.552C135.651 146.347 135.145 146.244 134.587 146.244C133.927 146.244 133.341 146.398 132.827 146.706C132.314 146.999 131.911 147.41 131.617 147.938C131.324 148.466 131.177 149.075 131.177 149.764C131.177 150.453 131.324 151.062 131.617 151.59C131.911 152.118 132.314 152.536 132.827 152.844C133.341 153.152 133.927 153.306 134.587 153.306C135.145 153.306 135.651 153.211 136.105 153.02C136.575 152.815 136.978 152.521 137.315 152.14L138.613 153.46C138.129 154.017 137.535 154.45 136.831 154.758C136.142 155.066 135.394 155.22 134.587 155.22ZM147.969 155V148.906C147.969 148.114 147.72 147.461 147.221 146.948C146.722 146.435 146.077 146.178 145.285 146.178C144.757 146.178 144.288 146.295 143.877 146.53C143.466 146.765 143.144 147.087 142.909 147.498C142.674 147.909 142.557 148.378 142.557 148.906L141.743 148.444C141.743 147.652 141.919 146.948 142.271 146.332C142.623 145.716 143.114 145.232 143.745 144.88C144.376 144.513 145.087 144.33 145.879 144.33C146.671 144.33 147.368 144.506 147.969 144.858C148.585 145.21 149.069 145.701 149.421 146.332C149.773 146.963 149.949 147.689 149.949 148.51V155H147.969ZM140.577 155V139.292H142.557V155H140.577ZM152.652 155V144.55H154.632V155H152.652ZM153.642 142.46C153.275 142.46 152.974 142.343 152.74 142.108C152.505 141.859 152.388 141.551 152.388 141.184C152.388 140.832 152.505 140.539 152.74 140.304C152.974 140.055 153.275 139.93 153.642 139.93C154.008 139.93 154.309 140.055 154.544 140.304C154.778 140.539 154.896 140.832 154.896 141.184C154.896 141.551 154.778 141.859 154.544 142.108C154.309 142.343 154.008 142.46 153.642 142.46ZM162.39 155.22C161.348 155.22 160.41 154.985 159.574 154.516C158.738 154.032 158.078 153.379 157.594 152.558C157.11 151.737 156.868 150.805 156.868 149.764C156.868 148.737 157.102 147.813 157.572 146.992C158.056 146.171 158.701 145.525 159.508 145.056C160.329 144.572 161.246 144.33 162.258 144.33C163.226 144.33 164.076 144.55 164.81 144.99C165.558 145.43 166.137 146.039 166.548 146.816C166.973 147.593 167.186 148.473 167.186 149.456C167.186 149.603 167.178 149.764 167.164 149.94C167.149 150.101 167.12 150.292 167.076 150.512H158.254V148.862H166.02L165.294 149.5C165.294 148.796 165.169 148.202 164.92 147.718C164.67 147.219 164.318 146.838 163.864 146.574C163.409 146.295 162.859 146.156 162.214 146.156C161.539 146.156 160.945 146.303 160.432 146.596C159.918 146.889 159.522 147.3 159.244 147.828C158.965 148.356 158.826 148.979 158.826 149.698C158.826 150.431 158.972 151.077 159.266 151.634C159.559 152.177 159.977 152.602 160.52 152.91C161.062 153.203 161.686 153.35 162.39 153.35C162.976 153.35 163.512 153.247 163.996 153.042C164.494 152.837 164.92 152.529 165.272 152.118L166.548 153.416C166.049 154.003 165.433 154.45 164.7 154.758C163.981 155.066 163.211 155.22 162.39 155.22ZM172.759 155L167.963 144.55H170.163L174.013 153.372H172.737L176.609 144.55H178.721L173.925 155H172.759ZM184.841 155.22C183.799 155.22 182.861 154.985 182.025 154.516C181.189 154.032 180.529 153.379 180.045 152.558C179.561 151.737 179.319 150.805 179.319 149.764C179.319 148.737 179.553 147.813 180.023 146.992C180.507 146.171 181.152 145.525 181.959 145.056C182.78 144.572 183.697 144.33 184.709 144.33C185.677 144.33 186.527 144.55 187.261 144.99C188.009 145.43 188.588 146.039 188.999 146.816C189.424 147.593 189.637 148.473 189.637 149.456C189.637 149.603 189.629 149.764 189.615 149.94C189.6 150.101 189.571 150.292 189.527 150.512H180.705V148.862H188.471L187.745 149.5C187.745 148.796 187.62 148.202 187.371 147.718C187.121 147.219 186.769 146.838 186.315 146.574C185.86 146.295 185.31 146.156 184.665 146.156C183.99 146.156 183.396 146.303 182.883 146.596C182.369 146.889 181.973 147.3 181.695 147.828C181.416 148.356 181.277 148.979 181.277 149.698C181.277 150.431 181.423 151.077 181.717 151.634C182.01 152.177 182.428 152.602 182.971 152.91C183.513 153.203 184.137 153.35 184.841 153.35C185.427 153.35 185.963 153.247 186.447 153.042C186.945 152.837 187.371 152.529 187.723 152.118L188.999 153.416C188.5 154.003 187.884 154.45 187.151 154.758C186.432 155.066 185.662 155.22 184.841 155.22ZM191.796 155V144.55H193.776V155H191.796ZM198.858 155V148.686C198.858 147.909 198.616 147.3 198.132 146.86C197.662 146.405 197.068 146.178 196.35 146.178C195.866 146.178 195.433 146.281 195.052 146.486C194.67 146.691 194.362 146.977 194.128 147.344C193.893 147.711 193.776 148.151 193.776 148.664L192.962 148.268C192.962 147.476 193.13 146.787 193.468 146.2C193.82 145.613 194.296 145.159 194.898 144.836C195.499 144.499 196.174 144.33 196.922 144.33C197.655 144.33 198.315 144.491 198.902 144.814C199.503 145.137 199.972 145.591 200.31 146.178C200.662 146.765 200.838 147.461 200.838 148.268V155H198.858ZM205.92 155V148.686C205.92 147.909 205.678 147.3 205.194 146.86C204.724 146.405 204.138 146.178 203.434 146.178C202.95 146.178 202.51 146.281 202.114 146.486C201.732 146.691 201.424 146.977 201.19 147.344C200.955 147.711 200.838 148.151 200.838 148.664L199.716 148.268C199.76 147.461 199.972 146.772 200.354 146.2C200.75 145.613 201.256 145.159 201.872 144.836C202.488 144.499 203.162 144.33 203.896 144.33C204.658 144.33 205.34 144.491 205.942 144.814C206.543 145.137 207.02 145.591 207.372 146.178C207.738 146.765 207.922 147.469 207.922 148.29V155H205.92ZM215.456 155.22C214.415 155.22 213.476 154.985 212.64 154.516C211.804 154.032 211.144 153.379 210.66 152.558C210.176 151.737 209.934 150.805 209.934 149.764C209.934 148.737 210.169 147.813 210.638 146.992C211.122 146.171 211.767 145.525 212.574 145.056C213.395 144.572 214.312 144.33 215.324 144.33C216.292 144.33 217.143 144.55 217.876 144.99C218.624 145.43 219.203 146.039 219.614 146.816C220.039 147.593 220.252 148.473 220.252 149.456C220.252 149.603 220.245 149.764 220.23 149.94C220.215 150.101 220.186 150.292 220.142 150.512H211.32V148.862H219.086L218.36 149.5C218.36 148.796 218.235 148.202 217.986 147.718C217.737 147.219 217.385 146.838 216.93 146.574C216.475 146.295 215.925 146.156 215.28 146.156C214.605 146.156 214.011 146.303 213.498 146.596C212.985 146.889 212.589 147.3 212.31 147.828C212.031 148.356 211.892 148.979 211.892 149.698C211.892 150.431 212.039 151.077 212.332 151.634C212.625 152.177 213.043 152.602 213.586 152.91C214.129 153.203 214.752 153.35 215.456 153.35C216.043 153.35 216.578 153.247 217.062 153.042C217.561 152.837 217.986 152.529 218.338 152.118L219.614 153.416C219.115 154.003 218.499 154.45 217.766 154.758C217.047 155.066 216.277 155.22 215.456 155.22ZM229.803 155V148.906C229.803 148.114 229.554 147.461 229.055 146.948C228.556 146.435 227.911 146.178 227.119 146.178C226.591 146.178 226.122 146.295 225.711 146.53C225.3 146.765 224.978 147.087 224.743 147.498C224.508 147.909 224.391 148.378 224.391 148.906L223.577 148.444C223.577 147.652 223.753 146.948 224.105 146.332C224.457 145.716 224.948 145.232 225.579 144.88C226.21 144.513 226.921 144.33 227.713 144.33C228.505 144.33 229.202 144.528 229.803 144.924C230.419 145.32 230.903 145.841 231.255 146.486C231.607 147.117 231.783 147.791 231.783 148.51V155H229.803ZM222.411 155V144.55H224.391V155H222.411ZM235.941 155V140.172H237.921V155H235.941ZM233.367 146.354V144.55H240.495V146.354H233.367Z" fill="#AAAAAA"/>
<g opacity="0.5" filter="url(#filter0_fn_930_15313)">
<path d="M441.579 -0.000219476L200.405 -29.0771C207.526 56.0634 346.701 19.4957 379.578 76.8067C415.937 140.188 410.373 238.828 409.633 264.967L441.579 -0.000219476Z" fill="#4C8C74"/>
</g>
</g>
<defs>
<filter id="filter0_fn_930_15313" x="93.8048" y="-135.677" width="454.374" height="507.244" filterUnits="userSpaceOnUse" color-interpolation-filters="sRGB">
<feFlood flood-opacity="0" result="BackgroundImageFix"/>
<feBlend mode="normal" in="SourceGraphic" in2="BackgroundImageFix" result="shape"/>
<feGaussianBlur stdDeviation="53.3" result="effect1_foregroundBlur_930_15313"/>
<feTurbulence type="fractalNoise" baseFrequency="2 2" stitchTiles="stitch" numOctaves="3" result="noise" seed="9306" />
<feColorMatrix in="noise" type="luminanceToAlpha" result="alphaNoise" />
<feComponentTransfer in="alphaNoise" result="coloredNoise1">
<feFuncA type="discrete" tableValues="1 1 1 1 1 1 1 1 1 1 1 1 1 1 1 1 1 1 1 1 1 1 1 1 1 1 1 1 1 1 1 1 1 1 1 1 1 1 1 1 1 1 1 1 1 1 1 1 1 1 1 0 0 0 0 0 0 0 0 0 0 0 0 0 0 0 0 0 0 0 0 0 0 0 0 0 0 0 0 0 0 0 0 0 0 0 0 0 0 0 0 0 0 0 0 0 0 0 0 0 "/>
</feComponentTransfer>
<feComposite operator="in" in2="effect1_foregroundBlur_930_15313" in="coloredNoise1" result="noise1Clipped" />
<feFlood flood-color="rgba(0, 0, 0, 0.25)" result="color1Flood" />
<feComposite operator="in" in2="noise1Clipped" in="color1Flood" result="color1" />
<feMerge result="effect2_noise_930_15313">
<feMergeNode in="effect1_foregroundBlur_930_15313" />
<feMergeNode in="color1" />
</feMerge>
</filter>
<clipPath id="clip0_930_15313">
<rect width="401" height="193" rx="20" fill="white"/>
</clipPath>
</defs>
</svg>
