<svg width="401" height="193" viewBox="0 0 401 193" fill="none" xmlns="http://www.w3.org/2000/svg">
<g clip-path="url(#clip0_930_15309)">
<rect width="401" height="193" rx="20" fill="#1F1F1F"/>
<path d="M51.5302 110V47.6998H59.8787V110H51.5302ZM38.7829 55.2405V47.6998H58.981V55.2405H38.7829ZM96.7453 110.898C92.0773 110.898 87.7983 109.581 83.9083 106.948C80.0781 104.315 77.0259 100.604 74.7518 95.8164C72.4776 90.9688 71.3405 85.2834 71.3405 78.7601C71.3405 72.2369 72.4477 66.5814 74.662 61.7937C76.9362 57.0059 79.9883 53.3254 83.8185 50.752C87.6487 48.1187 91.8679 46.8021 96.476 46.8021C101.204 46.8021 105.483 48.1187 109.313 50.752C113.143 53.3254 116.166 57.0059 118.38 61.7937C120.654 66.5814 121.791 72.2668 121.791 78.8499C121.791 85.3732 120.654 91.0586 118.38 95.9062C116.166 100.694 113.143 104.404 109.313 107.038C105.543 109.611 101.354 110.898 96.7453 110.898ZM96.5658 102.908C99.8574 102.908 102.73 102.01 105.184 100.215C107.697 98.3599 109.672 95.6368 111.109 92.0461C112.545 88.4553 113.263 84.0266 113.263 78.7601C113.263 73.4936 112.545 69.0949 111.109 65.564C109.672 61.9732 107.697 59.2801 105.184 57.4847C102.67 55.6295 99.7676 54.7018 96.476 54.7018C93.2443 54.7018 90.3717 55.6295 87.8581 57.4847C85.3446 59.2801 83.3697 61.9732 81.9333 65.564C80.5569 69.0949 79.8686 73.4936 79.8686 78.7601C79.8686 84.0266 80.5569 88.4553 81.9333 92.0461C83.3697 95.6368 85.3446 98.3599 87.8581 100.215C90.3717 102.01 93.2743 102.908 96.5658 102.908Z" fill="white"/>
<path d="M42.644 148.796L36.638 139.732H39.036L43.876 147.146H42.798L47.66 139.732H50.014L43.964 148.796H42.644ZM42.292 155V147.432H44.36V155H42.292ZM53.6787 155.22C52.6374 155.22 51.6987 154.985 50.8627 154.516C50.0267 154.032 49.3667 153.379 48.8827 152.558C48.3987 151.737 48.1567 150.805 48.1567 149.764C48.1567 148.737 48.3914 147.813 48.8607 146.992C49.3447 146.171 49.9901 145.525 50.7967 145.056C51.6181 144.572 52.5347 144.33 53.5467 144.33C54.5147 144.33 55.3654 144.55 56.0987 144.99C56.8467 145.43 57.4261 146.039 57.8367 146.816C58.2621 147.593 58.4747 148.473 58.4747 149.456C58.4747 149.603 58.4674 149.764 58.4527 149.94C58.4381 150.101 58.4087 150.292 58.3647 150.512H49.5427V148.862H57.3087L56.5827 149.5C56.5827 148.796 56.4581 148.202 56.2087 147.718C55.9594 147.219 55.6074 146.838 55.1527 146.574C54.6981 146.295 54.1481 146.156 53.5027 146.156C52.8281 146.156 52.2341 146.303 51.7207 146.596C51.2074 146.889 50.8114 147.3 50.5327 147.828C50.2541 148.356 50.1147 148.979 50.1147 149.698C50.1147 150.431 50.2614 151.077 50.5547 151.634C50.8481 152.177 51.2661 152.602 51.8087 152.91C52.3514 153.203 52.9747 153.35 53.6787 153.35C54.2654 153.35 54.8007 153.247 55.2847 153.042C55.7834 152.837 56.2087 152.529 56.5607 152.118L57.8367 153.416C57.3381 154.003 56.7221 154.45 55.9887 154.758C55.2701 155.066 54.5001 155.22 53.6787 155.22ZM65.0776 155.22C64.1243 155.22 63.259 154.985 62.4816 154.516C61.7043 154.032 61.0883 153.379 60.6336 152.558C60.1936 151.737 59.9736 150.813 59.9736 149.786C59.9736 148.759 60.1936 147.835 60.6336 147.014C61.0883 146.193 61.697 145.54 62.4596 145.056C63.237 144.572 64.1096 144.33 65.0776 144.33C65.8696 144.33 66.5736 144.499 67.1896 144.836C67.8203 145.159 68.3263 145.613 68.7076 146.2C69.089 146.772 69.3016 147.439 69.3456 148.202V151.348C69.3016 152.096 69.089 152.763 68.7076 153.35C68.341 153.937 67.8423 154.399 67.2116 154.736C66.5956 155.059 65.8843 155.22 65.0776 155.22ZM65.4076 153.35C66.3903 153.35 67.1823 153.02 67.7836 152.36C68.385 151.685 68.6856 150.827 68.6856 149.786C68.6856 149.067 68.5463 148.444 68.2676 147.916C68.0036 147.373 67.6223 146.955 67.1236 146.662C66.625 146.354 66.0456 146.2 65.3856 146.2C64.7256 146.2 64.139 146.354 63.6256 146.662C63.127 146.97 62.731 147.395 62.4376 147.938C62.159 148.466 62.0196 149.075 62.0196 149.764C62.0196 150.468 62.159 151.091 62.4376 151.634C62.731 152.162 63.1343 152.58 63.6476 152.888C64.161 153.196 64.7476 153.35 65.4076 153.35ZM68.5536 155V152.184L68.9276 149.632L68.5536 147.102V144.55H70.5556V155H68.5536ZM73.4383 155V144.55H75.4183V155H73.4383ZM75.4183 149.038L74.6703 148.708C74.6703 147.373 74.9783 146.31 75.5943 145.518C76.2103 144.726 77.0977 144.33 78.2563 144.33C78.7843 144.33 79.261 144.425 79.6863 144.616C80.1117 144.792 80.5077 145.093 80.8743 145.518L79.5763 146.86C79.3563 146.625 79.1143 146.457 78.8503 146.354C78.5863 146.251 78.2783 146.2 77.9263 146.2C77.193 146.2 76.5917 146.435 76.1223 146.904C75.653 147.373 75.4183 148.085 75.4183 149.038ZM85.3541 155.22C84.7674 155.22 84.2101 155.147 83.6821 155C83.1687 154.839 82.6921 154.619 82.2521 154.34C81.8121 154.047 81.4307 153.702 81.1081 153.306L82.3841 152.03C82.7654 152.499 83.2054 152.851 83.7041 153.086C84.2027 153.306 84.7601 153.416 85.3761 153.416C85.9921 153.416 86.4687 153.313 86.8061 153.108C87.1434 152.888 87.3121 152.587 87.3121 152.206C87.3121 151.825 87.1727 151.531 86.8941 151.326C86.6301 151.106 86.2854 150.93 85.8601 150.798C85.4347 150.651 84.9801 150.512 84.4961 150.38C84.0267 150.233 83.5794 150.05 83.1541 149.83C82.7287 149.61 82.3767 149.309 82.0981 148.928C81.8341 148.547 81.7021 148.041 81.7021 147.41C81.7021 146.779 81.8561 146.237 82.1641 145.782C82.4721 145.313 82.8974 144.953 83.4401 144.704C83.9974 144.455 84.6647 144.33 85.4421 144.33C86.2634 144.33 86.9894 144.477 87.6201 144.77C88.2654 145.049 88.7934 145.474 89.2041 146.046L87.9281 147.322C87.6347 146.941 87.2681 146.647 86.8281 146.442C86.4027 146.237 85.9187 146.134 85.3761 146.134C84.8041 146.134 84.3641 146.237 84.0561 146.442C83.7627 146.633 83.6161 146.904 83.6161 147.256C83.6161 147.608 83.7481 147.879 84.0121 148.07C84.2761 148.261 84.6207 148.422 85.0461 148.554C85.4861 148.686 85.9407 148.825 86.4101 148.972C86.8794 149.104 87.3267 149.287 87.7521 149.522C88.1774 149.757 88.5221 150.072 88.7861 150.468C89.0647 150.864 89.2041 151.385 89.2041 152.03C89.2041 153.013 88.8521 153.79 88.1481 154.362C87.4587 154.934 86.5274 155.22 85.3541 155.22ZM96.3489 155V139.732H98.4169V155H96.3489ZM97.7569 155V153.108H106.513V155H97.7569ZM97.7569 148.092V146.288H105.787V148.092H97.7569ZM97.7569 141.624V139.732H106.403V141.624H97.7569ZM115.837 155L112.581 150.424L112.207 150.072L108.093 144.55H110.491L113.461 148.62L113.835 148.928L118.235 155H115.837ZM107.895 155L112.207 149.192L113.329 150.644L110.227 155H107.895ZM113.989 150.05L112.845 148.642L115.727 144.55H118.037L113.989 150.05ZM125.559 155.22C124.767 155.22 124.049 155.059 123.403 154.736C122.773 154.399 122.267 153.937 121.885 153.35C121.504 152.763 121.291 152.096 121.247 151.348V148.202C121.291 147.439 121.504 146.772 121.885 146.2C122.281 145.613 122.795 145.159 123.425 144.836C124.071 144.499 124.782 144.33 125.559 144.33C126.513 144.33 127.371 144.572 128.133 145.056C128.911 145.54 129.519 146.193 129.959 147.014C130.399 147.835 130.619 148.759 130.619 149.786C130.619 150.813 130.399 151.737 129.959 152.558C129.519 153.379 128.911 154.032 128.133 154.516C127.371 154.985 126.513 155.22 125.559 155.22ZM125.229 153.35C125.889 153.35 126.469 153.196 126.967 152.888C127.466 152.58 127.862 152.162 128.155 151.634C128.449 151.091 128.595 150.468 128.595 149.764C128.595 149.075 128.449 148.459 128.155 147.916C127.862 147.373 127.466 146.955 126.967 146.662C126.469 146.354 125.897 146.2 125.251 146.2C124.591 146.2 124.012 146.354 123.513 146.662C123.015 146.955 122.626 147.373 122.347 147.916C122.069 148.459 121.929 149.082 121.929 149.786C121.929 150.475 122.061 151.091 122.325 151.634C122.604 152.162 122.993 152.58 123.491 152.888C124.005 153.196 124.584 153.35 125.229 153.35ZM120.059 159.378V144.55H122.039V147.3L121.665 149.83L122.039 152.382V159.378H120.059ZM137.704 155.22C136.663 155.22 135.724 154.985 134.888 154.516C134.052 154.032 133.392 153.379 132.908 152.558C132.424 151.737 132.182 150.805 132.182 149.764C132.182 148.737 132.417 147.813 132.886 146.992C133.37 146.171 134.015 145.525 134.822 145.056C135.643 144.572 136.56 144.33 137.572 144.33C138.54 144.33 139.391 144.55 140.124 144.99C140.872 145.43 141.451 146.039 141.862 146.816C142.287 147.593 142.5 148.473 142.5 149.456C142.5 149.603 142.493 149.764 142.478 149.94C142.463 150.101 142.434 150.292 142.39 150.512H133.568V148.862H141.334L140.608 149.5C140.608 148.796 140.483 148.202 140.234 147.718C139.985 147.219 139.633 146.838 139.178 146.574C138.723 146.295 138.173 146.156 137.528 146.156C136.853 146.156 136.259 146.303 135.746 146.596C135.233 146.889 134.837 147.3 134.558 147.828C134.279 148.356 134.14 148.979 134.14 149.698C134.14 150.431 134.287 151.077 134.58 151.634C134.873 152.177 135.291 152.602 135.834 152.91C136.377 153.203 137 153.35 137.704 153.35C138.291 153.35 138.826 153.247 139.31 153.042C139.809 152.837 140.234 152.529 140.586 152.118L141.862 153.416C141.363 154.003 140.747 154.45 140.014 154.758C139.295 155.066 138.525 155.22 137.704 155.22ZM144.659 155V144.55H146.639V155H144.659ZM146.639 149.038L145.891 148.708C145.891 147.373 146.199 146.31 146.815 145.518C147.431 144.726 148.318 144.33 149.477 144.33C150.005 144.33 150.482 144.425 150.907 144.616C151.332 144.792 151.728 145.093 152.095 145.518L150.797 146.86C150.577 146.625 150.335 146.457 150.071 146.354C149.807 146.251 149.499 146.2 149.147 146.2C148.414 146.2 147.812 146.435 147.343 146.904C146.874 147.373 146.639 148.085 146.639 149.038ZM153.511 155V144.55H155.491V155H153.511ZM154.501 142.46C154.134 142.46 153.834 142.343 153.599 142.108C153.364 141.859 153.247 141.551 153.247 141.184C153.247 140.832 153.364 140.539 153.599 140.304C153.834 140.055 154.134 139.93 154.501 139.93C154.868 139.93 155.168 140.055 155.403 140.304C155.638 140.539 155.755 140.832 155.755 141.184C155.755 141.551 155.638 141.859 155.403 142.108C155.168 142.343 154.868 142.46 154.501 142.46ZM163.249 155.22C162.208 155.22 161.269 154.985 160.433 154.516C159.597 154.032 158.937 153.379 158.453 152.558C157.969 151.737 157.727 150.805 157.727 149.764C157.727 148.737 157.962 147.813 158.431 146.992C158.915 146.171 159.56 145.525 160.367 145.056C161.188 144.572 162.105 144.33 163.117 144.33C164.085 144.33 164.936 144.55 165.669 144.99C166.417 145.43 166.996 146.039 167.407 146.816C167.832 147.593 168.045 148.473 168.045 149.456C168.045 149.603 168.038 149.764 168.023 149.94C168.008 150.101 167.979 150.292 167.935 150.512H159.113V148.862H166.879L166.153 149.5C166.153 148.796 166.028 148.202 165.779 147.718C165.53 147.219 165.178 146.838 164.723 146.574C164.268 146.295 163.718 146.156 163.073 146.156C162.398 146.156 161.804 146.303 161.291 146.596C160.778 146.889 160.382 147.3 160.103 147.828C159.824 148.356 159.685 148.979 159.685 149.698C159.685 150.431 159.832 151.077 160.125 151.634C160.418 152.177 160.836 152.602 161.379 152.91C161.922 153.203 162.545 153.35 163.249 153.35C163.836 153.35 164.371 153.247 164.855 153.042C165.354 152.837 165.779 152.529 166.131 152.118L167.407 153.416C166.908 154.003 166.292 154.45 165.559 154.758C164.84 155.066 164.07 155.22 163.249 155.22ZM177.596 155V148.906C177.596 148.114 177.347 147.461 176.848 146.948C176.349 146.435 175.704 146.178 174.912 146.178C174.384 146.178 173.915 146.295 173.504 146.53C173.093 146.765 172.771 147.087 172.536 147.498C172.301 147.909 172.184 148.378 172.184 148.906L171.37 148.444C171.37 147.652 171.546 146.948 171.898 146.332C172.25 145.716 172.741 145.232 173.372 144.88C174.003 144.513 174.714 144.33 175.506 144.33C176.298 144.33 176.995 144.528 177.596 144.924C178.212 145.32 178.696 145.841 179.048 146.486C179.4 147.117 179.576 147.791 179.576 148.51V155H177.596ZM170.204 155V144.55H172.184V155H170.204ZM187.031 155.22C186.004 155.22 185.073 154.978 184.237 154.494C183.415 154.01 182.763 153.357 182.279 152.536C181.809 151.7 181.575 150.776 181.575 149.764C181.575 148.737 181.809 147.813 182.279 146.992C182.763 146.171 183.415 145.525 184.237 145.056C185.073 144.572 186.004 144.33 187.031 144.33C187.837 144.33 188.585 144.484 189.275 144.792C189.964 145.085 190.558 145.518 191.057 146.09L189.737 147.41C189.414 147.029 189.018 146.743 188.549 146.552C188.094 146.347 187.588 146.244 187.031 146.244C186.371 146.244 185.784 146.398 185.271 146.706C184.757 146.999 184.354 147.41 184.061 147.938C183.767 148.466 183.621 149.075 183.621 149.764C183.621 150.453 183.767 151.062 184.061 151.59C184.354 152.118 184.757 152.536 185.271 152.844C185.784 153.152 186.371 153.306 187.031 153.306C187.588 153.306 188.094 153.211 188.549 153.02C189.018 152.815 189.421 152.521 189.759 152.14L191.057 153.46C190.573 154.017 189.979 154.45 189.275 154.758C188.585 155.066 187.837 155.22 187.031 155.22ZM197.646 155.22C196.604 155.22 195.666 154.985 194.83 154.516C193.994 154.032 193.334 153.379 192.85 152.558C192.366 151.737 192.124 150.805 192.124 149.764C192.124 148.737 192.358 147.813 192.828 146.992C193.312 146.171 193.957 145.525 194.764 145.056C195.585 144.572 196.502 144.33 197.514 144.33C198.482 144.33 199.332 144.55 200.066 144.99C200.814 145.43 201.393 146.039 201.804 146.816C202.229 147.593 202.442 148.473 202.442 149.456C202.442 149.603 202.434 149.764 202.42 149.94C202.405 150.101 202.376 150.292 202.332 150.512H193.51V148.862H201.276L200.55 149.5C200.55 148.796 200.425 148.202 200.176 147.718C199.926 147.219 199.574 146.838 199.12 146.574C198.665 146.295 198.115 146.156 197.47 146.156C196.795 146.156 196.201 146.303 195.688 146.596C195.174 146.889 194.778 147.3 194.5 147.828C194.221 148.356 194.082 148.979 194.082 149.698C194.082 150.431 194.228 151.077 194.522 151.634C194.815 152.177 195.233 152.602 195.776 152.91C196.318 153.203 196.942 153.35 197.646 153.35C198.232 153.35 198.768 153.247 199.252 153.042C199.75 152.837 200.176 152.529 200.528 152.118L201.804 153.416C201.305 154.003 200.689 154.45 199.956 154.758C199.237 155.066 198.467 155.22 197.646 155.22Z" fill="#AAAAAA"/>
<g opacity="0.5" filter="url(#filter0_fn_930_15309)">
<path d="M441.579 -0.000219476L200.405 -29.0771C207.526 56.0634 346.701 19.4957 379.578 76.8067C415.937 140.188 410.373 238.828 409.633 264.967L441.579 -0.000219476Z" fill="#4C8C74"/>
</g>
</g>
<defs>
<filter id="filter0_fn_930_15309" x="93.8048" y="-135.677" width="454.374" height="507.244" filterUnits="userSpaceOnUse" color-interpolation-filters="sRGB">
<feFlood flood-opacity="0" result="BackgroundImageFix"/>
<feBlend mode="normal" in="SourceGraphic" in2="BackgroundImageFix" result="shape"/>
<feGaussianBlur stdDeviation="53.3" result="effect1_foregroundBlur_930_15309"/>
<feTurbulence type="fractalNoise" baseFrequency="2 2" stitchTiles="stitch" numOctaves="3" result="noise" seed="9306" />
<feColorMatrix in="noise" type="luminanceToAlpha" result="alphaNoise" />
<feComponentTransfer in="alphaNoise" result="coloredNoise1">
<feFuncA type="discrete" tableValues="1 1 1 1 1 1 1 1 1 1 1 1 1 1 1 1 1 1 1 1 1 1 1 1 1 1 1 1 1 1 1 1 1 1 1 1 1 1 1 1 1 1 1 1 1 1 1 1 1 1 1 0 0 0 0 0 0 0 0 0 0 0 0 0 0 0 0 0 0 0 0 0 0 0 0 0 0 0 0 0 0 0 0 0 0 0 0 0 0 0 0 0 0 0 0 0 0 0 0 0 "/>
</feComponentTransfer>
<feComposite operator="in" in2="effect1_foregroundBlur_930_15309" in="coloredNoise1" result="noise1Clipped" />
<feFlood flood-color="rgba(0, 0, 0, 0.25)" result="color1Flood" />
<feComposite operator="in" in2="noise1Clipped" in="color1Flood" result="color1" />
<feMerge result="effect2_noise_930_15309">
<feMergeNode in="effect1_foregroundBlur_930_15309" />
<feMergeNode in="color1" />
</feMerge>
</filter>
<clipPath id="clip0_930_15309">
<rect width="401" height="193" rx="20" fill="white"/>
</clipPath>
</defs>
</svg>
