<svg width="1920" height="594" viewBox="0 0 1920 594" fill="none" xmlns="http://www.w3.org/2000/svg">
<g clip-path="url(#clip0_951_15883)">
<rect width="1920" height="594" fill="#F5F5F5"/>
<path d="M523.622 143.27L-389.689 715.668M569.566 143.27L-207.766 715.668M615.511 143.27L-42.3025 715.668M661.456 143.27L110.805 715.668M707.4 143.27L254.558 715.668M753.345 143.27L391.236 715.668M799.289 143.27L522.627 715.668M845.234 143.27L650.188 715.668M891.178 143.27L775.152 715.668M937.123 143.27L898.612 715.668M983.067 143.27L1021.58 715.668M1029.01 143.27L1145.04 715.668M1074.96 143.27L1270 715.668M1120.9 143.27L1397.56 715.668M1166.85 143.27L1528.95 715.668M1212.79 143.27L1665.63 715.668M1258.73 143.27L1809.39 715.668M1304.68 143.27L1962.49 715.668M1350.62 143.27L2127.96 715.668M1396.57 143.27L2309.88 715.668M477.676 143.27H1442.51M477.674 143.271H1442.52M477.671 143.273H1442.52M477.665 143.276H1442.52M477.656 143.281H1442.53M477.642 143.289H1442.55M477.621 143.3H1442.57M477.59 143.316H1442.6M477.547 143.339H1442.64M477.488 143.371H1442.7M477.409 143.413H1442.78M477.303 143.469H1442.89M477.165 143.543H1443.02M476.988 143.638H1443.2M476.762 143.758H1443.43M476.479 143.91H1443.71M476.126 144.098H1444.06M475.692 144.33H1444.5M475.161 144.614H1445.03M474.518 144.957H1445.67M473.745 145.37H1446.44M472.822 145.863H1447.37M471.726 146.449H1448.46M470.433 147.139H1449.76M468.915 147.95H1451.27M467.144 148.896H1453.05M465.085 149.996H1455.1M462.705 151.267H1457.48M459.964 152.732H1460.23M456.819 154.411H1463.37M453.227 156.33H1466.96M449.137 158.515H1471.05M444.496 160.994H1475.69M439.248 163.798H1480.94M433.33 166.959H1486.86M426.678 170.512H1493.51M419.221 174.496H1500.97M410.883 178.95H1509.31M401.583 183.917H1518.61M391.238 189.443H1528.95M379.754 195.577H1540.44M367.036 202.371H1553.15M352.981 209.879H1567.21M337.479 218.16H1582.71M320.415 227.275H1599.77M301.668 237.289H1618.52M281.107 248.272H1639.08M258.598 260.296H1661.59M233.997 273.437H1686.19M207.152 287.777H1713.04M177.905 303.4H1742.28M146.089 320.396H1774.1M111.528 338.857H1808.66M74.0372 358.884H1846.15M33.4246 380.578H1886.77M-10.5126 404.048H1930.7M-57.9864 429.407H1978.18M-109.218 456.774H2029.41M-164.44 486.272H2084.63M-223.894 518.031H2144.08M-287.833 552.185H2208.02M-356.52 588.876H2276.71M-430.231 628.251H2350.42M-509.251 670.461H2429.44M477.677 143.27L-593.88 715.668H2514.07L1442.51 143.27H477.677Z" stroke="url(#paint0_linear_951_15883)"/>
</g>
<defs>
<linearGradient id="paint0_linear_951_15883" x1="960.095" y1="715.668" x2="960.095" y2="143.27" gradientUnits="userSpaceOnUse">
<stop stop-color="#F5F5F5"/>
<stop offset="0.495192" stop-color="#D4D4D4"/>
<stop offset="0.980769" stop-color="#F5F5F5"/>
</linearGradient>
<clipPath id="clip0_951_15883">
<rect width="1920" height="594" fill="white"/>
</clipPath>
</defs>
</svg>
