<svg width="49" height="50" viewBox="0 0 49 50" fill="none" xmlns="http://www.w3.org/2000/svg">
<ellipse cx="25.7555" cy="20.0308" rx="6.44379" ry="14.3487" transform="rotate(-33.696 25.7555 20.0308)" stroke="#4C8C74" stroke-width="2" stroke-linecap="round"/>
<path d="M16.7711 9.29309L10.5509 21.6185C9.76247 23.1807 9.36828 23.9618 9.4279 24.7888C9.48752 25.6159 9.98967 26.3324 10.994 27.7653L13.266 31.0072C14.2269 32.3781 14.7073 33.0636 15.428 33.4032C16.1488 33.7428 16.9832 33.6769 18.6521 33.545L32.2743 32.4686" stroke="#4C8C74" stroke-width="2" stroke-linecap="round"/>
<path d="M8.99352 24.8884L4.41673 28.0149C1.99434 29.6697 1.36208 32.9696 3.00127 35.4025C4.6554 37.8577 7.99202 38.497 10.4365 36.8271L14.9567 33.7393" stroke="#4C8C74" stroke-width="2" stroke-linecap="round"/>
<path d="M21.118 18.0712L22.2336 17.3195C24.1787 16.0091 26.8179 16.5235 28.1283 18.4686C29.4388 20.4137 28.9244 23.0528 26.9793 24.3633L25.8637 25.1149" stroke="#4C8C74" stroke-width="2" stroke-linecap="round"/>
<path d="M11.0946 36.5711L19.1951 47.6046C20.1663 48.9276 22.0261 49.2126 23.349 48.2414C24.6763 47.267 24.9582 45.3991 23.9777 44.0764L16.4758 33.9563" stroke="#4C8C74" stroke-width="2" stroke-linecap="round"/>
<line x1="34.1153" y1="1.10002" x2="33.3743" y2="8.07748" stroke="#4C8C74" stroke-width="2" stroke-linecap="round"/>
<line x1="44.3863" y1="8.6373" x2="38.5807" y2="12.5779" stroke="#4C8C74" stroke-width="2" stroke-linecap="round"/>
<line x1="47.1626" y1="20.4349" x2="40.265" y2="19.1479" stroke="#4C8C74" stroke-width="2" stroke-linecap="round"/>
</svg>
