<svg width="401" height="193" viewBox="0 0 401 193" fill="none" xmlns="http://www.w3.org/2000/svg">
<g clip-path="url(#clip0_930_15305)">
<rect width="401" height="193" rx="20" fill="#1F1F1F"/>
<path d="M58.1731 110.898C54.1036 110.898 50.3931 110.15 47.0417 108.653C43.7501 107.097 40.9673 104.853 38.6931 101.921L44.4384 96.1755C45.8148 98.2701 47.7 99.9458 50.0938 101.203C52.4877 102.399 55.1509 102.998 58.0834 102.998C60.8363 102.998 63.2002 102.489 65.1752 101.472C67.2099 100.395 68.7959 98.8985 69.933 96.9834C71.1299 95.0683 71.7284 92.854 71.7284 90.3404C71.7284 87.767 71.1299 85.5527 69.933 83.6975C68.7959 81.7824 67.18 80.3161 65.0854 79.2988C62.9908 78.2814 60.5071 77.7727 57.6345 77.7727C56.5573 77.7727 55.48 77.8624 54.4028 78.042C53.3256 78.1617 52.2782 78.3711 51.2609 78.6704L54.8516 73.8228C55.9887 73.2842 57.2156 72.8653 58.5322 72.566C59.8488 72.2668 61.1654 72.1172 62.4821 72.1172C65.8335 72.1172 68.8258 72.8952 71.459 74.4512C74.1521 76.0072 76.2767 78.1916 77.8327 81.0044C79.4485 83.8172 80.2565 87.0788 80.2565 90.7893C80.2565 94.7391 79.2989 98.2402 77.3838 101.292C75.5286 104.285 72.9552 106.649 69.6636 108.384C66.3721 110.06 62.5419 110.898 58.1731 110.898ZM51.2609 78.6704V73.5535L69.4841 52.8167L79.5383 52.7269L60.7764 74.0023L51.2609 78.6704ZM41.6555 55.2405V47.6998H79.5383V52.7269L72.1772 55.2405H41.6555ZM130.176 110L98.7568 77.5034L129.548 47.6998H140.5L107.285 79.6578V74.9898L141.397 110H130.176ZM91.6649 110V47.6998H100.103V110H91.6649Z" fill="white"/>
<path d="M37.804 155V139.732H39.872V155H37.804ZM47.66 155V139.732H49.728V155H47.66ZM39.212 148.048V146.156H48.166V148.048H39.212ZM57.4292 155.22C56.4759 155.22 55.6105 154.985 54.8332 154.516C54.0559 154.032 53.4399 153.379 52.9852 152.558C52.5452 151.737 52.3252 150.813 52.3252 149.786C52.3252 148.759 52.5452 147.835 52.9852 147.014C53.4399 146.193 54.0485 145.54 54.8112 145.056C55.5885 144.572 56.4612 144.33 57.4292 144.33C58.2212 144.33 58.9252 144.499 59.5412 144.836C60.1719 145.159 60.6779 145.613 61.0592 146.2C61.4405 146.772 61.6532 147.439 61.6972 148.202V151.348C61.6532 152.096 61.4405 152.763 61.0592 153.35C60.6925 153.937 60.1939 154.399 59.5632 154.736C58.9472 155.059 58.2359 155.22 57.4292 155.22ZM57.7592 153.35C58.7419 153.35 59.5339 153.02 60.1352 152.36C60.7365 151.685 61.0372 150.827 61.0372 149.786C61.0372 149.067 60.8979 148.444 60.6192 147.916C60.3552 147.373 59.9739 146.955 59.4752 146.662C58.9765 146.354 58.3972 146.2 57.7372 146.2C57.0772 146.2 56.4905 146.354 55.9772 146.662C55.4785 146.97 55.0825 147.395 54.7892 147.938C54.5105 148.466 54.3712 149.075 54.3712 149.764C54.3712 150.468 54.5105 151.091 54.7892 151.634C55.0825 152.162 55.4859 152.58 55.9992 152.888C56.5125 153.196 57.0992 153.35 57.7592 153.35ZM60.9052 155V152.184L61.2792 149.632L60.9052 147.102V144.55H62.9072V155H60.9052ZM71.2899 155.22C70.4979 155.22 69.7792 155.059 69.1339 154.736C68.5032 154.399 67.9972 153.937 67.6159 153.35C67.2346 152.763 67.0219 152.096 66.9779 151.348V148.202C67.0219 147.439 67.2346 146.772 67.6159 146.2C68.0119 145.613 68.5252 145.159 69.1559 144.836C69.8012 144.499 70.5126 144.33 71.2899 144.33C72.2432 144.33 73.1012 144.572 73.8639 145.056C74.6412 145.54 75.2499 146.193 75.6899 147.014C76.1299 147.835 76.3499 148.759 76.3499 149.786C76.3499 150.813 76.1299 151.737 75.6899 152.558C75.2499 153.379 74.6412 154.032 73.8639 154.516C73.1012 154.985 72.2432 155.22 71.2899 155.22ZM70.9599 153.35C71.6199 153.35 72.1992 153.196 72.6979 152.888C73.1966 152.58 73.5926 152.162 73.8859 151.634C74.1792 151.091 74.3259 150.468 74.3259 149.764C74.3259 149.075 74.1792 148.459 73.8859 147.916C73.5926 147.373 73.1966 146.955 72.6979 146.662C72.1992 146.354 71.6272 146.2 70.9819 146.2C70.3219 146.2 69.7426 146.354 69.2439 146.662C68.7452 146.955 68.3566 147.373 68.0779 147.916C67.7992 148.459 67.6599 149.082 67.6599 149.786C67.6599 150.475 67.7919 151.091 68.0559 151.634C68.3346 152.162 68.7232 152.58 69.2219 152.888C69.7352 153.196 70.3146 153.35 70.9599 153.35ZM65.7899 159.378V144.55H67.7699V147.3L67.3959 149.83L67.7699 152.382V159.378H65.7899ZM84.0946 155.22C83.3026 155.22 82.5839 155.059 81.9386 154.736C81.3079 154.399 80.8019 153.937 80.4206 153.35C80.0392 152.763 79.8266 152.096 79.7826 151.348V148.202C79.8266 147.439 80.0392 146.772 80.4206 146.2C80.8166 145.613 81.3299 145.159 81.9606 144.836C82.6059 144.499 83.3172 144.33 84.0946 144.33C85.0479 144.33 85.9059 144.572 86.6686 145.056C87.4459 145.54 88.0546 146.193 88.4946 147.014C88.9346 147.835 89.1546 148.759 89.1546 149.786C89.1546 150.813 88.9346 151.737 88.4946 152.558C88.0546 153.379 87.4459 154.032 86.6686 154.516C85.9059 154.985 85.0479 155.22 84.0946 155.22ZM83.7646 153.35C84.4246 153.35 85.0039 153.196 85.5026 152.888C86.0012 152.58 86.3972 152.162 86.6906 151.634C86.9839 151.091 87.1306 150.468 87.1306 149.764C87.1306 149.075 86.9839 148.459 86.6906 147.916C86.3972 147.373 86.0012 146.955 85.5026 146.662C85.0039 146.354 84.4319 146.2 83.7866 146.2C83.1266 146.2 82.5472 146.354 82.0486 146.662C81.5499 146.955 81.1612 147.373 80.8826 147.916C80.6039 148.459 80.4646 149.082 80.4646 149.786C80.4646 150.475 80.5966 151.091 80.8606 151.634C81.1392 152.162 81.5279 152.58 82.0266 152.888C82.5399 153.196 83.1192 153.35 83.7646 153.35ZM78.5946 159.378V144.55H80.5746V147.3L80.2006 149.83L80.5746 152.382V159.378H78.5946ZM94.4231 155.088L89.8911 144.55H92.0911L95.4571 152.8H94.7531L98.2951 144.55H100.495L95.6111 155.088H94.4231ZM91.4311 159.378L94.5111 153.064L95.6111 155.088L93.6311 159.378H91.4311ZM114.15 155.22C113.05 155.22 112.031 155.022 111.092 154.626C110.153 154.215 109.332 153.651 108.628 152.932C107.939 152.213 107.403 151.377 107.022 150.424C106.641 149.471 106.45 148.451 106.45 147.366C106.45 146.266 106.641 145.239 107.022 144.286C107.403 143.333 107.939 142.504 108.628 141.8C109.332 141.081 110.146 140.524 111.07 140.128C112.009 139.717 113.028 139.512 114.128 139.512C115.331 139.512 116.387 139.717 117.296 140.128C118.205 140.539 119.012 141.096 119.716 141.8L118.286 143.23C117.802 142.687 117.208 142.262 116.504 141.954C115.815 141.646 115.023 141.492 114.128 141.492C113.321 141.492 112.581 141.639 111.906 141.932C111.231 142.211 110.645 142.614 110.146 143.142C109.647 143.67 109.259 144.293 108.98 145.012C108.716 145.731 108.584 146.515 108.584 147.366C108.584 148.217 108.716 149.001 108.98 149.72C109.259 150.439 109.647 151.062 110.146 151.59C110.645 152.118 111.231 152.529 111.906 152.822C112.581 153.101 113.321 153.24 114.128 153.24C115.081 153.24 115.91 153.086 116.614 152.778C117.318 152.455 117.912 152.023 118.396 151.48L119.826 152.888C119.122 153.621 118.293 154.193 117.34 154.604C116.401 155.015 115.338 155.22 114.15 155.22ZM126.216 155.22C125.366 155.22 124.596 155.029 123.907 154.648C123.232 154.252 122.704 153.709 122.323 153.02C121.941 152.331 121.751 151.531 121.751 150.622V144.55H123.731V150.534C123.731 151.106 123.826 151.605 124.017 152.03C124.222 152.441 124.515 152.756 124.897 152.976C125.278 153.196 125.725 153.306 126.239 153.306C127.016 153.306 127.625 153.064 128.065 152.58C128.505 152.081 128.725 151.399 128.725 150.534V144.55H130.705V150.622C130.705 151.531 130.514 152.331 130.133 153.02C129.751 153.709 129.223 154.252 128.549 154.648C127.889 155.029 127.111 155.22 126.216 155.22ZM136.68 155.22C136.094 155.22 135.536 155.147 135.008 155C134.495 154.839 134.018 154.619 133.578 154.34C133.138 154.047 132.757 153.702 132.434 153.306L133.71 152.03C134.092 152.499 134.532 152.851 135.03 153.086C135.529 153.306 136.086 153.416 136.702 153.416C137.318 153.416 137.795 153.313 138.132 153.108C138.47 152.888 138.638 152.587 138.638 152.206C138.638 151.825 138.499 151.531 138.22 151.326C137.956 151.106 137.612 150.93 137.186 150.798C136.761 150.651 136.306 150.512 135.822 150.38C135.353 150.233 134.906 150.05 134.48 149.83C134.055 149.61 133.703 149.309 133.424 148.928C133.16 148.547 133.028 148.041 133.028 147.41C133.028 146.779 133.182 146.237 133.49 145.782C133.798 145.313 134.224 144.953 134.766 144.704C135.324 144.455 135.991 144.33 136.768 144.33C137.59 144.33 138.316 144.477 138.946 144.77C139.592 145.049 140.12 145.474 140.53 146.046L139.254 147.322C138.961 146.941 138.594 146.647 138.154 146.442C137.729 146.237 137.245 146.134 136.702 146.134C136.13 146.134 135.69 146.237 135.382 146.442C135.089 146.633 134.942 146.904 134.942 147.256C134.942 147.608 135.074 147.879 135.338 148.07C135.602 148.261 135.947 148.422 136.372 148.554C136.812 148.686 137.267 148.825 137.736 148.972C138.206 149.104 138.653 149.287 139.078 149.522C139.504 149.757 139.848 150.072 140.112 150.468C140.391 150.864 140.53 151.385 140.53 152.03C140.53 153.013 140.178 153.79 139.474 154.362C138.785 154.934 137.854 155.22 136.68 155.22ZM144.353 155V140.172H146.333V155H144.353ZM141.779 146.354V144.55H148.907V146.354H141.779ZM155.298 155.22C154.272 155.22 153.348 154.978 152.526 154.494C151.705 154.01 151.052 153.357 150.568 152.536C150.084 151.7 149.842 150.769 149.842 149.742C149.842 148.73 150.084 147.821 150.568 147.014C151.052 146.193 151.705 145.54 152.526 145.056C153.348 144.572 154.272 144.33 155.298 144.33C156.31 144.33 157.227 144.572 158.048 145.056C158.884 145.525 159.544 146.171 160.028 146.992C160.512 147.813 160.754 148.73 160.754 149.742C160.754 150.769 160.512 151.7 160.028 152.536C159.544 153.357 158.884 154.01 158.048 154.494C157.227 154.978 156.31 155.22 155.298 155.22ZM155.298 153.306C155.958 153.306 156.545 153.152 157.058 152.844C157.572 152.536 157.975 152.118 158.268 151.59C158.562 151.047 158.708 150.431 158.708 149.742C158.708 149.067 158.554 148.466 158.246 147.938C157.953 147.41 157.55 146.999 157.036 146.706C156.538 146.398 155.958 146.244 155.298 146.244C154.638 146.244 154.052 146.398 153.538 146.706C153.025 146.999 152.622 147.41 152.328 147.938C152.035 148.466 151.888 149.067 151.888 149.742C151.888 150.431 152.035 151.047 152.328 151.59C152.622 152.118 153.025 152.536 153.538 152.844C154.052 153.152 154.638 153.306 155.298 153.306ZM162.985 155V144.55H164.965V155H162.985ZM170.047 155V148.686C170.047 147.909 169.805 147.3 169.321 146.86C168.852 146.405 168.258 146.178 167.539 146.178C167.055 146.178 166.623 146.281 166.241 146.486C165.86 146.691 165.552 146.977 165.317 147.344C165.083 147.711 164.965 148.151 164.965 148.664L164.151 148.268C164.151 147.476 164.32 146.787 164.657 146.2C165.009 145.613 165.486 145.159 166.087 144.836C166.689 144.499 167.363 144.33 168.111 144.33C168.845 144.33 169.505 144.491 170.091 144.814C170.693 145.137 171.162 145.591 171.499 146.178C171.851 146.765 172.027 147.461 172.027 148.268V155H170.047ZM177.109 155V148.686C177.109 147.909 176.867 147.3 176.383 146.86C175.914 146.405 175.327 146.178 174.623 146.178C174.139 146.178 173.699 146.281 173.303 146.486C172.922 146.691 172.614 146.977 172.379 147.344C172.145 147.711 172.027 148.151 172.027 148.664L170.905 148.268C170.949 147.461 171.162 146.772 171.543 146.2C171.939 145.613 172.445 145.159 173.061 144.836C173.677 144.499 174.352 144.33 175.085 144.33C175.848 144.33 176.53 144.491 177.131 144.814C177.733 145.137 178.209 145.591 178.561 146.178C178.928 146.765 179.111 147.469 179.111 148.29V155H177.109ZM186.646 155.22C185.604 155.22 184.666 154.985 183.83 154.516C182.994 154.032 182.334 153.379 181.85 152.558C181.366 151.737 181.124 150.805 181.124 149.764C181.124 148.737 181.358 147.813 181.828 146.992C182.312 146.171 182.957 145.525 183.764 145.056C184.585 144.572 185.502 144.33 186.514 144.33C187.482 144.33 188.332 144.55 189.066 144.99C189.814 145.43 190.393 146.039 190.804 146.816C191.229 147.593 191.442 148.473 191.442 149.456C191.442 149.603 191.434 149.764 191.42 149.94C191.405 150.101 191.376 150.292 191.332 150.512H182.51V148.862H190.276L189.55 149.5C189.55 148.796 189.425 148.202 189.176 147.718C188.926 147.219 188.574 146.838 188.12 146.574C187.665 146.295 187.115 146.156 186.47 146.156C185.795 146.156 185.201 146.303 184.688 146.596C184.174 146.889 183.778 147.3 183.5 147.828C183.221 148.356 183.082 148.979 183.082 149.698C183.082 150.431 183.228 151.077 183.522 151.634C183.815 152.177 184.233 152.602 184.776 152.91C185.318 153.203 185.942 153.35 186.646 153.35C187.232 153.35 187.768 153.247 188.252 153.042C188.75 152.837 189.176 152.529 189.528 152.118L190.804 153.416C190.305 154.003 189.689 154.45 188.956 154.758C188.237 155.066 187.467 155.22 186.646 155.22ZM193.6 155V144.55H195.58V155H193.6ZM195.58 149.038L194.832 148.708C194.832 147.373 195.14 146.31 195.756 145.518C196.372 144.726 197.26 144.33 198.418 144.33C198.946 144.33 199.423 144.425 199.848 144.616C200.274 144.792 200.67 145.093 201.036 145.518L199.738 146.86C199.518 146.625 199.276 146.457 199.012 146.354C198.748 146.251 198.44 146.2 198.088 146.2C197.355 146.2 196.754 146.435 196.284 146.904C195.815 147.373 195.58 148.085 195.58 149.038ZM205.516 155.22C204.93 155.22 204.372 155.147 203.844 155C203.331 154.839 202.854 154.619 202.414 154.34C201.974 154.047 201.593 153.702 201.27 153.306L202.546 152.03C202.928 152.499 203.368 152.851 203.866 153.086C204.365 153.306 204.922 153.416 205.538 153.416C206.154 153.416 206.631 153.313 206.968 153.108C207.306 152.888 207.474 152.587 207.474 152.206C207.474 151.825 207.335 151.531 207.056 151.326C206.792 151.106 206.448 150.93 206.022 150.798C205.597 150.651 205.142 150.512 204.658 150.38C204.189 150.233 203.742 150.05 203.316 149.83C202.891 149.61 202.539 149.309 202.26 148.928C201.996 148.547 201.864 148.041 201.864 147.41C201.864 146.779 202.018 146.237 202.326 145.782C202.634 145.313 203.06 144.953 203.602 144.704C204.16 144.455 204.827 144.33 205.604 144.33C206.426 144.33 207.152 144.477 207.782 144.77C208.428 145.049 208.956 145.474 209.366 146.046L208.09 147.322C207.797 146.941 207.43 146.647 206.99 146.442C206.565 146.237 206.081 146.134 205.538 146.134C204.966 146.134 204.526 146.237 204.218 146.442C203.925 146.633 203.778 146.904 203.778 147.256C203.778 147.608 203.91 147.879 204.174 148.07C204.438 148.261 204.783 148.422 205.208 148.554C205.648 148.686 206.103 148.825 206.572 148.972C207.042 149.104 207.489 149.287 207.914 149.522C208.34 149.757 208.684 150.072 208.948 150.468C209.227 150.864 209.366 151.385 209.366 152.03C209.366 153.013 209.014 153.79 208.31 154.362C207.621 154.934 206.69 155.22 205.516 155.22Z" fill="#AAAAAA"/>
<g opacity="0.5" filter="url(#filter0_fn_930_15305)">
<path d="M441.579 184.482L200.405 155.405C207.526 240.545 346.701 203.978 379.578 261.289C415.937 324.67 410.373 423.31 409.633 449.449L441.579 184.482Z" fill="#4C8C74"/>
</g>
</g>
<defs>
<filter id="filter0_fn_930_15305" x="93.8048" y="48.8048" width="454.374" height="507.244" filterUnits="userSpaceOnUse" color-interpolation-filters="sRGB">
<feFlood flood-opacity="0" result="BackgroundImageFix"/>
<feBlend mode="normal" in="SourceGraphic" in2="BackgroundImageFix" result="shape"/>
<feGaussianBlur stdDeviation="53.3" result="effect1_foregroundBlur_930_15305"/>
<feTurbulence type="fractalNoise" baseFrequency="2 2" stitchTiles="stitch" numOctaves="3" result="noise" seed="9306" />
<feColorMatrix in="noise" type="luminanceToAlpha" result="alphaNoise" />
<feComponentTransfer in="alphaNoise" result="coloredNoise1">
<feFuncA type="discrete" tableValues="1 1 1 1 1 1 1 1 1 1 1 1 1 1 1 1 1 1 1 1 1 1 1 1 1 1 1 1 1 1 1 1 1 1 1 1 1 1 1 1 1 1 1 1 1 1 1 1 1 1 1 0 0 0 0 0 0 0 0 0 0 0 0 0 0 0 0 0 0 0 0 0 0 0 0 0 0 0 0 0 0 0 0 0 0 0 0 0 0 0 0 0 0 0 0 0 0 0 0 0 "/>
</feComponentTransfer>
<feComposite operator="in" in2="effect1_foregroundBlur_930_15305" in="coloredNoise1" result="noise1Clipped" />
<feFlood flood-color="rgba(0, 0, 0, 0.25)" result="color1Flood" />
<feComposite operator="in" in2="noise1Clipped" in="color1Flood" result="color1" />
<feMerge result="effect2_noise_930_15305">
<feMergeNode in="effect1_foregroundBlur_930_15305" />
<feMergeNode in="color1" />
</feMerge>
</filter>
<clipPath id="clip0_930_15305">
<rect width="401" height="193" rx="20" fill="white"/>
</clipPath>
</defs>
</svg>
