<svg width="401" height="193" viewBox="0 0 401 193" fill="none" xmlns="http://www.w3.org/2000/svg">
<g clip-path="url(#clip0_930_15301)">
<rect width="401" height="193" rx="20" fill="#1F1F1F"/>
<path d="M58.2629 110.898C54.0138 110.898 50.2135 110.15 46.8621 108.653C43.5706 107.097 40.7877 104.853 38.5136 101.921L44.2588 96.1755C45.6353 98.2701 47.5204 99.9458 49.9143 101.203C52.368 102.399 55.091 102.998 58.0834 102.998C60.8961 102.998 63.3498 102.459 65.4445 101.382C67.5989 100.305 69.2746 98.8087 70.4716 96.8936C71.7284 94.9187 72.3567 92.5847 72.3567 89.8916C72.3567 87.1386 71.7583 84.8046 70.5613 82.8895C69.3644 80.9745 67.7486 79.5381 65.7138 78.5806C63.7388 77.5632 61.5544 77.0545 59.1606 77.0545C56.7069 77.0545 54.4626 77.3537 52.4279 77.9522C50.4529 78.5507 48.5678 79.5681 46.7724 81.0044L46.8621 75.6182C47.8795 74.3614 49.0465 73.344 50.3632 72.566C51.6798 71.788 53.1759 71.1896 54.8516 70.7706C56.5273 70.3517 58.4724 70.1422 60.6867 70.1422C64.9956 70.1422 68.6463 71.0399 71.6386 72.8353C74.6309 74.6307 76.9051 77.0545 78.4611 80.1067C80.0769 83.1589 80.8849 86.5701 80.8849 90.3404C80.8849 94.2903 79.8974 97.8212 77.9225 100.933C76.0074 104.045 73.3442 106.499 69.933 108.294C66.5217 110.03 62.6317 110.898 58.2629 110.898ZM46.7724 81.0044L42.1941 76.4261L44.977 47.6998H52.6972L49.5552 77.2341L46.7724 81.0044ZM46.6826 55.2405L44.977 47.6998H77.7429V55.2405H46.6826ZM130.439 110L99.0197 77.5034L129.811 47.6998H140.763L107.548 79.6578V74.9898L141.66 110H130.439ZM91.9279 110V47.6998H100.366V110H91.9279Z" fill="white"/>
<path d="M39.19 149.06V147.256H43.348C43.92 147.256 44.426 147.139 44.866 146.904C45.3207 146.669 45.6727 146.339 45.922 145.914C46.186 145.489 46.318 144.983 46.318 144.396C46.318 143.809 46.186 143.303 45.922 142.878C45.6727 142.453 45.3207 142.123 44.866 141.888C44.426 141.653 43.92 141.536 43.348 141.536H39.19V139.732H43.48C44.4187 139.732 45.2547 139.923 45.988 140.304C46.736 140.685 47.3227 141.228 47.748 141.932C48.188 142.621 48.408 143.443 48.408 144.396C48.408 145.335 48.188 146.156 47.748 146.86C47.3227 147.549 46.736 148.092 45.988 148.488C45.2547 148.869 44.4187 149.06 43.48 149.06H39.19ZM37.804 155V139.732H39.872V155H37.804ZM50.7938 155V144.55H52.7738V155H50.7938ZM52.7738 149.038L52.0258 148.708C52.0258 147.373 52.3338 146.31 52.9498 145.518C53.5658 144.726 54.4531 144.33 55.6118 144.33C56.1398 144.33 56.6165 144.425 57.0418 144.616C57.4671 144.792 57.8631 145.093 58.2298 145.518L56.9318 146.86C56.7118 146.625 56.4698 146.457 56.2058 146.354C55.9418 146.251 55.6338 146.2 55.2818 146.2C54.5485 146.2 53.9471 146.435 53.4778 146.904C53.0085 147.373 52.7738 148.085 52.7738 149.038ZM64.0541 155.22C63.0275 155.22 62.1035 154.978 61.2821 154.494C60.4608 154.01 59.8081 153.357 59.3241 152.536C58.8401 151.7 58.5981 150.769 58.5981 149.742C58.5981 148.73 58.8401 147.821 59.3241 147.014C59.8081 146.193 60.4608 145.54 61.2821 145.056C62.1035 144.572 63.0275 144.33 64.0541 144.33C65.0661 144.33 65.9828 144.572 66.8041 145.056C67.6401 145.525 68.3001 146.171 68.7841 146.992C69.2681 147.813 69.5101 148.73 69.5101 149.742C69.5101 150.769 69.2681 151.7 68.7841 152.536C68.3001 153.357 67.6401 154.01 66.8041 154.494C65.9828 154.978 65.0661 155.22 64.0541 155.22ZM64.0541 153.306C64.7141 153.306 65.3008 153.152 65.8141 152.844C66.3275 152.536 66.7308 152.118 67.0241 151.59C67.3175 151.047 67.4641 150.431 67.4641 149.742C67.4641 149.067 67.3101 148.466 67.0021 147.938C66.7088 147.41 66.3055 146.999 65.7921 146.706C65.2935 146.398 64.7141 146.244 64.0541 146.244C63.3941 146.244 62.8075 146.398 62.2941 146.706C61.7808 146.999 61.3775 147.41 61.0841 147.938C60.7908 148.466 60.6441 149.067 60.6441 149.742C60.6441 150.431 60.7908 151.047 61.0841 151.59C61.3775 152.118 61.7808 152.536 62.2941 152.844C62.8075 153.152 63.3941 153.306 64.0541 153.306ZM70.4211 159.598C69.7464 159.598 69.1817 159.488 68.7271 159.268C68.2577 159.048 67.8397 158.733 67.4731 158.322L68.7491 157.024C68.9544 157.273 69.1817 157.457 69.4311 157.574C69.6657 157.691 69.9517 157.75 70.2891 157.75C70.7291 157.75 71.1104 157.611 71.4331 157.332C71.7557 157.068 71.9171 156.665 71.9171 156.122V144.55H73.8971V156.1C73.8971 156.863 73.7357 157.501 73.4131 158.014C73.0904 158.527 72.6651 158.916 72.1371 159.18C71.6091 159.459 71.0371 159.598 70.4211 159.598ZM72.9291 142.46C72.5771 142.46 72.2837 142.343 72.0491 142.108C71.8144 141.859 71.6971 141.551 71.6971 141.184C71.6971 140.832 71.8144 140.539 72.0491 140.304C72.2837 140.055 72.5771 139.93 72.9291 139.93C73.2957 139.93 73.5964 140.055 73.8311 140.304C74.0657 140.539 74.1831 140.832 74.1831 141.184C74.1831 141.551 74.0657 141.859 73.8311 142.108C73.5964 142.343 73.2957 142.46 72.9291 142.46ZM81.6514 155.22C80.61 155.22 79.6714 154.985 78.8354 154.516C77.9994 154.032 77.3394 153.379 76.8554 152.558C76.3714 151.737 76.1294 150.805 76.1294 149.764C76.1294 148.737 76.364 147.813 76.8334 146.992C77.3174 146.171 77.9627 145.525 78.7694 145.056C79.5907 144.572 80.5074 144.33 81.5194 144.33C82.4874 144.33 83.338 144.55 84.0714 144.99C84.8194 145.43 85.3987 146.039 85.8094 146.816C86.2347 147.593 86.4474 148.473 86.4474 149.456C86.4474 149.603 86.44 149.764 86.4254 149.94C86.4107 150.101 86.3814 150.292 86.3374 150.512H77.5154V148.862H85.2814L84.5554 149.5C84.5554 148.796 84.4307 148.202 84.1814 147.718C83.932 147.219 83.58 146.838 83.1254 146.574C82.6707 146.295 82.1207 146.156 81.4754 146.156C80.8007 146.156 80.2067 146.303 79.6934 146.596C79.18 146.889 78.784 147.3 78.5054 147.828C78.2267 148.356 78.0874 148.979 78.0874 149.698C78.0874 150.431 78.234 151.077 78.5274 151.634C78.8207 152.177 79.2387 152.602 79.7814 152.91C80.324 153.203 80.9474 153.35 81.6514 153.35C82.238 153.35 82.7734 153.247 83.2574 153.042C83.756 152.837 84.1814 152.529 84.5334 152.118L85.8094 153.416C85.3107 154.003 84.6947 154.45 83.9614 154.758C83.2427 155.066 82.4727 155.22 81.6514 155.22ZM93.3803 155.22C92.3536 155.22 91.4223 154.978 90.5863 154.494C89.765 154.01 89.1123 153.357 88.6283 152.536C88.159 151.7 87.9243 150.776 87.9243 149.764C87.9243 148.737 88.159 147.813 88.6283 146.992C89.1123 146.171 89.765 145.525 90.5863 145.056C91.4223 144.572 92.3536 144.33 93.3803 144.33C94.187 144.33 94.935 144.484 95.6243 144.792C96.3136 145.085 96.9076 145.518 97.4063 146.09L96.0863 147.41C95.7636 147.029 95.3676 146.743 94.8983 146.552C94.4436 146.347 93.9376 146.244 93.3803 146.244C92.7203 146.244 92.1336 146.398 91.6203 146.706C91.107 146.999 90.7036 147.41 90.4103 147.938C90.117 148.466 89.9703 149.075 89.9703 149.764C89.9703 150.453 90.117 151.062 90.4103 151.59C90.7036 152.118 91.107 152.536 91.6203 152.844C92.1336 153.152 92.7203 153.306 93.3803 153.306C93.9376 153.306 94.4436 153.211 94.8983 153.02C95.3676 152.815 95.771 152.521 96.1083 152.14L97.4063 153.46C96.9223 154.017 96.3283 154.45 95.6243 154.758C94.935 155.066 94.187 155.22 93.3803 155.22ZM100.847 155V140.172H102.827V155H100.847ZM98.2731 146.354V144.55H105.401V146.354H98.2731ZM110.448 155.22C109.861 155.22 109.304 155.147 108.776 155C108.262 154.839 107.786 154.619 107.346 154.34C106.906 154.047 106.524 153.702 106.202 153.306L107.478 152.03C107.859 152.499 108.299 152.851 108.798 153.086C109.296 153.306 109.854 153.416 110.47 153.416C111.086 153.416 111.562 153.313 111.9 153.108C112.237 152.888 112.406 152.587 112.406 152.206C112.406 151.825 112.266 151.531 111.988 151.326C111.724 151.106 111.379 150.93 110.954 150.798C110.528 150.651 110.074 150.512 109.59 150.38C109.12 150.233 108.673 150.05 108.248 149.83C107.822 149.61 107.47 149.309 107.192 148.928C106.928 148.547 106.796 148.041 106.796 147.41C106.796 146.779 106.95 146.237 107.258 145.782C107.566 145.313 107.991 144.953 108.534 144.704C109.091 144.455 109.758 144.33 110.536 144.33C111.357 144.33 112.083 144.477 112.714 144.77C113.359 145.049 113.887 145.474 114.298 146.046L113.022 147.322C112.728 146.941 112.362 146.647 111.922 146.442C111.496 146.237 111.012 146.134 110.47 146.134C109.898 146.134 109.458 146.237 109.15 146.442C108.856 146.633 108.71 146.904 108.71 147.256C108.71 147.608 108.842 147.879 109.106 148.07C109.37 148.261 109.714 148.422 110.14 148.554C110.58 148.686 111.034 148.825 111.504 148.972C111.973 149.104 112.42 149.287 112.846 149.522C113.271 149.757 113.616 150.072 113.88 150.468C114.158 150.864 114.298 151.385 114.298 152.03C114.298 153.013 113.946 153.79 113.242 154.362C112.552 154.934 111.621 155.22 110.448 155.22ZM128.373 155.22C127.273 155.22 126.253 155.022 125.315 154.626C124.376 154.215 123.555 153.651 122.851 152.932C122.161 152.213 121.626 151.377 121.245 150.424C120.863 149.471 120.673 148.451 120.673 147.366C120.673 146.266 120.863 145.239 121.245 144.286C121.626 143.333 122.161 142.504 122.851 141.8C123.555 141.081 124.369 140.524 125.293 140.128C126.231 139.717 127.251 139.512 128.351 139.512C129.553 139.512 130.609 139.717 131.519 140.128C132.428 140.539 133.235 141.096 133.939 141.8L132.509 143.23C132.025 142.687 131.431 142.262 130.727 141.954C130.037 141.646 129.245 141.492 128.351 141.492C127.544 141.492 126.803 141.639 126.129 141.932C125.454 142.211 124.867 142.614 124.369 143.142C123.87 143.67 123.481 144.293 123.203 145.012C122.939 145.731 122.807 146.515 122.807 147.366C122.807 148.217 122.939 149.001 123.203 149.72C123.481 150.439 123.87 151.062 124.369 151.59C124.867 152.118 125.454 152.529 126.129 152.822C126.803 153.101 127.544 153.24 128.351 153.24C129.304 153.24 130.133 153.086 130.837 152.778C131.541 152.455 132.135 152.023 132.619 151.48L134.049 152.888C133.345 153.621 132.516 154.193 131.563 154.604C130.624 155.015 129.561 155.22 128.373 155.22ZM140.646 155.22C139.619 155.22 138.695 154.978 137.874 154.494C137.053 154.01 136.4 153.357 135.916 152.536C135.432 151.7 135.19 150.769 135.19 149.742C135.19 148.73 135.432 147.821 135.916 147.014C136.4 146.193 137.053 145.54 137.874 145.056C138.695 144.572 139.619 144.33 140.646 144.33C141.658 144.33 142.575 144.572 143.396 145.056C144.232 145.525 144.892 146.171 145.376 146.992C145.86 147.813 146.102 148.73 146.102 149.742C146.102 150.769 145.86 151.7 145.376 152.536C144.892 153.357 144.232 154.01 143.396 154.494C142.575 154.978 141.658 155.22 140.646 155.22ZM140.646 153.306C141.306 153.306 141.893 153.152 142.406 152.844C142.919 152.536 143.323 152.118 143.616 151.59C143.909 151.047 144.056 150.431 144.056 149.742C144.056 149.067 143.902 148.466 143.594 147.938C143.301 147.41 142.897 146.999 142.384 146.706C141.885 146.398 141.306 146.244 140.646 146.244C139.986 146.244 139.399 146.398 138.886 146.706C138.373 146.999 137.969 147.41 137.676 147.938C137.383 148.466 137.236 149.067 137.236 149.742C137.236 150.431 137.383 151.047 137.676 151.59C137.969 152.118 138.373 152.536 138.886 152.844C139.399 153.152 139.986 153.306 140.646 153.306ZM148.333 155V144.55H150.313V155H148.333ZM155.395 155V148.686C155.395 147.909 155.153 147.3 154.669 146.86C154.2 146.405 153.606 146.178 152.887 146.178C152.403 146.178 151.97 146.281 151.589 146.486C151.208 146.691 150.9 146.977 150.665 147.344C150.43 147.711 150.313 148.151 150.313 148.664L149.499 148.268C149.499 147.476 149.668 146.787 150.005 146.2C150.357 145.613 150.834 145.159 151.435 144.836C152.036 144.499 152.711 144.33 153.459 144.33C154.192 144.33 154.852 144.491 155.439 144.814C156.04 145.137 156.51 145.591 156.847 146.178C157.199 146.765 157.375 147.461 157.375 148.268V155H155.395ZM162.457 155V148.686C162.457 147.909 162.215 147.3 161.731 146.86C161.262 146.405 160.675 146.178 159.971 146.178C159.487 146.178 159.047 146.281 158.651 146.486C158.27 146.691 157.962 146.977 157.727 147.344C157.492 147.711 157.375 148.151 157.375 148.664L156.253 148.268C156.297 147.461 156.51 146.772 156.891 146.2C157.287 145.613 157.793 145.159 158.409 144.836C159.025 144.499 159.7 144.33 160.433 144.33C161.196 144.33 161.878 144.491 162.479 144.814C163.08 145.137 163.557 145.591 163.909 146.178C164.276 146.765 164.459 147.469 164.459 148.29V155H162.457ZM172.653 155.22C171.861 155.22 171.143 155.059 170.497 154.736C169.867 154.399 169.361 153.937 168.979 153.35C168.598 152.763 168.385 152.096 168.341 151.348V148.202C168.385 147.439 168.598 146.772 168.979 146.2C169.375 145.613 169.889 145.159 170.519 144.836C171.165 144.499 171.876 144.33 172.653 144.33C173.607 144.33 174.465 144.572 175.227 145.056C176.005 145.54 176.613 146.193 177.053 147.014C177.493 147.835 177.713 148.759 177.713 149.786C177.713 150.813 177.493 151.737 177.053 152.558C176.613 153.379 176.005 154.032 175.227 154.516C174.465 154.985 173.607 155.22 172.653 155.22ZM172.323 153.35C172.983 153.35 173.563 153.196 174.061 152.888C174.56 152.58 174.956 152.162 175.249 151.634C175.543 151.091 175.689 150.468 175.689 149.764C175.689 149.075 175.543 148.459 175.249 147.916C174.956 147.373 174.56 146.955 174.061 146.662C173.563 146.354 172.991 146.2 172.345 146.2C171.685 146.2 171.106 146.354 170.607 146.662C170.109 146.955 169.72 147.373 169.441 147.916C169.163 148.459 169.023 149.082 169.023 149.786C169.023 150.475 169.155 151.091 169.419 151.634C169.698 152.162 170.087 152.58 170.585 152.888C171.099 153.196 171.678 153.35 172.323 153.35ZM167.153 159.378V144.55H169.133V147.3L168.759 149.83L169.133 152.382V159.378H167.153ZM179.958 155V139.292H181.938V155H179.958ZM189.675 155.22C188.633 155.22 187.695 154.985 186.859 154.516C186.023 154.032 185.363 153.379 184.879 152.558C184.395 151.737 184.153 150.805 184.153 149.764C184.153 148.737 184.387 147.813 184.857 146.992C185.341 146.171 185.986 145.525 186.793 145.056C187.614 144.572 188.531 144.33 189.543 144.33C190.511 144.33 191.361 144.55 192.095 144.99C192.843 145.43 193.422 146.039 193.833 146.816C194.258 147.593 194.471 148.473 194.471 149.456C194.471 149.603 194.463 149.764 194.449 149.94C194.434 150.101 194.405 150.292 194.361 150.512H185.539V148.862H193.305L192.579 149.5C192.579 148.796 192.454 148.202 192.205 147.718C191.955 147.219 191.603 146.838 191.149 146.574C190.694 146.295 190.144 146.156 189.499 146.156C188.824 146.156 188.23 146.303 187.717 146.596C187.203 146.889 186.807 147.3 186.529 147.828C186.25 148.356 186.111 148.979 186.111 149.698C186.111 150.431 186.257 151.077 186.551 151.634C186.844 152.177 187.262 152.602 187.805 152.91C188.347 153.203 188.971 153.35 189.675 153.35C190.261 153.35 190.797 153.247 191.281 153.042C191.779 152.837 192.205 152.529 192.557 152.118L193.833 153.416C193.334 154.003 192.718 154.45 191.985 154.758C191.266 155.066 190.496 155.22 189.675 155.22ZM197.913 155V140.172H199.893V155H197.913ZM195.339 146.354V144.55H202.467V146.354H195.339ZM208.925 155.22C207.883 155.22 206.945 154.985 206.109 154.516C205.273 154.032 204.613 153.379 204.129 152.558C203.645 151.737 203.403 150.805 203.403 149.764C203.403 148.737 203.637 147.813 204.107 146.992C204.591 146.171 205.236 145.525 206.043 145.056C206.864 144.572 207.781 144.33 208.793 144.33C209.761 144.33 210.611 144.55 211.345 144.99C212.093 145.43 212.672 146.039 213.083 146.816C213.508 147.593 213.721 148.473 213.721 149.456C213.721 149.603 213.713 149.764 213.699 149.94C213.684 150.101 213.655 150.292 213.611 150.512H204.789V148.862H212.555L211.829 149.5C211.829 148.796 211.704 148.202 211.455 147.718C211.205 147.219 210.853 146.838 210.399 146.574C209.944 146.295 209.394 146.156 208.749 146.156C208.074 146.156 207.48 146.303 206.967 146.596C206.453 146.889 206.057 147.3 205.779 147.828C205.5 148.356 205.361 148.979 205.361 149.698C205.361 150.431 205.507 151.077 205.801 151.634C206.094 152.177 206.512 152.602 207.055 152.91C207.597 153.203 208.221 153.35 208.925 153.35C209.511 153.35 210.047 153.247 210.531 153.042C211.029 152.837 211.455 152.529 211.807 152.118L213.083 153.416C212.584 154.003 211.968 154.45 211.235 154.758C210.516 155.066 209.746 155.22 208.925 155.22ZM220.302 155.22C219.334 155.22 218.468 154.985 217.706 154.516C216.943 154.032 216.334 153.379 215.88 152.558C215.44 151.737 215.22 150.813 215.22 149.786C215.22 148.759 215.44 147.835 215.88 147.014C216.334 146.193 216.943 145.54 217.706 145.056C218.468 144.572 219.334 144.33 220.302 144.33C221.079 144.33 221.783 144.499 222.414 144.836C223.044 145.159 223.55 145.613 223.932 146.2C224.328 146.772 224.548 147.439 224.592 148.202V151.348C224.548 152.096 224.335 152.763 223.954 153.35C223.572 153.937 223.066 154.399 222.436 154.736C221.805 155.059 221.094 155.22 220.302 155.22ZM220.632 153.35C221.292 153.35 221.864 153.196 222.348 152.888C222.846 152.58 223.235 152.162 223.514 151.634C223.792 151.091 223.932 150.475 223.932 149.786C223.932 149.067 223.785 148.444 223.492 147.916C223.213 147.388 222.824 146.97 222.326 146.662C221.842 146.354 221.27 146.2 220.61 146.2C219.95 146.2 219.37 146.354 218.872 146.662C218.373 146.97 217.977 147.395 217.684 147.938C217.405 148.466 217.266 149.075 217.266 149.764C217.266 150.468 217.405 151.091 217.684 151.634C217.977 152.162 218.373 152.58 218.872 152.888C219.385 153.196 219.972 153.35 220.632 153.35ZM225.802 155H223.8V152.184L224.174 149.632L223.8 147.102V139.292H225.802V155Z" fill="#AAAAAA"/>
<g opacity="0.5" filter="url(#filter0_fn_930_15301)">
<path d="M441.579 184.482L200.405 155.405C207.526 240.545 346.701 203.978 379.578 261.289C415.937 324.67 410.373 423.31 409.633 449.449L441.579 184.482Z" fill="#4C8C74"/>
</g>
</g>
<defs>
<filter id="filter0_fn_930_15301" x="93.8048" y="48.8048" width="454.374" height="507.244" filterUnits="userSpaceOnUse" color-interpolation-filters="sRGB">
<feFlood flood-opacity="0" result="BackgroundImageFix"/>
<feBlend mode="normal" in="SourceGraphic" in2="BackgroundImageFix" result="shape"/>
<feGaussianBlur stdDeviation="53.3" result="effect1_foregroundBlur_930_15301"/>
<feTurbulence type="fractalNoise" baseFrequency="2 2" stitchTiles="stitch" numOctaves="3" result="noise" seed="9306" />
<feColorMatrix in="noise" type="luminanceToAlpha" result="alphaNoise" />
<feComponentTransfer in="alphaNoise" result="coloredNoise1">
<feFuncA type="discrete" tableValues="1 1 1 1 1 1 1 1 1 1 1 1 1 1 1 1 1 1 1 1 1 1 1 1 1 1 1 1 1 1 1 1 1 1 1 1 1 1 1 1 1 1 1 1 1 1 1 1 1 1 1 0 0 0 0 0 0 0 0 0 0 0 0 0 0 0 0 0 0 0 0 0 0 0 0 0 0 0 0 0 0 0 0 0 0 0 0 0 0 0 0 0 0 0 0 0 0 0 0 0 "/>
</feComponentTransfer>
<feComposite operator="in" in2="effect1_foregroundBlur_930_15301" in="coloredNoise1" result="noise1Clipped" />
<feFlood flood-color="rgba(0, 0, 0, 0.25)" result="color1Flood" />
<feComposite operator="in" in2="noise1Clipped" in="color1Flood" result="color1" />
<feMerge result="effect2_noise_930_15301">
<feMergeNode in="effect1_foregroundBlur_930_15301" />
<feMergeNode in="color1" />
</feMerge>
</filter>
<clipPath id="clip0_930_15301">
<rect width="401" height="193" rx="20" fill="white"/>
</clipPath>
</defs>
</svg>
