<svg width="1921" height="716" viewBox="0 0 1921 716" fill="none" xmlns="http://www.w3.org/2000/svg">
<g clip-path="url(#clip0_951_15800)">
<rect width="1920.19" height="715.668" fill="#F5F5F5"/>
<path d="M523.622 143.27L-389.688 715.668M569.567 143.27L-207.766 715.668M615.511 143.27L-42.302 715.668M661.456 143.27L110.805 715.668M707.401 143.27L254.558 715.668M753.345 143.27L391.236 715.668M799.29 143.27L522.628 715.668M845.234 143.27L650.188 715.668M891.178 143.27L775.153 715.668M937.123 143.27L898.612 715.668M983.068 143.27L1021.58 715.668M1029.01 143.27L1145.04 715.668M1074.96 143.27L1270 715.668M1120.9 143.27L1397.56 715.668M1166.85 143.27L1528.95 715.668M1212.79 143.27L1665.63 715.668M1258.73 143.27L1809.39 715.668M1304.68 143.27L1962.49 715.668M1350.62 143.27L2127.96 715.668M1396.57 143.27L2309.88 715.668M477.676 143.27H1442.51M477.675 143.271H1442.52M477.671 143.273H1442.52M477.665 143.276H1442.53M477.656 143.281H1442.53M477.642 143.289H1442.55M477.621 143.3H1442.57M477.591 143.316H1442.6M477.548 143.339H1442.64M477.489 143.371H1442.7M477.409 143.413H1442.78M477.304 143.469H1442.89M477.166 143.543H1443.03M476.988 143.638H1443.2M476.763 143.758H1443.43M476.479 143.91H1443.71M476.126 144.098H1444.06M475.692 144.33H1444.5M475.162 144.614H1445.03M474.519 144.957H1445.67M473.746 145.37H1446.44M472.822 145.863H1447.37M471.726 146.449H1448.46M470.433 147.139H1449.76M468.916 147.95H1451.27M467.144 148.896H1453.05M465.086 149.996H1455.1M462.705 151.267H1457.49M459.964 152.732H1460.23M456.82 154.411H1463.37M453.227 156.33H1466.96M449.137 158.515H1471.05M444.497 160.994H1475.69M439.248 163.798H1480.94M433.331 166.959H1486.86M426.679 170.512H1493.51M419.221 174.496H1500.97M410.883 178.95H1509.31M401.584 183.917H1518.61M391.238 189.443H1528.95M379.755 195.577H1540.44M367.037 202.371H1553.15M352.981 209.879H1567.21M337.479 218.16H1582.71M320.416 227.275H1599.77M301.668 237.289H1618.52M281.108 248.272H1639.08M258.599 260.296H1661.59M233.997 273.437H1686.19M207.153 287.777H1713.04M177.906 303.4H1742.28M146.089 320.396H1774.1M111.528 338.857H1808.66M74.0377 358.884H1846.15M33.4251 380.578H1886.77M-10.5121 404.048H1930.7M-57.9859 429.407H1978.18M-109.218 456.774H2029.41M-164.44 486.272H2084.63M-223.894 518.031H2144.08M-287.832 552.185H2208.02M-356.519 588.876H2276.71M-430.23 628.251H2350.42M-509.251 670.461H2429.44M477.678 143.27L-593.88 715.668H2514.07L1442.51 143.27H477.678Z" stroke="url(#paint0_linear_951_15800)"/>
<g opacity="0.1">
<path d="M356.031 242.59H348.802C348.351 242.59 347.985 242.955 347.985 243.406V245.554C347.985 246.005 348.351 246.371 348.802 246.371H356.031C356.482 246.371 356.848 246.005 356.848 245.554V243.406C356.848 242.955 356.482 242.59 356.031 242.59Z" fill="#2E2C22"/>
<path d="M344.718 242.906H335.283C334.832 242.906 334.467 243.272 334.467 243.723V245.235C334.467 245.686 334.832 246.052 335.283 246.052H344.718C345.168 246.052 345.534 245.686 345.534 245.235V243.723C345.534 243.272 345.168 242.906 344.718 242.906Z" fill="#2E2C22"/>
<path d="M331.428 242.906H327.15C326.699 242.906 326.333 243.272 326.333 243.723V245.235C326.333 245.686 326.699 246.052 327.15 246.052H331.428C331.879 246.052 332.245 245.686 332.245 245.235V243.723C332.245 243.272 331.879 242.906 331.428 242.906Z" fill="#4C8C73"/>
<path d="M323.257 242.906H321.581C321.13 242.906 320.765 243.272 320.765 243.723V245.235C320.765 245.686 321.13 246.052 321.581 246.052H323.257C323.708 246.052 324.074 245.686 324.074 245.235V243.723C324.074 243.272 323.708 242.906 323.257 242.906Z" fill="#4C8C73"/>
<path d="M347.339 237.527H337.734C337.283 237.527 336.918 237.893 336.918 238.344V239.856C336.918 240.307 337.283 240.673 337.734 240.673H347.339C347.79 240.673 348.155 240.307 348.155 239.856V238.344C348.155 237.893 347.79 237.527 347.339 237.527Z" fill="#2E2C22"/>
<path d="M333.397 237.527H323.792C323.342 237.527 322.976 237.893 322.976 238.344V239.856C322.976 240.307 323.342 240.673 323.792 240.673H333.397C333.848 240.673 334.214 240.307 334.214 239.856V238.344C334.214 237.893 333.848 237.527 333.397 237.527Z" fill="#4C8C73"/>
<path d="M336.964 247.939H324.362C323.911 247.939 323.546 248.305 323.546 248.756V250.269C323.546 250.719 323.911 251.085 324.362 251.085H336.964C337.415 251.085 337.78 250.719 337.78 250.269V248.756C337.78 248.305 337.415 247.939 336.964 247.939Z" fill="#4C8C73"/>
<path d="M323.26 242.906H321.747C321.296 242.906 320.931 243.272 320.931 243.723V245.235C320.931 245.686 321.296 246.052 321.747 246.052H323.26C323.711 246.052 324.076 245.686 324.076 245.235V243.723C324.076 243.272 323.711 242.906 323.26 242.906Z" fill="#4C8C73"/>
<path d="M349.919 232.391H339.47C339.019 232.391 338.653 232.756 338.653 233.207V234.72C338.653 235.171 339.019 235.536 339.47 235.536H349.919C350.37 235.536 350.736 235.171 350.736 234.72V233.207C350.736 232.756 350.37 232.391 349.919 232.391Z" fill="#2E2C22"/>
<path d="M335.556 232.391H331.694C331.243 232.391 330.878 232.756 330.878 233.207V234.72C330.878 235.171 331.243 235.536 331.694 235.536H335.556C336.007 235.536 336.372 235.171 336.372 234.72V233.207C336.372 232.756 336.007 232.391 335.556 232.391Z" fill="#4C8C73"/>
<path d="M337.636 227.258H326.665C326.214 227.258 325.849 227.623 325.849 228.074V229.587C325.849 230.038 326.214 230.403 326.665 230.403H337.636C338.087 230.403 338.453 230.038 338.453 229.587V228.074C338.453 227.623 338.087 227.258 337.636 227.258Z" fill="#4C8C73"/>
<path d="M345.49 221.863H335.283C334.832 221.863 334.467 222.229 334.467 222.68V224.192C334.467 224.643 334.832 225.009 335.283 225.009H345.49C345.941 225.009 346.307 224.643 346.307 224.192V222.68C346.307 222.229 345.941 221.863 345.49 221.863Z" fill="#4C8C73"/>
<path d="M331.376 221.863H329.863C329.412 221.863 329.046 222.229 329.046 222.68V224.192C329.046 224.643 329.412 225.009 329.863 225.009H331.376C331.826 225.009 332.192 224.643 332.192 224.192V222.68C332.192 222.229 331.826 221.863 331.376 221.863Z" fill="#4C8C73"/>
<path d="M343.246 227.258H341.733C341.283 227.258 340.917 227.623 340.917 228.074V229.587C340.917 230.038 341.283 230.403 341.733 230.403H343.246C343.697 230.403 344.063 230.038 344.063 229.587V228.074C344.063 227.623 343.697 227.258 343.246 227.258Z" fill="#4C8C73"/>
<path d="M327.78 232.391H323.919C323.468 232.391 323.103 232.756 323.103 233.207V234.72C323.103 235.171 323.468 235.536 323.919 235.536H327.78C328.231 235.536 328.597 235.171 328.597 234.72V233.207C328.597 232.756 328.231 232.391 327.78 232.391Z" fill="#4C8C73"/>
<path d="M319.95 232.391H318.547C318.096 232.391 317.73 232.756 317.73 233.207V234.72C317.73 235.171 318.096 235.536 318.547 235.536H319.95C320.401 235.536 320.767 235.171 320.767 234.72V233.207C320.767 232.756 320.401 232.391 319.95 232.391Z" fill="#4C8C73"/>
<path d="M314.703 232.391H313.299C312.848 232.391 312.483 232.756 312.483 233.207V234.72C312.483 235.171 312.848 235.536 313.299 235.536H314.703C315.154 235.536 315.519 235.171 315.519 234.72V233.207C315.519 232.756 315.154 232.391 314.703 232.391Z" fill="#4C8C73"/>
<path d="M411.142 224.528C409.285 222.362 405.515 220.328 403.448 218.143C402.568 217.213 401.979 215.899 401.243 214.853C402.138 213.581 403.264 212.5 403.821 211.003C405.061 207.654 403.555 207.663 400.809 208.722C399.503 209.226 398.722 209.994 397.788 210.996C395.718 209.121 392.763 207.757 389.931 207.702C388.805 207.68 387.572 207.637 387.447 208.89C387.081 212.57 388.024 216.18 390.204 219.136C390.451 219.47 391.953 221.013 391.966 221.147C392.116 222.504 389.366 224.988 388.185 225.536C382.213 228.302 378.083 222.214 373.32 219.931C366.564 216.691 358.264 217.471 352.074 221.605C350.987 222.33 349.841 222.91 350.48 224.486C350.899 225.521 352.951 225.408 353.896 225.255C354.538 225.152 356.472 223.783 357.347 223.404C361.285 221.694 365.752 221.481 369.82 222.88C374.789 224.589 377.696 229.223 383.025 230.155C388.303 231.079 394.417 227.903 395.74 222.487C395.919 221.749 396.218 220.232 396.013 219.544C395.908 219.191 393.664 217.165 393.158 216.366C392.435 215.224 391.697 213.443 391.752 212.103C395.685 213.245 397.716 216.517 399.429 219.968L407.565 226.99C407.165 227.335 406.705 228.09 406.196 228.186C403.308 228.446 399.872 227.852 397.054 228.186C394.983 228.431 395.539 230.854 395.297 232.463C394.64 236.807 392.003 241.546 387.642 243.002V235.702C387.642 234.591 386.74 233.692 385.631 233.692C384.52 233.692 383.621 234.591 383.621 235.702C383.621 238.773 383.621 244.281 383.621 244.281C382.73 244.484 381.759 244.407 380.851 244.464C379.768 244.532 378.061 244.486 377.716 245.802C377.646 246.073 377.635 246.354 377.635 246.632C377.635 247.223 377.72 247.976 378.227 248.365C378.779 248.788 379.663 248.777 380.318 248.716C380.949 248.657 381.575 248.522 382.213 248.516C382.346 248.516 383.625 248.478 383.623 248.489C383.202 250.982 382.084 253.211 379.772 254.418C378.179 255.25 377.151 254.658 377.214 256.996C377.308 260.48 380.29 258.856 382.145 257.705C385.71 255.492 387.709 251.622 387.67 247.415C394.356 245.276 398.717 239.332 399.357 232.408C403.317 232.19 408.486 233.475 410.911 229.426C411.743 228.036 412.299 225.875 411.147 224.53L411.142 224.528Z" fill="#2E2C22"/>
<path d="M366.59 268.472H382.772C382.979 268.472 384.632 269.079 384.944 269.225C385.9 269.675 388.927 271.62 386.972 272.489C382.217 272.515 377.463 272.476 372.706 272.487C370.493 272.491 368.164 272.7 365.95 272.692C365.621 272.692 363.833 272.521 363.61 272.456C363.372 272.386 362.801 271.766 362.707 271.533C362.412 265.835 362.606 260.062 362.606 254.34C362.818 253.607 364.272 253.5 364.942 253.201C374.833 248.791 373.586 233.756 362.576 231.44C361.157 231.141 359.116 231.582 358.908 229.805C358.732 228.303 358.688 227.128 360.467 227.133C373.322 227.168 380.532 242.474 372.255 252.467C370.58 254.489 368.483 255.744 366.444 257.261L366.592 268.472H366.59Z" fill="#2E2C22"/>
<path d="M336.023 253.579C336.63 253.368 337.333 253.376 337.924 253.579C339.016 253.948 339.356 254.981 338.942 256.011C338.601 256.854 338.023 257.576 337.427 258.264C334.172 262.018 330.123 265.14 325.351 266.672C321.068 268.048 316.508 268.22 312.044 268.213C310.376 268.211 308.709 268.185 307.041 268.137C306.598 268.124 306.144 268.106 305.736 267.938C304.838 267.569 304.358 266.432 304.686 265.52C305.209 264.066 306.593 264.297 307.809 264.275C308.479 264.262 309.143 264.256 309.815 264.232C313.795 264.09 317.833 264.369 321.76 263.584C324.115 263.112 326.434 262.108 328.481 260.866C329.715 260.117 330.874 259.253 331.926 258.264C332.805 257.437 333.541 256.568 334.198 255.566C334.598 254.957 334.895 254.219 335.538 253.815C335.689 253.719 335.853 253.643 336.025 253.584L336.023 253.579Z" fill="#2E2C22"/>
<path d="M341.72 247.939H335.03C334.579 247.939 334.213 248.305 334.213 248.756V250.269C334.213 250.719 334.579 251.085 335.03 251.085H341.72C342.171 251.085 342.537 250.719 342.537 250.269V248.756C342.537 248.305 342.171 247.939 341.72 247.939Z" fill="#2E2C22"/>
<path d="M331.262 253.422H327.318C326.867 253.422 326.501 253.787 326.501 254.238V255.297C326.501 255.748 326.867 256.113 327.318 256.113H331.262C331.713 256.113 332.079 255.748 332.079 255.297V254.238C332.079 253.787 331.713 253.422 331.262 253.422Z" fill="#2E2C22"/>
<path d="M323.38 253.422H322.103C321.652 253.422 321.286 253.787 321.286 254.238V255.297C321.286 255.748 321.652 256.113 322.103 256.113H323.38C323.83 256.113 324.196 255.748 324.196 255.297V254.238C324.196 253.787 323.83 253.422 323.38 253.422Z" fill="#4C8C73"/>
<path d="M318.152 253.422H316.875C316.424 253.422 316.059 253.787 316.059 254.238V255.297C316.059 255.748 316.424 256.113 316.875 256.113H318.152C318.603 256.113 318.968 255.748 318.968 255.297V254.238C318.968 253.787 318.603 253.422 318.152 253.422Z" fill="#4C8C73"/>
<path d="M312.924 253.422H311.647C311.196 253.422 310.831 253.787 310.831 254.238V255.297C310.831 255.748 311.196 256.113 311.647 256.113H312.924C313.375 256.113 313.74 255.748 313.74 255.297V254.238C313.74 253.787 313.375 253.422 312.924 253.422Z" fill="#4C8C73"/>
<path d="M363.608 250.468C362.986 250.535 362.386 250.202 362.082 249.654C358.732 243.574 355.839 237.222 352.696 231.023C352.548 230.732 352.248 230.549 351.923 230.549H347.442C346.922 230.549 346.497 230.123 346.497 229.604V228.078C346.497 227.558 346.922 227.133 347.442 227.133H354.541C355.084 227.133 355.435 227.635 355.671 228.074C355.938 228.569 356.171 229.082 356.422 229.582L356.826 230.381L357.284 231.289C357.452 231.623 357.621 231.957 357.789 232.291C357.97 232.651 358.151 233.009 358.332 233.369L358.906 234.509L359.502 235.692C359.705 236.096 359.91 236.5 360.113 236.903C360.319 237.312 360.524 237.72 360.731 238.128C360.939 238.536 361.142 238.94 361.347 239.348L361.951 240.547C362.148 240.935 362.342 241.322 362.539 241.71L363.1 242.821L363.626 243.862C363.787 244.181 363.947 244.5 364.108 244.819L364.54 245.674C364.665 245.921 364.789 246.168 364.914 246.414L365.219 247.021L365.448 247.477L365.595 247.768C365.612 247.805 365.632 247.84 365.649 247.877C365.73 248.034 365.791 248.2 365.806 248.374C365.891 249.453 364.713 250.352 363.61 250.47L363.608 250.468Z" fill="#2E2C22"/>
</g>
</g>
<defs>
<linearGradient id="paint0_linear_951_15800" x1="960.095" y1="715.668" x2="960.095" y2="143.27" gradientUnits="userSpaceOnUse">
<stop stop-color="#F5F5F5"/>
<stop offset="0.495192" stop-color="#D4D4D4"/>
<stop offset="0.980769" stop-color="#F5F5F5"/>
</linearGradient>
<clipPath id="clip0_951_15800">
<rect width="1920.19" height="715.668" fill="white"/>
</clipPath>
</defs>
</svg>
