<svg width="126" height="103" viewBox="0 0 126 103" fill="none" xmlns="http://www.w3.org/2000/svg">
<path opacity="0.5" d="M112.168 100.948V1.43396H125.504V100.948H112.168ZM91.8066 13.4789V1.43396H124.07V13.4789H91.8066Z" fill="url(#paint0_linear_1018_2834)"/>
<path opacity="0.5" d="M40.5798 102.382C33.1235 102.382 26.2885 100.279 20.0748 96.0724C13.9568 91.8663 9.08147 85.9394 5.44888 78.2919C1.8163 70.5487 0 61.4672 0 51.0474C0 40.6277 1.7685 31.594 5.30549 23.9464C8.93808 16.2989 13.8134 10.4198 19.9314 6.30924C26.0495 2.10308 32.7889 0 40.1497 0C47.7016 0 54.5366 2.10308 60.6547 6.30924C66.7727 10.4198 71.6003 16.2989 75.1373 23.9464C78.7698 31.594 80.5861 40.6754 80.5861 51.1908C80.5861 61.6106 78.7698 70.6921 75.1373 78.4353C71.6003 86.0828 66.7727 92.0097 60.6547 96.2158C54.6322 100.326 47.9406 102.382 40.5798 102.382ZM40.2931 89.6198C45.5508 89.6198 50.1393 88.1859 54.0587 85.3181C58.0736 82.3546 61.2283 78.0051 63.5225 72.2694C65.8168 66.5338 66.9639 59.4598 66.9639 51.0474C66.9639 42.6351 65.8168 35.6089 63.5225 29.9689C61.2283 24.2332 58.0736 19.9314 54.0587 17.0636C50.0437 14.1002 45.4074 12.6185 40.1497 12.6185C34.9876 12.6185 30.399 14.1002 26.3841 17.0636C22.3691 19.9314 19.2145 24.2332 16.9202 29.9689C14.7215 35.6089 13.6222 42.6351 13.6222 51.0474C13.6222 59.4598 14.7215 66.5338 16.9202 72.2694C19.2145 78.0051 22.3691 82.3546 26.3841 85.3181C30.399 88.1859 35.0354 89.6198 40.2931 89.6198Z" fill="url(#paint1_linear_1018_2834)"/>
<defs>
<linearGradient id="paint0_linear_1018_2834" x1="65.2607" y1="-43.0522" x2="65.2607" y2="137.948" gradientUnits="userSpaceOnUse">
<stop stop-color="white"/>
<stop offset="1" stop-color="#1F1F1F" stop-opacity="0"/>
</linearGradient>
<linearGradient id="paint1_linear_1018_2834" x1="65.2606" y1="-43.0522" x2="65.2606" y2="137.948" gradientUnits="userSpaceOnUse">
<stop stop-color="white"/>
<stop offset="1" stop-color="#1F1F1F" stop-opacity="0"/>
</linearGradient>
</defs>
</svg>
