<svg width="159" height="103" viewBox="0 0 159 103" fill="none" xmlns="http://www.w3.org/2000/svg">
<path opacity="0.5" d="M91.8135 92.7744L128.522 54.0587C132.25 50.2349 135.166 46.9369 137.269 44.1646C139.372 41.2968 140.853 38.668 141.714 36.2781C142.67 33.8882 143.148 31.4028 143.148 28.8217C143.148 23.7552 141.523 19.7881 138.272 16.9202C135.022 14.0524 130.816 12.6185 125.654 12.6185C120.587 12.6185 116.142 13.8612 112.318 16.3467C108.495 18.7365 105.101 22.4647 102.138 27.5312L92.6738 19.6447C96.5932 13.1442 101.325 8.26892 106.87 5.01871C112.414 1.67291 118.819 0 126.084 0C132.202 0 137.508 1.19494 142.001 3.5848C146.589 5.97466 150.126 9.32046 152.612 13.6222C155.097 17.924 156.34 22.9427 156.34 28.6783C156.34 32.7889 155.814 36.4693 154.762 39.7195C153.806 42.9697 152.038 46.3155 149.457 49.7569C146.971 53.1027 143.482 57.1177 138.989 61.8018L109.307 92.3443L91.8135 92.7744ZM91.8135 100.948V92.7744L103.285 88.9029H158.634V100.948H91.8135Z" fill="url(#paint0_linear_1018_2843)"/>
<path opacity="0.5" d="M40.5798 102.382C33.1235 102.382 26.2885 100.279 20.0748 96.0724C13.9568 91.8663 9.08147 85.9394 5.44888 78.2919C1.8163 70.5487 0 61.4672 0 51.0474C0 40.6277 1.7685 31.594 5.30549 23.9464C8.93808 16.2989 13.8134 10.4198 19.9314 6.30924C26.0495 2.10308 32.7889 0 40.1497 0C47.7016 0 54.5366 2.10308 60.6547 6.30924C66.7727 10.4198 71.6003 16.2989 75.1373 23.9464C78.7698 31.594 80.5861 40.6754 80.5861 51.1908C80.5861 61.6106 78.7698 70.6921 75.1373 78.4353C71.6003 86.0828 66.7727 92.0097 60.6547 96.2158C54.6322 100.326 47.9406 102.382 40.5798 102.382ZM40.2931 89.6198C45.5508 89.6198 50.1393 88.1859 54.0587 85.3181C58.0736 82.3546 61.2283 78.0051 63.5225 72.2694C65.8168 66.5338 66.9639 59.4598 66.9639 51.0474C66.9639 42.6351 65.8168 35.6089 63.5225 29.9689C61.2283 24.2332 58.0736 19.9314 54.0587 17.0636C50.0437 14.1002 45.4074 12.6185 40.1497 12.6185C34.9876 12.6185 30.399 14.1002 26.3841 17.0636C22.3691 19.9314 19.2145 24.2332 16.9202 29.9689C14.7215 35.6089 13.6222 42.6351 13.6222 51.0474C13.6222 59.4598 14.7215 66.5338 16.9202 72.2694C19.2145 78.0051 22.3691 82.3546 26.3841 85.3181C30.399 88.1859 35.0354 89.6198 40.2931 89.6198Z" fill="url(#paint1_linear_1018_2843)"/>
<defs>
<linearGradient id="paint0_linear_1018_2843" x1="79.2608" y1="-43.0522" x2="79.2608" y2="137.948" gradientUnits="userSpaceOnUse">
<stop stop-color="white"/>
<stop offset="1" stop-color="#1F1F1F" stop-opacity="0"/>
</linearGradient>
<linearGradient id="paint1_linear_1018_2843" x1="79.2606" y1="-43.0522" x2="79.2606" y2="137.948" gradientUnits="userSpaceOnUse">
<stop stop-color="white"/>
<stop offset="1" stop-color="#1F1F1F" stop-opacity="0"/>
</linearGradient>
</defs>
</svg>
