<svg width="159" height="103" viewBox="0 0 159 103" fill="none" xmlns="http://www.w3.org/2000/svg">
<path opacity="0.5" d="M122.779 102.382C116.279 102.382 110.352 101.187 104.999 98.7969C99.7408 96.3115 95.2957 92.7267 91.6631 88.0425L100.84 78.8655C103.039 82.2113 106.05 84.8879 109.874 86.8954C113.698 88.8073 117.952 89.7632 122.636 89.7632C127.033 89.7632 130.809 88.9507 133.964 87.3256C137.214 85.6049 139.747 83.215 141.563 80.156C143.475 77.097 144.431 73.56 144.431 69.545C144.431 65.4344 143.475 61.8975 141.563 58.934C139.747 55.875 137.166 53.5329 133.82 51.9078C130.474 50.2827 126.507 49.4702 121.919 49.4702C120.198 49.4702 118.477 49.6136 116.757 49.9003C115.036 50.0915 113.363 50.4261 111.738 50.9041L117.474 43.1609C119.29 42.3006 121.25 41.6314 123.353 41.1535C125.456 40.6755 127.559 40.4365 129.662 40.4365C135.015 40.4365 139.795 41.6792 144.001 44.1647C148.303 46.6501 151.696 50.1393 154.182 54.6323C156.763 59.1252 158.053 64.3351 158.053 70.262C158.053 76.5712 156.524 82.1635 153.465 87.0388C150.501 91.8185 146.391 95.5945 141.133 98.3667C135.876 101.043 129.757 102.382 122.779 102.382ZM111.738 50.9041V42.7308L140.846 9.60728L156.906 9.46389L126.937 43.4477L111.738 50.9041ZM96.395 13.4789V1.43396H156.906V9.46389L145.148 13.4789H96.395Z" fill="url(#paint0_linear_1018_2852)"/>
<path opacity="0.5" d="M40.5798 102.382C33.1235 102.382 26.2885 100.279 20.0748 96.0724C13.9568 91.8663 9.08147 85.9394 5.44888 78.2919C1.8163 70.5487 0 61.4672 0 51.0474C0 40.6277 1.7685 31.594 5.30549 23.9464C8.93808 16.2989 13.8134 10.4198 19.9314 6.30924C26.0495 2.10308 32.7889 0 40.1497 0C47.7016 0 54.5366 2.10308 60.6547 6.30924C66.7727 10.4198 71.6003 16.2989 75.1373 23.9464C78.7698 31.594 80.5861 40.6754 80.5861 51.1908C80.5861 61.6106 78.7698 70.6921 75.1373 78.4353C71.6003 86.0828 66.7727 92.0097 60.6547 96.2158C54.6322 100.326 47.9406 102.382 40.5798 102.382ZM40.2931 89.6198C45.5508 89.6198 50.1393 88.1859 54.0587 85.3181C58.0736 82.3546 61.2283 78.0051 63.5225 72.2694C65.8168 66.5338 66.9639 59.4598 66.9639 51.0474C66.9639 42.6351 65.8168 35.6089 63.5225 29.9689C61.2283 24.2332 58.0736 19.9314 54.0587 17.0636C50.0437 14.1002 45.4074 12.6185 40.1497 12.6185C34.9876 12.6185 30.399 14.1002 26.3841 17.0636C22.3691 19.9314 19.2145 24.2332 16.9202 29.9689C14.7215 35.6089 13.6222 42.6351 13.6222 51.0474C13.6222 59.4598 14.7215 66.5338 16.9202 72.2694C19.2145 78.0051 22.3691 82.3546 26.3841 85.3181C30.399 88.1859 35.0354 89.6198 40.2931 89.6198Z" fill="url(#paint1_linear_1018_2852)"/>
<defs>
<linearGradient id="paint0_linear_1018_2852" x1="79.2605" y1="-43.0522" x2="79.2605" y2="137.948" gradientUnits="userSpaceOnUse">
<stop stop-color="white"/>
<stop offset="1" stop-color="#1F1F1F" stop-opacity="0"/>
</linearGradient>
<linearGradient id="paint1_linear_1018_2852" x1="79.2606" y1="-43.0522" x2="79.2606" y2="137.948" gradientUnits="userSpaceOnUse">
<stop stop-color="white"/>
<stop offset="1" stop-color="#1F1F1F" stop-opacity="0"/>
</linearGradient>
</defs>
</svg>
