<svg width="159" height="103" viewBox="0 0 159 103" fill="none" xmlns="http://www.w3.org/2000/svg">
<path opacity="0.5" d="M86.4443 66.676L120.497 1.43384H134.765L100.039 66.676H86.4443ZM86.4443 74.9926V66.676L91.8282 62.9479H158.05V74.9926H86.4443ZM132.073 100.946V35.1303H144.59V100.946H132.073Z" fill="url(#paint0_linear_1875_1395)"/>
<path opacity="0.5" d="M38.0909 102.38C31.0919 102.38 24.6761 100.277 18.8436 96.0709C13.1008 91.8648 8.52447 85.938 5.11468 78.2906C1.70489 70.5476 0 61.4662 0 51.0466C0 40.627 1.66003 31.5935 4.98008 23.946C8.38987 16.2986 12.9662 10.4196 18.709 6.30913C24.4518 2.10304 30.7778 0 37.6871 0C44.7759 0 51.1917 2.10304 56.9345 6.30913C62.6773 10.4196 67.2087 16.2986 70.5287 23.946C73.9385 31.5935 75.6434 40.6748 75.6434 51.19C75.6434 61.6096 73.9385 70.691 70.5287 78.434C67.2087 86.0814 62.6773 92.0082 56.9345 96.2143C51.2814 100.325 45.0002 102.38 38.0909 102.38ZM37.8217 89.6183C42.7569 89.6183 47.064 88.1844 50.743 85.3167C54.5117 82.3533 57.4729 78.0038 59.6264 72.2682C61.7799 66.5327 62.8567 59.4588 62.8567 51.0466C62.8567 42.6344 61.7799 35.6084 59.6264 29.9684C57.4729 24.2328 54.5117 19.9311 50.743 17.0633C46.9743 14.1 42.6223 12.6183 37.6871 12.6183C32.8416 12.6183 28.5345 14.1 24.7658 17.0633C20.9971 19.9311 18.036 24.2328 15.8824 29.9684C13.8186 35.6084 12.7867 42.6344 12.7867 51.0466C12.7867 59.4588 13.8186 66.5327 15.8824 72.2682C18.036 78.0038 20.9971 82.3533 24.7658 85.3167C28.5345 88.1844 32.8865 89.6183 37.8217 89.6183Z" fill="url(#paint1_linear_1875_1395)"/>
<defs>
<linearGradient id="paint0_linear_1875_1395" x1="-37.8769" y1="-122.521" x2="-37.8769" y2="201.881" gradientUnits="userSpaceOnUse">
<stop stop-color="white"/>
<stop offset="1" stop-color="#1F1F1F" stop-opacity="0"/>
</linearGradient>
<linearGradient id="paint1_linear_1875_1395" x1="-37.8768" y1="-122.521" x2="-37.8768" y2="201.881" gradientUnits="userSpaceOnUse">
<stop stop-color="white"/>
<stop offset="1" stop-color="#1F1F1F" stop-opacity="0"/>
</linearGradient>
</defs>
</svg>
