<svg width="159" height="103" viewBox="0 0 159 103" fill="none" xmlns="http://www.w3.org/2000/svg">
<path opacity="0.5" d="M122.144 102.38C115.4 102.38 109.368 101.185 104.049 98.7952C98.8244 96.3098 94.4074 92.725 90.7979 88.041L99.9168 78.8641C102.102 82.2098 105.094 84.8864 108.893 86.8939C112.788 88.8057 117.11 89.7617 121.859 89.7617C126.324 89.7617 130.218 88.9013 133.543 87.1806C136.963 85.46 139.622 83.0702 141.522 80.0112C143.517 76.8566 144.514 73.1285 144.514 68.8268C144.514 64.4295 143.564 60.7014 141.665 57.6425C139.765 54.5835 137.2 52.2893 133.97 50.7598C130.836 49.1347 127.369 48.3221 123.569 48.3221C119.675 48.3221 116.112 48.8001 112.883 49.756C109.748 50.712 106.756 52.3371 103.906 54.6313L104.049 46.0279C105.664 44.0205 107.516 42.3954 109.606 41.1527C111.695 39.91 114.07 38.954 116.73 38.2849C119.39 37.6157 122.477 37.2812 125.991 37.2812C132.831 37.2812 138.625 38.7151 143.374 41.5828C148.124 44.4506 151.733 48.3222 154.203 53.1974C156.768 58.0726 158.05 63.5214 158.05 69.5438C158.05 75.8529 156.483 81.4929 153.348 86.4637C150.309 91.4345 146.082 95.3538 140.667 98.2216C135.253 100.994 129.078 102.38 122.144 102.38ZM103.906 54.6313L96.6397 47.3184L101.057 1.43384H113.31L108.323 48.6089L103.906 54.6313ZM103.764 13.4785L101.057 1.43384H153.063V13.4785H103.764Z" fill="url(#paint0_linear_1875_1404)"/>
<path opacity="0.5" d="M40.3229 102.38C32.9137 102.38 26.122 100.277 19.9477 96.0709C13.8684 91.8648 9.02396 85.938 5.41438 78.2906C1.80479 70.5476 0 61.4662 0 51.0466C0 40.627 1.7573 31.5935 5.27189 23.946C8.88148 16.2986 13.7259 10.4196 19.8052 6.30913C25.8845 2.10304 32.5813 0 39.8954 0C47.3996 0 54.1913 2.10304 60.2706 6.30913C66.3499 10.4196 71.1468 16.2986 74.6614 23.946C78.271 31.5935 80.0758 40.6748 80.0758 51.19C80.0758 61.6096 78.271 70.691 74.6614 78.434C71.1468 86.0814 66.3499 92.0082 60.2706 96.2143C54.2863 100.325 47.637 102.38 40.3229 102.38ZM40.0379 89.6183C45.2623 89.6183 49.8218 88.1844 53.7163 85.3167C57.7059 82.3533 60.8405 78.0038 63.1202 72.2682C65.4 66.5327 66.5399 59.4588 66.5399 51.0466C66.5399 42.6344 65.4 35.6084 63.1202 29.9684C60.8405 24.2328 57.7059 19.9311 53.7163 17.0633C49.7268 14.1 45.1198 12.6183 39.8954 12.6183C34.766 12.6183 30.2065 14.1 26.217 17.0633C22.2274 19.9311 19.0928 24.2328 16.8131 29.9684C14.6283 35.6084 13.5359 42.6344 13.5359 51.0466C13.5359 59.4588 14.6283 66.5327 16.8131 72.2682C19.0928 78.0038 22.2274 82.3533 26.217 85.3167C30.2065 88.1844 34.8135 89.6183 40.0379 89.6183Z" fill="url(#paint1_linear_1875_1404)"/>
<defs>
<linearGradient id="paint0_linear_1875_1404" x1="-40.0961" y1="-106.132" x2="-40.0961" y2="151.587" gradientUnits="userSpaceOnUse">
<stop stop-color="white"/>
<stop offset="1" stop-color="#1F1F1F" stop-opacity="0"/>
</linearGradient>
<linearGradient id="paint1_linear_1875_1404" x1="-40.0962" y1="-106.132" x2="-40.0962" y2="151.587" gradientUnits="userSpaceOnUse">
<stop stop-color="white"/>
<stop offset="1" stop-color="#1F1F1F" stop-opacity="0"/>
</linearGradient>
</defs>
</svg>
